<?xml version="1.0" standalone="no"?>
<!DOCTYPE svg PUBLIC "-//W3C//DTD SVG 1.1//EN" "http://www.w3.org/Graphics/SVG/1.1/DTD/svg11.dtd">
<svg width="120mm" height="60mm" viewBox="0 -118 120 60" xmlns="http://www.w3.org/2000/svg" version="1.1">
<title>OpenSCAD Model</title>
<path d="
M 120,-118 L 0,-118 L 0,-58 L 120,-58 z
M 18.5,-104.5 L 18.3744,-104.504 L 18.2493,-104.516 L 18.1252,-104.535 L 18.0026,-104.563 L 17.882,-104.598
 L 17.7637,-104.64 L 17.6484,-104.69 L 17.5365,-104.747 L 17.4283,-104.811 L 17.3244,-104.882 L 17.2251,-104.959
 L 17.1309,-105.042 L 17.0421,-105.131 L 16.959,-105.225 L 16.882,-105.324 L 16.8113,-105.428 L 16.7474,-105.536
 L 16.6903,-105.648 L 16.6404,-105.764 L 16.5979,-105.882 L 16.5628,-106.003 L 16.5354,-106.125 L 16.5158,-106.249
 L 16.5039,-106.374 L 16.5,-106.5 L 16.5,-114.5 L 16.5039,-114.626 L 16.5158,-114.751 L 16.5354,-114.875
 L 16.5628,-114.997 L 16.5979,-115.118 L 16.6404,-115.236 L 16.6903,-115.352 L 16.7474,-115.464 L 16.8113,-115.572
 L 16.882,-115.676 L 16.959,-115.775 L 17.0421,-115.869 L 17.1309,-115.958 L 17.2251,-116.041 L 17.3244,-116.118
 L 17.4283,-116.189 L 17.5365,-116.253 L 17.6484,-116.31 L 17.7637,-116.36 L 17.882,-116.402 L 18.0026,-116.437
 L 18.1252,-116.465 L 18.2493,-116.484 L 18.3744,-116.496 L 18.5,-116.5 L 26.5,-116.5 L 26.6256,-116.496
 L 26.7507,-116.484 L 26.8748,-116.465 L 26.9974,-116.437 L 27.118,-116.402 L 27.2362,-116.36 L 27.3515,-116.31
 L 27.4635,-116.253 L 27.5716,-116.189 L 27.6756,-116.118 L 27.7748,-116.041 L 27.8691,-115.958 L 27.9579,-115.869
 L 28.041,-115.775 L 28.118,-115.676 L 28.1886,-115.572 L 28.2526,-115.464 L 28.3096,-115.352 L 28.3595,-115.236
 L 28.4021,-115.118 L 28.4372,-114.997 L 28.4646,-114.875 L 28.4842,-114.751 L 28.496,-114.626 L 28.5,-114.5
 L 28.5,-106.5 L 28.496,-106.374 L 28.4842,-106.249 L 28.4646,-106.125 L 28.4372,-106.003 L 28.4021,-105.882
 L 28.3595,-105.764 L 28.3096,-105.648 L 28.2526,-105.536 L 28.1886,-105.428 L 28.118,-105.324 L 28.041,-105.225
 L 27.9579,-105.131 L 27.8691,-105.042 L 27.7748,-104.959 L 27.6756,-104.882 L 27.5716,-104.811 L 27.4635,-104.747
 L 27.3515,-104.69 L 27.2362,-104.64 L 27.118,-104.598 L 26.9974,-104.563 L 26.8748,-104.535 L 26.7507,-104.516
 L 26.6256,-104.504 L 26.5,-104.5 z
M 48.5,-104.5 L 48.3744,-104.504 L 48.2493,-104.516 L 48.1252,-104.535 L 48.0026,-104.563 L 47.882,-104.598
 L 47.7637,-104.64 L 47.6484,-104.69 L 47.5365,-104.747 L 47.4283,-104.811 L 47.3244,-104.882 L 47.2251,-104.959
 L 47.1309,-105.042 L 47.0421,-105.131 L 46.959,-105.225 L 46.882,-105.324 L 46.8113,-105.428 L 46.7474,-105.536
 L 46.6903,-105.648 L 46.6404,-105.764 L 46.5979,-105.882 L 46.5628,-106.003 L 46.5354,-106.125 L 46.5158,-106.249
 L 46.5039,-106.374 L 46.5,-106.5 L 46.5,-114.5 L 46.5039,-114.626 L 46.5158,-114.751 L 46.5354,-114.875
 L 46.5628,-114.997 L 46.5979,-115.118 L 46.6404,-115.236 L 46.6903,-115.352 L 46.7474,-115.464 L 46.8113,-115.572
 L 46.882,-115.676 L 46.959,-115.775 L 47.0421,-115.869 L 47.1309,-115.958 L 47.2251,-116.041 L 47.3244,-116.118
 L 47.4283,-116.189 L 47.5365,-116.253 L 47.6484,-116.31 L 47.7637,-116.36 L 47.882,-116.402 L 48.0026,-116.437
 L 48.1252,-116.465 L 48.2493,-116.484 L 48.3744,-116.496 L 48.5,-116.5 L 56.5,-116.5 L 56.6256,-116.496
 L 56.7507,-116.484 L 56.8748,-116.465 L 56.9974,-116.437 L 57.118,-116.402 L 57.2362,-116.36 L 57.3515,-116.31
 L 57.4635,-116.253 L 57.5716,-116.189 L 57.6756,-116.118 L 57.7748,-116.041 L 57.8691,-115.958 L 57.9579,-115.869
 L 58.041,-115.775 L 58.118,-115.676 L 58.1886,-115.572 L 58.2526,-115.464 L 58.3096,-115.352 L 58.3595,-115.236
 L 58.4021,-115.118 L 58.4372,-114.997 L 58.4646,-114.875 L 58.4842,-114.751 L 58.496,-114.626 L 58.5,-114.5
 L 58.5,-106.5 L 58.496,-106.374 L 58.4842,-106.249 L 58.4646,-106.125 L 58.4372,-106.003 L 58.4021,-105.882
 L 58.3595,-105.764 L 58.3096,-105.648 L 58.2526,-105.536 L 58.1886,-105.428 L 58.118,-105.324 L 58.041,-105.225
 L 57.9579,-105.131 L 57.8691,-105.042 L 57.7748,-104.959 L 57.6756,-104.882 L 57.5716,-104.811 L 57.4635,-104.747
 L 57.3515,-104.69 L 57.2362,-104.64 L 57.118,-104.598 L 56.9974,-104.563 L 56.8748,-104.535 L 56.7507,-104.516
 L 56.6256,-104.504 L 56.5,-104.5 z
M 63.5,-104.5 L 63.3744,-104.504 L 63.2493,-104.516 L 63.1252,-104.535 L 63.0026,-104.563 L 62.882,-104.598
 L 62.7637,-104.64 L 62.6484,-104.69 L 62.5365,-104.747 L 62.4283,-104.811 L 62.3244,-104.882 L 62.2251,-104.959
 L 62.1309,-105.042 L 62.0421,-105.131 L 61.959,-105.225 L 61.882,-105.324 L 61.8113,-105.428 L 61.7474,-105.536
 L 61.6903,-105.648 L 61.6404,-105.764 L 61.5979,-105.882 L 61.5628,-106.003 L 61.5354,-106.125 L 61.5158,-106.249
 L 61.5039,-106.374 L 61.5,-106.5 L 61.5,-114.5 L 61.5039,-114.626 L 61.5158,-114.751 L 61.5354,-114.875
 L 61.5628,-114.997 L 61.5979,-115.118 L 61.6404,-115.236 L 61.6903,-115.352 L 61.7474,-115.464 L 61.8113,-115.572
 L 61.882,-115.676 L 61.959,-115.775 L 62.0421,-115.869 L 62.1309,-115.958 L 62.2251,-116.041 L 62.3244,-116.118
 L 62.4283,-116.189 L 62.5365,-116.253 L 62.6484,-116.31 L 62.7637,-116.36 L 62.882,-116.402 L 63.0026,-116.437
 L 63.1252,-116.465 L 63.2493,-116.484 L 63.3744,-116.496 L 63.5,-116.5 L 71.5,-116.5 L 71.6256,-116.496
 L 71.7507,-116.484 L 71.8748,-116.465 L 71.9974,-116.437 L 72.118,-116.402 L 72.2362,-116.36 L 72.3515,-116.31
 L 72.4635,-116.253 L 72.5716,-116.189 L 72.6756,-116.118 L 72.7748,-116.041 L 72.8691,-115.958 L 72.9579,-115.869
 L 73.041,-115.775 L 73.118,-115.676 L 73.1886,-115.572 L 73.2526,-115.464 L 73.3096,-115.352 L 73.3595,-115.236
 L 73.4021,-115.118 L 73.4372,-114.997 L 73.4646,-114.875 L 73.4842,-114.751 L 73.496,-114.626 L 73.5,-114.5
 L 73.5,-106.5 L 73.496,-106.374 L 73.4842,-106.249 L 73.4646,-106.125 L 73.4372,-106.003 L 73.4021,-105.882
 L 73.3595,-105.764 L 73.3096,-105.648 L 73.2526,-105.536 L 73.1886,-105.428 L 73.118,-105.324 L 73.041,-105.225
 L 72.9579,-105.131 L 72.8691,-105.042 L 72.7748,-104.959 L 72.6756,-104.882 L 72.5716,-104.811 L 72.4635,-104.747
 L 72.3515,-104.69 L 72.2362,-104.64 L 72.118,-104.598 L 71.9974,-104.563 L 71.8748,-104.535 L 71.7507,-104.516
 L 71.6256,-104.504 L 71.5,-104.5 z
M 78.5,-104.5 L 78.3744,-104.504 L 78.2493,-104.516 L 78.1252,-104.535 L 78.0026,-104.563 L 77.882,-104.598
 L 77.7637,-104.64 L 77.6484,-104.69 L 77.5365,-104.747 L 77.4283,-104.811 L 77.3244,-104.882 L 77.2251,-104.959
 L 77.1309,-105.042 L 77.0421,-105.131 L 76.959,-105.225 L 76.882,-105.324 L 76.8113,-105.428 L 76.7474,-105.536
 L 76.6903,-105.648 L 76.6404,-105.764 L 76.5979,-105.882 L 76.5628,-106.003 L 76.5354,-106.125 L 76.5158,-106.249
 L 76.5039,-106.374 L 76.5,-106.5 L 76.5,-114.5 L 76.5039,-114.626 L 76.5158,-114.751 L 76.5354,-114.875
 L 76.5628,-114.997 L 76.5979,-115.118 L 76.6404,-115.236 L 76.6903,-115.352 L 76.7474,-115.464 L 76.8113,-115.572
 L 76.882,-115.676 L 76.959,-115.775 L 77.0421,-115.869 L 77.1309,-115.958 L 77.2251,-116.041 L 77.3244,-116.118
 L 77.4283,-116.189 L 77.5365,-116.253 L 77.6484,-116.31 L 77.7637,-116.36 L 77.882,-116.402 L 78.0026,-116.437
 L 78.1252,-116.465 L 78.2493,-116.484 L 78.3744,-116.496 L 78.5,-116.5 L 86.5,-116.5 L 86.6256,-116.496
 L 86.7507,-116.484 L 86.8748,-116.465 L 86.9974,-116.437 L 87.118,-116.402 L 87.2362,-116.36 L 87.3515,-116.31
 L 87.4635,-116.253 L 87.5716,-116.189 L 87.6756,-116.118 L 87.7748,-116.041 L 87.8691,-115.958 L 87.9579,-115.869
 L 88.041,-115.775 L 88.118,-115.676 L 88.1886,-115.572 L 88.2526,-115.464 L 88.3096,-115.352 L 88.3595,-115.236
 L 88.4021,-115.118 L 88.4372,-114.997 L 88.4646,-114.875 L 88.4842,-114.751 L 88.496,-114.626 L 88.5,-114.5
 L 88.5,-106.5 L 88.496,-106.374 L 88.4842,-106.249 L 88.4646,-106.125 L 88.4372,-106.003 L 88.4021,-105.882
 L 88.3595,-105.764 L 88.3096,-105.648 L 88.2526,-105.536 L 88.1886,-105.428 L 88.118,-105.324 L 88.041,-105.225
 L 87.9579,-105.131 L 87.8691,-105.042 L 87.7748,-104.959 L 87.6756,-104.882 L 87.5716,-104.811 L 87.4635,-104.747
 L 87.3515,-104.69 L 87.2362,-104.64 L 87.118,-104.598 L 86.9974,-104.563 L 86.8748,-104.535 L 86.7507,-104.516
 L 86.6256,-104.504 L 86.5,-104.5 z
M 33.5,-104.5 L 33.3744,-104.504 L 33.2493,-104.516 L 33.1252,-104.535 L 33.0026,-104.563 L 32.882,-104.598
 L 32.7637,-104.64 L 32.6484,-104.69 L 32.5365,-104.747 L 32.4283,-104.811 L 32.3244,-104.882 L 32.2251,-104.959
 L 32.1309,-105.042 L 32.0421,-105.131 L 31.959,-105.225 L 31.882,-105.324 L 31.8113,-105.428 L 31.7474,-105.536
 L 31.6903,-105.648 L 31.6404,-105.764 L 31.5979,-105.882 L 31.5628,-106.003 L 31.5354,-106.125 L 31.5158,-106.249
 L 31.5039,-106.374 L 31.5,-106.5 L 31.5,-114.5 L 31.5039,-114.626 L 31.5158,-114.751 L 31.5354,-114.875
 L 31.5628,-114.997 L 31.5979,-115.118 L 31.6404,-115.236 L 31.6903,-115.352 L 31.7474,-115.464 L 31.8113,-115.572
 L 31.882,-115.676 L 31.959,-115.775 L 32.0421,-115.869 L 32.1309,-115.958 L 32.2251,-116.041 L 32.3244,-116.118
 L 32.4283,-116.189 L 32.5365,-116.253 L 32.6484,-116.31 L 32.7637,-116.36 L 32.882,-116.402 L 33.0026,-116.437
 L 33.1252,-116.465 L 33.2493,-116.484 L 33.3744,-116.496 L 33.5,-116.5 L 41.5,-116.5 L 41.6256,-116.496
 L 41.7507,-116.484 L 41.8748,-116.465 L 41.9974,-116.437 L 42.118,-116.402 L 42.2362,-116.36 L 42.3515,-116.31
 L 42.4635,-116.253 L 42.5716,-116.189 L 42.6756,-116.118 L 42.7748,-116.041 L 42.8691,-115.958 L 42.9579,-115.869
 L 43.041,-115.775 L 43.118,-115.676 L 43.1886,-115.572 L 43.2526,-115.464 L 43.3096,-115.352 L 43.3595,-115.236
 L 43.4021,-115.118 L 43.4372,-114.997 L 43.4646,-114.875 L 43.4842,-114.751 L 43.496,-114.626 L 43.5,-114.5
 L 43.5,-106.5 L 43.496,-106.374 L 43.4842,-106.249 L 43.4646,-106.125 L 43.4372,-106.003 L 43.4021,-105.882
 L 43.3595,-105.764 L 43.3096,-105.648 L 43.2526,-105.536 L 43.1886,-105.428 L 43.118,-105.324 L 43.041,-105.225
 L 42.9579,-105.131 L 42.8691,-105.042 L 42.7748,-104.959 L 42.6756,-104.882 L 42.5716,-104.811 L 42.4635,-104.747
 L 42.3515,-104.69 L 42.2362,-104.64 L 42.118,-104.598 L 41.9974,-104.563 L 41.8748,-104.535 L 41.7507,-104.516
 L 41.6256,-104.504 L 41.5,-104.5 z
M 93.5,-104.5 L 93.3744,-104.504 L 93.2493,-104.516 L 93.1252,-104.535 L 93.0026,-104.563 L 92.882,-104.598
 L 92.7637,-104.64 L 92.6484,-104.69 L 92.5365,-104.747 L 92.4283,-104.811 L 92.3244,-104.882 L 92.2251,-104.959
 L 92.1309,-105.042 L 92.0421,-105.131 L 91.959,-105.225 L 91.882,-105.324 L 91.8113,-105.428 L 91.7474,-105.536
 L 91.6903,-105.648 L 91.6404,-105.764 L 91.5979,-105.882 L 91.5628,-106.003 L 91.5354,-106.125 L 91.5158,-106.249
 L 91.5039,-106.374 L 91.5,-106.5 L 91.5,-114.5 L 91.5039,-114.626 L 91.5158,-114.751 L 91.5354,-114.875
 L 91.5628,-114.997 L 91.5979,-115.118 L 91.6404,-115.236 L 91.6903,-115.352 L 91.7474,-115.464 L 91.8113,-115.572
 L 91.882,-115.676 L 91.959,-115.775 L 92.0421,-115.869 L 92.1309,-115.958 L 92.2251,-116.041 L 92.3244,-116.118
 L 92.4283,-116.189 L 92.5365,-116.253 L 92.6484,-116.31 L 92.7637,-116.36 L 92.882,-116.402 L 93.0026,-116.437
 L 93.1252,-116.465 L 93.2493,-116.484 L 93.3744,-116.496 L 93.5,-116.5 L 101.5,-116.5 L 101.626,-116.496
 L 101.751,-116.484 L 101.875,-116.465 L 101.997,-116.437 L 102.118,-116.402 L 102.236,-116.36 L 102.352,-116.31
 L 102.464,-116.253 L 102.572,-116.189 L 102.676,-116.118 L 102.775,-116.041 L 102.869,-115.958 L 102.958,-115.869
 L 103.041,-115.775 L 103.118,-115.676 L 103.189,-115.572 L 103.253,-115.464 L 103.31,-115.352 L 103.36,-115.236
 L 103.402,-115.118 L 103.437,-114.997 L 103.465,-114.875 L 103.484,-114.751 L 103.496,-114.626 L 103.5,-114.5
 L 103.5,-106.5 L 103.496,-106.374 L 103.484,-106.249 L 103.465,-106.125 L 103.437,-106.003 L 103.402,-105.882
 L 103.36,-105.764 L 103.31,-105.648 L 103.253,-105.536 L 103.189,-105.428 L 103.118,-105.324 L 103.041,-105.225
 L 102.958,-105.131 L 102.869,-105.042 L 102.775,-104.959 L 102.676,-104.882 L 102.572,-104.811 L 102.464,-104.747
 L 102.352,-104.69 L 102.236,-104.64 L 102.118,-104.598 L 101.997,-104.563 L 101.875,-104.535 L 101.751,-104.516
 L 101.626,-104.504 L 101.5,-104.5 z
M 108.5,-104.5 L 108.374,-104.504 L 108.249,-104.516 L 108.125,-104.535 L 108.003,-104.563 L 107.882,-104.598
 L 107.764,-104.64 L 107.648,-104.69 L 107.536,-104.747 L 107.428,-104.811 L 107.324,-104.882 L 107.225,-104.959
 L 107.131,-105.042 L 107.042,-105.131 L 106.959,-105.225 L 106.882,-105.324 L 106.811,-105.428 L 106.747,-105.536
 L 106.69,-105.648 L 106.64,-105.764 L 106.598,-105.882 L 106.563,-106.003 L 106.535,-106.125 L 106.516,-106.249
 L 106.504,-106.374 L 106.5,-106.5 L 106.5,-114.5 L 106.504,-114.626 L 106.516,-114.751 L 106.535,-114.875
 L 106.563,-114.997 L 106.598,-115.118 L 106.64,-115.236 L 106.69,-115.352 L 106.747,-115.464 L 106.811,-115.572
 L 106.882,-115.676 L 106.959,-115.775 L 107.042,-115.869 L 107.131,-115.958 L 107.225,-116.041 L 107.324,-116.118
 L 107.428,-116.189 L 107.536,-116.253 L 107.648,-116.31 L 107.764,-116.36 L 107.882,-116.402 L 108.003,-116.437
 L 108.125,-116.465 L 108.249,-116.484 L 108.374,-116.496 L 108.5,-116.5 L 116.5,-116.5 L 116.626,-116.496
 L 116.751,-116.484 L 116.875,-116.465 L 116.997,-116.437 L 117.118,-116.402 L 117.236,-116.36 L 117.352,-116.31
 L 117.464,-116.253 L 117.572,-116.189 L 117.676,-116.118 L 117.775,-116.041 L 117.869,-115.958 L 117.958,-115.869
 L 118.041,-115.775 L 118.118,-115.676 L 118.189,-115.572 L 118.253,-115.464 L 118.31,-115.352 L 118.36,-115.236
 L 118.402,-115.118 L 118.437,-114.997 L 118.465,-114.875 L 118.484,-114.751 L 118.496,-114.626 L 118.5,-114.5
 L 118.5,-106.5 L 118.496,-106.374 L 118.484,-106.249 L 118.465,-106.125 L 118.437,-106.003 L 118.402,-105.882
 L 118.36,-105.764 L 118.31,-105.648 L 118.253,-105.536 L 118.189,-105.428 L 118.118,-105.324 L 118.041,-105.225
 L 117.958,-105.131 L 117.869,-105.042 L 117.775,-104.959 L 117.676,-104.882 L 117.572,-104.811 L 117.464,-104.747
 L 117.352,-104.69 L 117.236,-104.64 L 117.118,-104.598 L 116.997,-104.563 L 116.875,-104.535 L 116.751,-104.516
 L 116.626,-104.504 L 116.5,-104.5 z
M 3.5,-104.5 L 3.3744,-104.504 L 3.24933,-104.516 L 3.12523,-104.535 L 3.00261,-104.563 L 2.88196,-104.598
 L 2.76375,-104.64 L 2.64844,-104.69 L 2.53648,-104.747 L 2.42834,-104.811 L 2.32442,-104.882 L 2.22514,-104.959
 L 2.13091,-105.042 L 2.04205,-105.131 L 1.95897,-105.225 L 1.88196,-105.324 L 1.81134,-105.428 L 1.74738,-105.536
 L 1.69034,-105.648 L 1.64044,-105.764 L 1.59789,-105.882 L 1.56282,-106.003 L 1.53542,-106.125 L 1.51576,-106.249
 L 1.50394,-106.374 L 1.5,-106.5 L 1.5,-114.5 L 1.50394,-114.626 L 1.51576,-114.751 L 1.53542,-114.875
 L 1.56282,-114.997 L 1.59789,-115.118 L 1.64044,-115.236 L 1.69034,-115.352 L 1.74738,-115.464 L 1.81134,-115.572
 L 1.88196,-115.676 L 1.95897,-115.775 L 2.04205,-115.869 L 2.13091,-115.958 L 2.22514,-116.041 L 2.32442,-116.118
 L 2.42834,-116.189 L 2.53648,-116.253 L 2.64844,-116.31 L 2.76375,-116.36 L 2.88196,-116.402 L 3.00261,-116.437
 L 3.12523,-116.465 L 3.24933,-116.484 L 3.3744,-116.496 L 3.5,-116.5 L 11.5,-116.5 L 11.6256,-116.496
 L 11.7507,-116.484 L 11.8748,-116.465 L 11.9974,-116.437 L 12.118,-116.402 L 12.2362,-116.36 L 12.3515,-116.31
 L 12.4635,-116.253 L 12.5716,-116.189 L 12.6756,-116.118 L 12.7748,-116.041 L 12.8691,-115.958 L 12.9579,-115.869
 L 13.041,-115.775 L 13.118,-115.676 L 13.1886,-115.572 L 13.2526,-115.464 L 13.3096,-115.352 L 13.3595,-115.236
 L 13.4021,-115.118 L 13.4372,-114.997 L 13.4646,-114.875 L 13.4842,-114.751 L 13.496,-114.626 L 13.5,-114.5
 L 13.5,-106.5 L 13.496,-106.374 L 13.4842,-106.249 L 13.4646,-106.125 L 13.4372,-106.003 L 13.4021,-105.882
 L 13.3595,-105.764 L 13.3096,-105.648 L 13.2526,-105.536 L 13.1886,-105.428 L 13.118,-105.324 L 13.041,-105.225
 L 12.9579,-105.131 L 12.8691,-105.042 L 12.7748,-104.959 L 12.6756,-104.882 L 12.5716,-104.811 L 12.4635,-104.747
 L 12.3515,-104.69 L 12.2362,-104.64 L 12.118,-104.598 L 11.9974,-104.563 L 11.8748,-104.535 L 11.7507,-104.516
 L 11.6256,-104.504 L 11.5,-104.5 z
M 33.5,-89.5 L 33.3744,-89.5039 L 33.2493,-89.5158 L 33.1252,-89.5354 L 33.0026,-89.5628 L 32.882,-89.5979
 L 32.7637,-89.6404 L 32.6484,-89.6903 L 32.5365,-89.7474 L 32.4283,-89.8113 L 32.3244,-89.882 L 32.2251,-89.959
 L 32.1309,-90.0421 L 32.0421,-90.1309 L 31.959,-90.2251 L 31.882,-90.3244 L 31.8113,-90.4283 L 31.7474,-90.5365
 L 31.6903,-90.6484 L 31.6404,-90.7637 L 31.5979,-90.882 L 31.5628,-91.0026 L 31.5354,-91.1252 L 31.5158,-91.2493
 L 31.5039,-91.3744 L 31.5,-91.5 L 31.5,-99.5 L 31.5039,-99.6256 L 31.5158,-99.7507 L 31.5354,-99.8748
 L 31.5628,-99.9974 L 31.5979,-100.118 L 31.6404,-100.236 L 31.6903,-100.352 L 31.7474,-100.464 L 31.8113,-100.572
 L 31.882,-100.676 L 31.959,-100.775 L 32.0421,-100.869 L 32.1309,-100.958 L 32.2251,-101.041 L 32.3244,-101.118
 L 32.4283,-101.189 L 32.5365,-101.253 L 32.6484,-101.31 L 32.7637,-101.36 L 32.882,-101.402 L 33.0026,-101.437
 L 33.1252,-101.465 L 33.2493,-101.484 L 33.3744,-101.496 L 33.5,-101.5 L 41.5,-101.5 L 41.6256,-101.496
 L 41.7507,-101.484 L 41.8748,-101.465 L 41.9974,-101.437 L 42.118,-101.402 L 42.2362,-101.36 L 42.3515,-101.31
 L 42.4635,-101.253 L 42.5716,-101.189 L 42.6756,-101.118 L 42.7748,-101.041 L 42.8691,-100.958 L 42.9579,-100.869
 L 43.041,-100.775 L 43.118,-100.676 L 43.1886,-100.572 L 43.2526,-100.464 L 43.3096,-100.352 L 43.3595,-100.236
 L 43.4021,-100.118 L 43.4372,-99.9974 L 43.4646,-99.8748 L 43.4842,-99.7507 L 43.496,-99.6256 L 43.5,-99.5
 L 43.5,-91.5 L 43.496,-91.3744 L 43.4842,-91.2493 L 43.4646,-91.1252 L 43.4372,-91.0026 L 43.4021,-90.882
 L 43.3595,-90.7637 L 43.3096,-90.6484 L 43.2526,-90.5365 L 43.1886,-90.4283 L 43.118,-90.3244 L 43.041,-90.2251
 L 42.9579,-90.1309 L 42.8691,-90.0421 L 42.7748,-89.959 L 42.6756,-89.882 L 42.5716,-89.8113 L 42.4635,-89.7474
 L 42.3515,-89.6903 L 42.2362,-89.6404 L 42.118,-89.5979 L 41.9974,-89.5628 L 41.8748,-89.5354 L 41.7507,-89.5158
 L 41.6256,-89.5039 L 41.5,-89.5 z
M 18.5,-89.5 L 18.3744,-89.5039 L 18.2493,-89.5158 L 18.1252,-89.5354 L 18.0026,-89.5628 L 17.882,-89.5979
 L 17.7637,-89.6404 L 17.6484,-89.6903 L 17.5365,-89.7474 L 17.4283,-89.8113 L 17.3244,-89.882 L 17.2251,-89.959
 L 17.1309,-90.0421 L 17.0421,-90.1309 L 16.959,-90.2251 L 16.882,-90.3244 L 16.8113,-90.4283 L 16.7474,-90.5365
 L 16.6903,-90.6484 L 16.6404,-90.7637 L 16.5979,-90.882 L 16.5628,-91.0026 L 16.5354,-91.1252 L 16.5158,-91.2493
 L 16.5039,-91.3744 L 16.5,-91.5 L 16.5,-99.5 L 16.5039,-99.6256 L 16.5158,-99.7507 L 16.5354,-99.8748
 L 16.5628,-99.9974 L 16.5979,-100.118 L 16.6404,-100.236 L 16.6903,-100.352 L 16.7474,-100.464 L 16.8113,-100.572
 L 16.882,-100.676 L 16.959,-100.775 L 17.0421,-100.869 L 17.1309,-100.958 L 17.2251,-101.041 L 17.3244,-101.118
 L 17.4283,-101.189 L 17.5365,-101.253 L 17.6484,-101.31 L 17.7637,-101.36 L 17.882,-101.402 L 18.0026,-101.437
 L 18.1252,-101.465 L 18.2493,-101.484 L 18.3744,-101.496 L 18.5,-101.5 L 26.5,-101.5 L 26.6256,-101.496
 L 26.7507,-101.484 L 26.8748,-101.465 L 26.9974,-101.437 L 27.118,-101.402 L 27.2362,-101.36 L 27.3515,-101.31
 L 27.4635,-101.253 L 27.5716,-101.189 L 27.6756,-101.118 L 27.7748,-101.041 L 27.8691,-100.958 L 27.9579,-100.869
 L 28.041,-100.775 L 28.118,-100.676 L 28.1886,-100.572 L 28.2526,-100.464 L 28.3096,-100.352 L 28.3595,-100.236
 L 28.4021,-100.118 L 28.4372,-99.9974 L 28.4646,-99.8748 L 28.4842,-99.7507 L 28.496,-99.6256 L 28.5,-99.5
 L 28.5,-91.5 L 28.496,-91.3744 L 28.4842,-91.2493 L 28.4646,-91.1252 L 28.4372,-91.0026 L 28.4021,-90.882
 L 28.3595,-90.7637 L 28.3096,-90.6484 L 28.2526,-90.5365 L 28.1886,-90.4283 L 28.118,-90.3244 L 28.041,-90.2251
 L 27.9579,-90.1309 L 27.8691,-90.0421 L 27.7748,-89.959 L 27.6756,-89.882 L 27.5716,-89.8113 L 27.4635,-89.7474
 L 27.3515,-89.6903 L 27.2362,-89.6404 L 27.118,-89.5979 L 26.9974,-89.5628 L 26.8748,-89.5354 L 26.7507,-89.5158
 L 26.6256,-89.5039 L 26.5,-89.5 z
M 48.5,-89.5 L 48.3744,-89.5039 L 48.2493,-89.5158 L 48.1252,-89.5354 L 48.0026,-89.5628 L 47.882,-89.5979
 L 47.7637,-89.6404 L 47.6484,-89.6903 L 47.5365,-89.7474 L 47.4283,-89.8113 L 47.3244,-89.882 L 47.2251,-89.959
 L 47.1309,-90.0421 L 47.0421,-90.1309 L 46.959,-90.2251 L 46.882,-90.3244 L 46.8113,-90.4283 L 46.7474,-90.5365
 L 46.6903,-90.6484 L 46.6404,-90.7637 L 46.5979,-90.882 L 46.5628,-91.0026 L 46.5354,-91.1252 L 46.5158,-91.2493
 L 46.5039,-91.3744 L 46.5,-91.5 L 46.5,-99.5 L 46.5039,-99.6256 L 46.5158,-99.7507 L 46.5354,-99.8748
 L 46.5628,-99.9974 L 46.5979,-100.118 L 46.6404,-100.236 L 46.6903,-100.352 L 46.7474,-100.464 L 46.8113,-100.572
 L 46.882,-100.676 L 46.959,-100.775 L 47.0421,-100.869 L 47.1309,-100.958 L 47.2251,-101.041 L 47.3244,-101.118
 L 47.4283,-101.189 L 47.5365,-101.253 L 47.6484,-101.31 L 47.7637,-101.36 L 47.882,-101.402 L 48.0026,-101.437
 L 48.1252,-101.465 L 48.2493,-101.484 L 48.3744,-101.496 L 48.5,-101.5 L 56.5,-101.5 L 56.6256,-101.496
 L 56.7507,-101.484 L 56.8748,-101.465 L 56.9974,-101.437 L 57.118,-101.402 L 57.2362,-101.36 L 57.3515,-101.31
 L 57.4635,-101.253 L 57.5716,-101.189 L 57.6756,-101.118 L 57.7748,-101.041 L 57.8691,-100.958 L 57.9579,-100.869
 L 58.041,-100.775 L 58.118,-100.676 L 58.1886,-100.572 L 58.2526,-100.464 L 58.3096,-100.352 L 58.3595,-100.236
 L 58.4021,-100.118 L 58.4372,-99.9974 L 58.4646,-99.8748 L 58.4842,-99.7507 L 58.496,-99.6256 L 58.5,-99.5
 L 58.5,-91.5 L 58.496,-91.3744 L 58.4842,-91.2493 L 58.4646,-91.1252 L 58.4372,-91.0026 L 58.4021,-90.882
 L 58.3595,-90.7637 L 58.3096,-90.6484 L 58.2526,-90.5365 L 58.1886,-90.4283 L 58.118,-90.3244 L 58.041,-90.2251
 L 57.9579,-90.1309 L 57.8691,-90.0421 L 57.7748,-89.959 L 57.6756,-89.882 L 57.5716,-89.8113 L 57.4635,-89.7474
 L 57.3515,-89.6903 L 57.2362,-89.6404 L 57.118,-89.5979 L 56.9974,-89.5628 L 56.8748,-89.5354 L 56.7507,-89.5158
 L 56.6256,-89.5039 L 56.5,-89.5 z
M 63.5,-89.5 L 63.3744,-89.5039 L 63.2493,-89.5158 L 63.1252,-89.5354 L 63.0026,-89.5628 L 62.882,-89.5979
 L 62.7637,-89.6404 L 62.6484,-89.6903 L 62.5365,-89.7474 L 62.4283,-89.8113 L 62.3244,-89.882 L 62.2251,-89.959
 L 62.1309,-90.0421 L 62.0421,-90.1309 L 61.959,-90.2251 L 61.882,-90.3244 L 61.8113,-90.4283 L 61.7474,-90.5365
 L 61.6903,-90.6484 L 61.6404,-90.7637 L 61.5979,-90.882 L 61.5628,-91.0026 L 61.5354,-91.1252 L 61.5158,-91.2493
 L 61.5039,-91.3744 L 61.5,-91.5 L 61.5,-99.5 L 61.5039,-99.6256 L 61.5158,-99.7507 L 61.5354,-99.8748
 L 61.5628,-99.9974 L 61.5979,-100.118 L 61.6404,-100.236 L 61.6903,-100.352 L 61.7474,-100.464 L 61.8113,-100.572
 L 61.882,-100.676 L 61.959,-100.775 L 62.0421,-100.869 L 62.1309,-100.958 L 62.2251,-101.041 L 62.3244,-101.118
 L 62.4283,-101.189 L 62.5365,-101.253 L 62.6484,-101.31 L 62.7637,-101.36 L 62.882,-101.402 L 63.0026,-101.437
 L 63.1252,-101.465 L 63.2493,-101.484 L 63.3744,-101.496 L 63.5,-101.5 L 71.5,-101.5 L 71.6256,-101.496
 L 71.7507,-101.484 L 71.8748,-101.465 L 71.9974,-101.437 L 72.118,-101.402 L 72.2362,-101.36 L 72.3515,-101.31
 L 72.4635,-101.253 L 72.5716,-101.189 L 72.6756,-101.118 L 72.7748,-101.041 L 72.8691,-100.958 L 72.9579,-100.869
 L 73.041,-100.775 L 73.118,-100.676 L 73.1886,-100.572 L 73.2526,-100.464 L 73.3096,-100.352 L 73.3595,-100.236
 L 73.4021,-100.118 L 73.4372,-99.9974 L 73.4646,-99.8748 L 73.4842,-99.7507 L 73.496,-99.6256 L 73.5,-99.5
 L 73.5,-91.5 L 73.496,-91.3744 L 73.4842,-91.2493 L 73.4646,-91.1252 L 73.4372,-91.0026 L 73.4021,-90.882
 L 73.3595,-90.7637 L 73.3096,-90.6484 L 73.2526,-90.5365 L 73.1886,-90.4283 L 73.118,-90.3244 L 73.041,-90.2251
 L 72.9579,-90.1309 L 72.8691,-90.0421 L 72.7748,-89.959 L 72.6756,-89.882 L 72.5716,-89.8113 L 72.4635,-89.7474
 L 72.3515,-89.6903 L 72.2362,-89.6404 L 72.118,-89.5979 L 71.9974,-89.5628 L 71.8748,-89.5354 L 71.7507,-89.5158
 L 71.6256,-89.5039 L 71.5,-89.5 z
M 93.5,-89.5 L 93.3744,-89.5039 L 93.2493,-89.5158 L 93.1252,-89.5354 L 93.0026,-89.5628 L 92.882,-89.5979
 L 92.7637,-89.6404 L 92.6484,-89.6903 L 92.5365,-89.7474 L 92.4283,-89.8113 L 92.3244,-89.882 L 92.2251,-89.959
 L 92.1309,-90.0421 L 92.0421,-90.1309 L 91.959,-90.2251 L 91.882,-90.3244 L 91.8113,-90.4283 L 91.7474,-90.5365
 L 91.6903,-90.6484 L 91.6404,-90.7637 L 91.5979,-90.882 L 91.5628,-91.0026 L 91.5354,-91.1252 L 91.5158,-91.2493
 L 91.5039,-91.3744 L 91.5,-91.5 L 91.5,-99.5 L 91.5039,-99.6256 L 91.5158,-99.7507 L 91.5354,-99.8748
 L 91.5628,-99.9974 L 91.5979,-100.118 L 91.6404,-100.236 L 91.6903,-100.352 L 91.7474,-100.464 L 91.8113,-100.572
 L 91.882,-100.676 L 91.959,-100.775 L 92.0421,-100.869 L 92.1309,-100.958 L 92.2251,-101.041 L 92.3244,-101.118
 L 92.4283,-101.189 L 92.5365,-101.253 L 92.6484,-101.31 L 92.7637,-101.36 L 92.882,-101.402 L 93.0026,-101.437
 L 93.1252,-101.465 L 93.2493,-101.484 L 93.3744,-101.496 L 93.5,-101.5 L 101.5,-101.5 L 101.626,-101.496
 L 101.751,-101.484 L 101.875,-101.465 L 101.997,-101.437 L 102.118,-101.402 L 102.236,-101.36 L 102.352,-101.31
 L 102.464,-101.253 L 102.572,-101.189 L 102.676,-101.118 L 102.775,-101.041 L 102.869,-100.958 L 102.958,-100.869
 L 103.041,-100.775 L 103.118,-100.676 L 103.189,-100.572 L 103.253,-100.464 L 103.31,-100.352 L 103.36,-100.236
 L 103.402,-100.118 L 103.437,-99.9974 L 103.465,-99.8748 L 103.484,-99.7507 L 103.496,-99.6256 L 103.5,-99.5
 L 103.5,-91.5 L 103.496,-91.3744 L 103.484,-91.2493 L 103.465,-91.1252 L 103.437,-91.0026 L 103.402,-90.882
 L 103.36,-90.7637 L 103.31,-90.6484 L 103.253,-90.5365 L 103.189,-90.4283 L 103.118,-90.3244 L 103.041,-90.2251
 L 102.958,-90.1309 L 102.869,-90.0421 L 102.775,-89.959 L 102.676,-89.882 L 102.572,-89.8113 L 102.464,-89.7474
 L 102.352,-89.6903 L 102.236,-89.6404 L 102.118,-89.5979 L 101.997,-89.5628 L 101.875,-89.5354 L 101.751,-89.5158
 L 101.626,-89.5039 L 101.5,-89.5 z
M 108.5,-89.5 L 108.374,-89.5039 L 108.249,-89.5158 L 108.125,-89.5354 L 108.003,-89.5628 L 107.882,-89.5979
 L 107.764,-89.6404 L 107.648,-89.6903 L 107.536,-89.7474 L 107.428,-89.8113 L 107.324,-89.882 L 107.225,-89.959
 L 107.131,-90.0421 L 107.042,-90.1309 L 106.959,-90.2251 L 106.882,-90.3244 L 106.811,-90.4283 L 106.747,-90.5365
 L 106.69,-90.6484 L 106.64,-90.7637 L 106.598,-90.882 L 106.563,-91.0026 L 106.535,-91.1252 L 106.516,-91.2493
 L 106.504,-91.3744 L 106.5,-91.5 L 106.5,-99.5 L 106.504,-99.6256 L 106.516,-99.7507 L 106.535,-99.8748
 L 106.563,-99.9974 L 106.598,-100.118 L 106.64,-100.236 L 106.69,-100.352 L 106.747,-100.464 L 106.811,-100.572
 L 106.882,-100.676 L 106.959,-100.775 L 107.042,-100.869 L 107.131,-100.958 L 107.225,-101.041 L 107.324,-101.118
 L 107.428,-101.189 L 107.536,-101.253 L 107.648,-101.31 L 107.764,-101.36 L 107.882,-101.402 L 108.003,-101.437
 L 108.125,-101.465 L 108.249,-101.484 L 108.374,-101.496 L 108.5,-101.5 L 116.5,-101.5 L 116.626,-101.496
 L 116.751,-101.484 L 116.875,-101.465 L 116.997,-101.437 L 117.118,-101.402 L 117.236,-101.36 L 117.352,-101.31
 L 117.464,-101.253 L 117.572,-101.189 L 117.676,-101.118 L 117.775,-101.041 L 117.869,-100.958 L 117.958,-100.869
 L 118.041,-100.775 L 118.118,-100.676 L 118.189,-100.572 L 118.253,-100.464 L 118.31,-100.352 L 118.36,-100.236
 L 118.402,-100.118 L 118.437,-99.9974 L 118.465,-99.8748 L 118.484,-99.7507 L 118.496,-99.6256 L 118.5,-99.5
 L 118.5,-91.5 L 118.496,-91.3744 L 118.484,-91.2493 L 118.465,-91.1252 L 118.437,-91.0026 L 118.402,-90.882
 L 118.36,-90.7637 L 118.31,-90.6484 L 118.253,-90.5365 L 118.189,-90.4283 L 118.118,-90.3244 L 118.041,-90.2251
 L 117.958,-90.1309 L 117.869,-90.0421 L 117.775,-89.959 L 117.676,-89.882 L 117.572,-89.8113 L 117.464,-89.7474
 L 117.352,-89.6903 L 117.236,-89.6404 L 117.118,-89.5979 L 116.997,-89.5628 L 116.875,-89.5354 L 116.751,-89.5158
 L 116.626,-89.5039 L 116.5,-89.5 z
M 3.5,-89.5 L 3.3744,-89.5039 L 3.24933,-89.5158 L 3.12523,-89.5354 L 3.00261,-89.5628 L 2.88196,-89.5979
 L 2.76375,-89.6404 L 2.64844,-89.6903 L 2.53648,-89.7474 L 2.42834,-89.8113 L 2.32442,-89.882 L 2.22514,-89.959
 L 2.13091,-90.0421 L 2.04205,-90.1309 L 1.95897,-90.2251 L 1.88196,-90.3244 L 1.81134,-90.4283 L 1.74738,-90.5365
 L 1.69034,-90.6484 L 1.64044,-90.7637 L 1.59789,-90.882 L 1.56282,-91.0026 L 1.53542,-91.1252 L 1.51576,-91.2493
 L 1.50394,-91.3744 L 1.5,-91.5 L 1.5,-99.5 L 1.50394,-99.6256 L 1.51576,-99.7507 L 1.53542,-99.8748
 L 1.56282,-99.9974 L 1.59789,-100.118 L 1.64044,-100.236 L 1.69034,-100.352 L 1.74738,-100.464 L 1.81134,-100.572
 L 1.88196,-100.676 L 1.95897,-100.775 L 2.04205,-100.869 L 2.13091,-100.958 L 2.22514,-101.041 L 2.32442,-101.118
 L 2.42834,-101.189 L 2.53648,-101.253 L 2.64844,-101.31 L 2.76375,-101.36 L 2.88196,-101.402 L 3.00261,-101.437
 L 3.12523,-101.465 L 3.24933,-101.484 L 3.3744,-101.496 L 3.5,-101.5 L 11.5,-101.5 L 11.6256,-101.496
 L 11.7507,-101.484 L 11.8748,-101.465 L 11.9974,-101.437 L 12.118,-101.402 L 12.2362,-101.36 L 12.3515,-101.31
 L 12.4635,-101.253 L 12.5716,-101.189 L 12.6756,-101.118 L 12.7748,-101.041 L 12.8691,-100.958 L 12.9579,-100.869
 L 13.041,-100.775 L 13.118,-100.676 L 13.1886,-100.572 L 13.2526,-100.464 L 13.3096,-100.352 L 13.3595,-100.236
 L 13.4021,-100.118 L 13.4372,-99.9974 L 13.4646,-99.8748 L 13.4842,-99.7507 L 13.496,-99.6256 L 13.5,-99.5
 L 13.5,-91.5 L 13.496,-91.3744 L 13.4842,-91.2493 L 13.4646,-91.1252 L 13.4372,-91.0026 L 13.4021,-90.882
 L 13.3595,-90.7637 L 13.3096,-90.6484 L 13.2526,-90.5365 L 13.1886,-90.4283 L 13.118,-90.3244 L 13.041,-90.2251
 L 12.9579,-90.1309 L 12.8691,-90.0421 L 12.7748,-89.959 L 12.6756,-89.882 L 12.5716,-89.8113 L 12.4635,-89.7474
 L 12.3515,-89.6903 L 12.2362,-89.6404 L 12.118,-89.5979 L 11.9974,-89.5628 L 11.8748,-89.5354 L 11.7507,-89.5158
 L 11.6256,-89.5039 L 11.5,-89.5 z
M 78.5,-89.5 L 78.3744,-89.5039 L 78.2493,-89.5158 L 78.1252,-89.5354 L 78.0026,-89.5628 L 77.882,-89.5979
 L 77.7637,-89.6404 L 77.6484,-89.6903 L 77.5365,-89.7474 L 77.4283,-89.8113 L 77.3244,-89.882 L 77.2251,-89.959
 L 77.1309,-90.0421 L 77.0421,-90.1309 L 76.959,-90.2251 L 76.882,-90.3244 L 76.8113,-90.4283 L 76.7474,-90.5365
 L 76.6903,-90.6484 L 76.6404,-90.7637 L 76.5979,-90.882 L 76.5628,-91.0026 L 76.5354,-91.1252 L 76.5158,-91.2493
 L 76.5039,-91.3744 L 76.5,-91.5 L 76.5,-99.5 L 76.5039,-99.6256 L 76.5158,-99.7507 L 76.5354,-99.8748
 L 76.5628,-99.9974 L 76.5979,-100.118 L 76.6404,-100.236 L 76.6903,-100.352 L 76.7474,-100.464 L 76.8113,-100.572
 L 76.882,-100.676 L 76.959,-100.775 L 77.0421,-100.869 L 77.1309,-100.958 L 77.2251,-101.041 L 77.3244,-101.118
 L 77.4283,-101.189 L 77.5365,-101.253 L 77.6484,-101.31 L 77.7637,-101.36 L 77.882,-101.402 L 78.0026,-101.437
 L 78.1252,-101.465 L 78.2493,-101.484 L 78.3744,-101.496 L 78.5,-101.5 L 86.5,-101.5 L 86.6256,-101.496
 L 86.7507,-101.484 L 86.8748,-101.465 L 86.9974,-101.437 L 87.118,-101.402 L 87.2362,-101.36 L 87.3515,-101.31
 L 87.4635,-101.253 L 87.5716,-101.189 L 87.6756,-101.118 L 87.7748,-101.041 L 87.8691,-100.958 L 87.9579,-100.869
 L 88.041,-100.775 L 88.118,-100.676 L 88.1886,-100.572 L 88.2526,-100.464 L 88.3096,-100.352 L 88.3595,-100.236
 L 88.4021,-100.118 L 88.4372,-99.9974 L 88.4646,-99.8748 L 88.4842,-99.7507 L 88.496,-99.6256 L 88.5,-99.5
 L 88.5,-91.5 L 88.496,-91.3744 L 88.4842,-91.2493 L 88.4646,-91.1252 L 88.4372,-91.0026 L 88.4021,-90.882
 L 88.3595,-90.7637 L 88.3096,-90.6484 L 88.2526,-90.5365 L 88.1886,-90.4283 L 88.118,-90.3244 L 88.041,-90.2251
 L 87.9579,-90.1309 L 87.8691,-90.0421 L 87.7748,-89.959 L 87.6756,-89.882 L 87.5716,-89.8113 L 87.4635,-89.7474
 L 87.3515,-89.6903 L 87.2362,-89.6404 L 87.118,-89.5979 L 86.9974,-89.5628 L 86.8748,-89.5354 L 86.7507,-89.5158
 L 86.6256,-89.5039 L 86.5,-89.5 z
M 48.5,-74.5 L 48.3744,-74.5039 L 48.2493,-74.5158 L 48.1252,-74.5354 L 48.0026,-74.5628 L 47.882,-74.5979
 L 47.7637,-74.6404 L 47.6484,-74.6903 L 47.5365,-74.7474 L 47.4283,-74.8113 L 47.3244,-74.882 L 47.2251,-74.959
 L 47.1309,-75.0421 L 47.0421,-75.1309 L 46.959,-75.2251 L 46.882,-75.3244 L 46.8113,-75.4283 L 46.7474,-75.5365
 L 46.6903,-75.6484 L 46.6404,-75.7637 L 46.5979,-75.882 L 46.5628,-76.0026 L 46.5354,-76.1252 L 46.5158,-76.2493
 L 46.5039,-76.3744 L 46.5,-76.5 L 46.5,-84.5 L 46.5039,-84.6256 L 46.5158,-84.7507 L 46.5354,-84.8748
 L 46.5628,-84.9974 L 46.5979,-85.118 L 46.6404,-85.2362 L 46.6903,-85.3515 L 46.7474,-85.4635 L 46.8113,-85.5716
 L 46.882,-85.6756 L 46.959,-85.7748 L 47.0421,-85.8691 L 47.1309,-85.9579 L 47.2251,-86.041 L 47.3244,-86.118
 L 47.4283,-86.1886 L 47.5365,-86.2526 L 47.6484,-86.3096 L 47.7637,-86.3595 L 47.882,-86.4021 L 48.0026,-86.4372
 L 48.1252,-86.4646 L 48.2493,-86.4842 L 48.3744,-86.496 L 48.5,-86.5 L 56.5,-86.5 L 56.6256,-86.496
 L 56.7507,-86.4842 L 56.8748,-86.4646 L 56.9974,-86.4372 L 57.118,-86.4021 L 57.2362,-86.3595 L 57.3515,-86.3096
 L 57.4635,-86.2526 L 57.5716,-86.1886 L 57.6756,-86.118 L 57.7748,-86.041 L 57.8691,-85.9579 L 57.9579,-85.8691
 L 58.041,-85.7748 L 58.118,-85.6756 L 58.1886,-85.5716 L 58.2526,-85.4635 L 58.3096,-85.3515 L 58.3595,-85.2362
 L 58.4021,-85.118 L 58.4372,-84.9974 L 58.4646,-84.8748 L 58.4842,-84.7507 L 58.496,-84.6256 L 58.5,-84.5
 L 58.5,-76.5 L 58.496,-76.3744 L 58.4842,-76.2493 L 58.4646,-76.1252 L 58.4372,-76.0026 L 58.4021,-75.882
 L 58.3595,-75.7637 L 58.3096,-75.6484 L 58.2526,-75.5365 L 58.1886,-75.4283 L 58.118,-75.3244 L 58.041,-75.2251
 L 57.9579,-75.1309 L 57.8691,-75.0421 L 57.7748,-74.959 L 57.6756,-74.882 L 57.5716,-74.8113 L 57.4635,-74.7474
 L 57.3515,-74.6903 L 57.2362,-74.6404 L 57.118,-74.5979 L 56.9974,-74.5628 L 56.8748,-74.5354 L 56.7507,-74.5158
 L 56.6256,-74.5039 L 56.5,-74.5 z
M 108.5,-74.5 L 108.374,-74.5039 L 108.249,-74.5158 L 108.125,-74.5354 L 108.003,-74.5628 L 107.882,-74.5979
 L 107.764,-74.6404 L 107.648,-74.6903 L 107.536,-74.7474 L 107.428,-74.8113 L 107.324,-74.882 L 107.225,-74.959
 L 107.131,-75.0421 L 107.042,-75.1309 L 106.959,-75.2251 L 106.882,-75.3244 L 106.811,-75.4283 L 106.747,-75.5365
 L 106.69,-75.6484 L 106.64,-75.7637 L 106.598,-75.882 L 106.563,-76.0026 L 106.535,-76.1252 L 106.516,-76.2493
 L 106.504,-76.3744 L 106.5,-76.5 L 106.5,-84.5 L 106.504,-84.6256 L 106.516,-84.7507 L 106.535,-84.8748
 L 106.563,-84.9974 L 106.598,-85.118 L 106.64,-85.2362 L 106.69,-85.3515 L 106.747,-85.4635 L 106.811,-85.5716
 L 106.882,-85.6756 L 106.959,-85.7748 L 107.042,-85.8691 L 107.131,-85.9579 L 107.225,-86.041 L 107.324,-86.118
 L 107.428,-86.1886 L 107.536,-86.2526 L 107.648,-86.3096 L 107.764,-86.3595 L 107.882,-86.4021 L 108.003,-86.4372
 L 108.125,-86.4646 L 108.249,-86.4842 L 108.374,-86.496 L 108.5,-86.5 L 116.5,-86.5 L 116.626,-86.496
 L 116.751,-86.4842 L 116.875,-86.4646 L 116.997,-86.4372 L 117.118,-86.4021 L 117.236,-86.3595 L 117.352,-86.3096
 L 117.464,-86.2526 L 117.572,-86.1886 L 117.676,-86.118 L 117.775,-86.041 L 117.869,-85.9579 L 117.958,-85.8691
 L 118.041,-85.7748 L 118.118,-85.6756 L 118.189,-85.5716 L 118.253,-85.4635 L 118.31,-85.3515 L 118.36,-85.2362
 L 118.402,-85.118 L 118.437,-84.9974 L 118.465,-84.8748 L 118.484,-84.7507 L 118.496,-84.6256 L 118.5,-84.5
 L 118.5,-76.5 L 118.496,-76.3744 L 118.484,-76.2493 L 118.465,-76.1252 L 118.437,-76.0026 L 118.402,-75.882
 L 118.36,-75.7637 L 118.31,-75.6484 L 118.253,-75.5365 L 118.189,-75.4283 L 118.118,-75.3244 L 118.041,-75.2251
 L 117.958,-75.1309 L 117.869,-75.0421 L 117.775,-74.959 L 117.676,-74.882 L 117.572,-74.8113 L 117.464,-74.7474
 L 117.352,-74.6903 L 117.236,-74.6404 L 117.118,-74.5979 L 116.997,-74.5628 L 116.875,-74.5354 L 116.751,-74.5158
 L 116.626,-74.5039 L 116.5,-74.5 z
M 3.5,-74.5 L 3.3744,-74.5039 L 3.24933,-74.5158 L 3.12523,-74.5354 L 3.00261,-74.5628 L 2.88196,-74.5979
 L 2.76375,-74.6404 L 2.64844,-74.6903 L 2.53648,-74.7474 L 2.42834,-74.8113 L 2.32442,-74.882 L 2.22514,-74.959
 L 2.13091,-75.0421 L 2.04205,-75.1309 L 1.95897,-75.2251 L 1.88196,-75.3244 L 1.81134,-75.4283 L 1.74738,-75.5365
 L 1.69034,-75.6484 L 1.64044,-75.7637 L 1.59789,-75.882 L 1.56282,-76.0026 L 1.53542,-76.1252 L 1.51576,-76.2493
 L 1.50394,-76.3744 L 1.5,-76.5 L 1.5,-84.5 L 1.50394,-84.6256 L 1.51576,-84.7507 L 1.53542,-84.8748
 L 1.56282,-84.9974 L 1.59789,-85.118 L 1.64044,-85.2362 L 1.69034,-85.3515 L 1.74738,-85.4635 L 1.81134,-85.5716
 L 1.88196,-85.6756 L 1.95897,-85.7748 L 2.04205,-85.8691 L 2.13091,-85.9579 L 2.22514,-86.041 L 2.32442,-86.118
 L 2.42834,-86.1886 L 2.53648,-86.2526 L 2.64844,-86.3096 L 2.76375,-86.3595 L 2.88196,-86.4021 L 3.00261,-86.4372
 L 3.12523,-86.4646 L 3.24933,-86.4842 L 3.3744,-86.496 L 3.5,-86.5 L 11.5,-86.5 L 11.6256,-86.496
 L 11.7507,-86.4842 L 11.8748,-86.4646 L 11.9974,-86.4372 L 12.118,-86.4021 L 12.2362,-86.3595 L 12.3515,-86.3096
 L 12.4635,-86.2526 L 12.5716,-86.1886 L 12.6756,-86.118 L 12.7748,-86.041 L 12.8691,-85.9579 L 12.9579,-85.8691
 L 13.041,-85.7748 L 13.118,-85.6756 L 13.1886,-85.5716 L 13.2526,-85.4635 L 13.3096,-85.3515 L 13.3595,-85.2362
 L 13.4021,-85.118 L 13.4372,-84.9974 L 13.4646,-84.8748 L 13.4842,-84.7507 L 13.496,-84.6256 L 13.5,-84.5
 L 13.5,-76.5 L 13.496,-76.3744 L 13.4842,-76.2493 L 13.4646,-76.1252 L 13.4372,-76.0026 L 13.4021,-75.882
 L 13.3595,-75.7637 L 13.3096,-75.6484 L 13.2526,-75.5365 L 13.1886,-75.4283 L 13.118,-75.3244 L 13.041,-75.2251
 L 12.9579,-75.1309 L 12.8691,-75.0421 L 12.7748,-74.959 L 12.6756,-74.882 L 12.5716,-74.8113 L 12.4635,-74.7474
 L 12.3515,-74.6903 L 12.2362,-74.6404 L 12.118,-74.5979 L 11.9974,-74.5628 L 11.8748,-74.5354 L 11.7507,-74.5158
 L 11.6256,-74.5039 L 11.5,-74.5 z
M 93.5,-74.5 L 93.3744,-74.5039 L 93.2493,-74.5158 L 93.1252,-74.5354 L 93.0026,-74.5628 L 92.882,-74.5979
 L 92.7637,-74.6404 L 92.6484,-74.6903 L 92.5365,-74.7474 L 92.4283,-74.8113 L 92.3244,-74.882 L 92.2251,-74.959
 L 92.1309,-75.0421 L 92.0421,-75.1309 L 91.959,-75.2251 L 91.882,-75.3244 L 91.8113,-75.4283 L 91.7474,-75.5365
 L 91.6903,-75.6484 L 91.6404,-75.7637 L 91.5979,-75.882 L 91.5628,-76.0026 L 91.5354,-76.1252 L 91.5158,-76.2493
 L 91.5039,-76.3744 L 91.5,-76.5 L 91.5,-84.5 L 91.5039,-84.6256 L 91.5158,-84.7507 L 91.5354,-84.8748
 L 91.5628,-84.9974 L 91.5979,-85.118 L 91.6404,-85.2362 L 91.6903,-85.3515 L 91.7474,-85.4635 L 91.8113,-85.5716
 L 91.882,-85.6756 L 91.959,-85.7748 L 92.0421,-85.8691 L 92.1309,-85.9579 L 92.2251,-86.041 L 92.3244,-86.118
 L 92.4283,-86.1886 L 92.5365,-86.2526 L 92.6484,-86.3096 L 92.7637,-86.3595 L 92.882,-86.4021 L 93.0026,-86.4372
 L 93.1252,-86.4646 L 93.2493,-86.4842 L 93.3744,-86.496 L 93.5,-86.5 L 101.5,-86.5 L 101.626,-86.496
 L 101.751,-86.4842 L 101.875,-86.4646 L 101.997,-86.4372 L 102.118,-86.4021 L 102.236,-86.3595 L 102.352,-86.3096
 L 102.464,-86.2526 L 102.572,-86.1886 L 102.676,-86.118 L 102.775,-86.041 L 102.869,-85.9579 L 102.958,-85.8691
 L 103.041,-85.7748 L 103.118,-85.6756 L 103.189,-85.5716 L 103.253,-85.4635 L 103.31,-85.3515 L 103.36,-85.2362
 L 103.402,-85.118 L 103.437,-84.9974 L 103.465,-84.8748 L 103.484,-84.7507 L 103.496,-84.6256 L 103.5,-84.5
 L 103.5,-76.5 L 103.496,-76.3744 L 103.484,-76.2493 L 103.465,-76.1252 L 103.437,-76.0026 L 103.402,-75.882
 L 103.36,-75.7637 L 103.31,-75.6484 L 103.253,-75.5365 L 103.189,-75.4283 L 103.118,-75.3244 L 103.041,-75.2251
 L 102.958,-75.1309 L 102.869,-75.0421 L 102.775,-74.959 L 102.676,-74.882 L 102.572,-74.8113 L 102.464,-74.7474
 L 102.352,-74.6903 L 102.236,-74.6404 L 102.118,-74.5979 L 101.997,-74.5628 L 101.875,-74.5354 L 101.751,-74.5158
 L 101.626,-74.5039 L 101.5,-74.5 z
M 18.5,-74.5 L 18.3744,-74.5039 L 18.2493,-74.5158 L 18.1252,-74.5354 L 18.0026,-74.5628 L 17.882,-74.5979
 L 17.7637,-74.6404 L 17.6484,-74.6903 L 17.5365,-74.7474 L 17.4283,-74.8113 L 17.3244,-74.882 L 17.2251,-74.959
 L 17.1309,-75.0421 L 17.0421,-75.1309 L 16.959,-75.2251 L 16.882,-75.3244 L 16.8113,-75.4283 L 16.7474,-75.5365
 L 16.6903,-75.6484 L 16.6404,-75.7637 L 16.5979,-75.882 L 16.5628,-76.0026 L 16.5354,-76.1252 L 16.5158,-76.2493
 L 16.5039,-76.3744 L 16.5,-76.5 L 16.5,-84.5 L 16.5039,-84.6256 L 16.5158,-84.7507 L 16.5354,-84.8748
 L 16.5628,-84.9974 L 16.5979,-85.118 L 16.6404,-85.2362 L 16.6903,-85.3515 L 16.7474,-85.4635 L 16.8113,-85.5716
 L 16.882,-85.6756 L 16.959,-85.7748 L 17.0421,-85.8691 L 17.1309,-85.9579 L 17.2251,-86.041 L 17.3244,-86.118
 L 17.4283,-86.1886 L 17.5365,-86.2526 L 17.6484,-86.3096 L 17.7637,-86.3595 L 17.882,-86.4021 L 18.0026,-86.4372
 L 18.1252,-86.4646 L 18.2493,-86.4842 L 18.3744,-86.496 L 18.5,-86.5 L 26.5,-86.5 L 26.6256,-86.496
 L 26.7507,-86.4842 L 26.8748,-86.4646 L 26.9974,-86.4372 L 27.118,-86.4021 L 27.2362,-86.3595 L 27.3515,-86.3096
 L 27.4635,-86.2526 L 27.5716,-86.1886 L 27.6756,-86.118 L 27.7748,-86.041 L 27.8691,-85.9579 L 27.9579,-85.8691
 L 28.041,-85.7748 L 28.118,-85.6756 L 28.1886,-85.5716 L 28.2526,-85.4635 L 28.3096,-85.3515 L 28.3595,-85.2362
 L 28.4021,-85.118 L 28.4372,-84.9974 L 28.4646,-84.8748 L 28.4842,-84.7507 L 28.496,-84.6256 L 28.5,-84.5
 L 28.5,-76.5 L 28.496,-76.3744 L 28.4842,-76.2493 L 28.4646,-76.1252 L 28.4372,-76.0026 L 28.4021,-75.882
 L 28.3595,-75.7637 L 28.3096,-75.6484 L 28.2526,-75.5365 L 28.1886,-75.4283 L 28.118,-75.3244 L 28.041,-75.2251
 L 27.9579,-75.1309 L 27.8691,-75.0421 L 27.7748,-74.959 L 27.6756,-74.882 L 27.5716,-74.8113 L 27.4635,-74.7474
 L 27.3515,-74.6903 L 27.2362,-74.6404 L 27.118,-74.5979 L 26.9974,-74.5628 L 26.8748,-74.5354 L 26.7507,-74.5158
 L 26.6256,-74.5039 L 26.5,-74.5 z
M 78.5,-74.5 L 78.3744,-74.5039 L 78.2493,-74.5158 L 78.1252,-74.5354 L 78.0026,-74.5628 L 77.882,-74.5979
 L 77.7637,-74.6404 L 77.6484,-74.6903 L 77.5365,-74.7474 L 77.4283,-74.8113 L 77.3244,-74.882 L 77.2251,-74.959
 L 77.1309,-75.0421 L 77.0421,-75.1309 L 76.959,-75.2251 L 76.882,-75.3244 L 76.8113,-75.4283 L 76.7474,-75.5365
 L 76.6903,-75.6484 L 76.6404,-75.7637 L 76.5979,-75.882 L 76.5628,-76.0026 L 76.5354,-76.1252 L 76.5158,-76.2493
 L 76.5039,-76.3744 L 76.5,-76.5 L 76.5,-84.5 L 76.5039,-84.6256 L 76.5158,-84.7507 L 76.5354,-84.8748
 L 76.5628,-84.9974 L 76.5979,-85.118 L 76.6404,-85.2362 L 76.6903,-85.3515 L 76.7474,-85.4635 L 76.8113,-85.5716
 L 76.882,-85.6756 L 76.959,-85.7748 L 77.0421,-85.8691 L 77.1309,-85.9579 L 77.2251,-86.041 L 77.3244,-86.118
 L 77.4283,-86.1886 L 77.5365,-86.2526 L 77.6484,-86.3096 L 77.7637,-86.3595 L 77.882,-86.4021 L 78.0026,-86.4372
 L 78.1252,-86.4646 L 78.2493,-86.4842 L 78.3744,-86.496 L 78.5,-86.5 L 86.5,-86.5 L 86.6256,-86.496
 L 86.7507,-86.4842 L 86.8748,-86.4646 L 86.9974,-86.4372 L 87.118,-86.4021 L 87.2362,-86.3595 L 87.3515,-86.3096
 L 87.4635,-86.2526 L 87.5716,-86.1886 L 87.6756,-86.118 L 87.7748,-86.041 L 87.8691,-85.9579 L 87.9579,-85.8691
 L 88.041,-85.7748 L 88.118,-85.6756 L 88.1886,-85.5716 L 88.2526,-85.4635 L 88.3096,-85.3515 L 88.3595,-85.2362
 L 88.4021,-85.118 L 88.4372,-84.9974 L 88.4646,-84.8748 L 88.4842,-84.7507 L 88.496,-84.6256 L 88.5,-84.5
 L 88.5,-76.5 L 88.496,-76.3744 L 88.4842,-76.2493 L 88.4646,-76.1252 L 88.4372,-76.0026 L 88.4021,-75.882
 L 88.3595,-75.7637 L 88.3096,-75.6484 L 88.2526,-75.5365 L 88.1886,-75.4283 L 88.118,-75.3244 L 88.041,-75.2251
 L 87.9579,-75.1309 L 87.8691,-75.0421 L 87.7748,-74.959 L 87.6756,-74.882 L 87.5716,-74.8113 L 87.4635,-74.7474
 L 87.3515,-74.6903 L 87.2362,-74.6404 L 87.118,-74.5979 L 86.9974,-74.5628 L 86.8748,-74.5354 L 86.7507,-74.5158
 L 86.6256,-74.5039 L 86.5,-74.5 z
M 33.5,-74.5 L 33.3744,-74.5039 L 33.2493,-74.5158 L 33.1252,-74.5354 L 33.0026,-74.5628 L 32.882,-74.5979
 L 32.7637,-74.6404 L 32.6484,-74.6903 L 32.5365,-74.7474 L 32.4283,-74.8113 L 32.3244,-74.882 L 32.2251,-74.959
 L 32.1309,-75.0421 L 32.0421,-75.1309 L 31.959,-75.2251 L 31.882,-75.3244 L 31.8113,-75.4283 L 31.7474,-75.5365
 L 31.6903,-75.6484 L 31.6404,-75.7637 L 31.5979,-75.882 L 31.5628,-76.0026 L 31.5354,-76.1252 L 31.5158,-76.2493
 L 31.5039,-76.3744 L 31.5,-76.5 L 31.5,-84.5 L 31.5039,-84.6256 L 31.5158,-84.7507 L 31.5354,-84.8748
 L 31.5628,-84.9974 L 31.5979,-85.118 L 31.6404,-85.2362 L 31.6903,-85.3515 L 31.7474,-85.4635 L 31.8113,-85.5716
 L 31.882,-85.6756 L 31.959,-85.7748 L 32.0421,-85.8691 L 32.1309,-85.9579 L 32.2251,-86.041 L 32.3244,-86.118
 L 32.4283,-86.1886 L 32.5365,-86.2526 L 32.6484,-86.3096 L 32.7637,-86.3595 L 32.882,-86.4021 L 33.0026,-86.4372
 L 33.1252,-86.4646 L 33.2493,-86.4842 L 33.3744,-86.496 L 33.5,-86.5 L 41.5,-86.5 L 41.6256,-86.496
 L 41.7507,-86.4842 L 41.8748,-86.4646 L 41.9974,-86.4372 L 42.118,-86.4021 L 42.2362,-86.3595 L 42.3515,-86.3096
 L 42.4635,-86.2526 L 42.5716,-86.1886 L 42.6756,-86.118 L 42.7748,-86.041 L 42.8691,-85.9579 L 42.9579,-85.8691
 L 43.041,-85.7748 L 43.118,-85.6756 L 43.1886,-85.5716 L 43.2526,-85.4635 L 43.3096,-85.3515 L 43.3595,-85.2362
 L 43.4021,-85.118 L 43.4372,-84.9974 L 43.4646,-84.8748 L 43.4842,-84.7507 L 43.496,-84.6256 L 43.5,-84.5
 L 43.5,-76.5 L 43.496,-76.3744 L 43.4842,-76.2493 L 43.4646,-76.1252 L 43.4372,-76.0026 L 43.4021,-75.882
 L 43.3595,-75.7637 L 43.3096,-75.6484 L 43.2526,-75.5365 L 43.1886,-75.4283 L 43.118,-75.3244 L 43.041,-75.2251
 L 42.9579,-75.1309 L 42.8691,-75.0421 L 42.7748,-74.959 L 42.6756,-74.882 L 42.5716,-74.8113 L 42.4635,-74.7474
 L 42.3515,-74.6903 L 42.2362,-74.6404 L 42.118,-74.5979 L 41.9974,-74.5628 L 41.8748,-74.5354 L 41.7507,-74.5158
 L 41.6256,-74.5039 L 41.5,-74.5 z
M 63.5,-74.5 L 63.3744,-74.5039 L 63.2493,-74.5158 L 63.1252,-74.5354 L 63.0026,-74.5628 L 62.882,-74.5979
 L 62.7637,-74.6404 L 62.6484,-74.6903 L 62.5365,-74.7474 L 62.4283,-74.8113 L 62.3244,-74.882 L 62.2251,-74.959
 L 62.1309,-75.0421 L 62.0421,-75.1309 L 61.959,-75.2251 L 61.882,-75.3244 L 61.8113,-75.4283 L 61.7474,-75.5365
 L 61.6903,-75.6484 L 61.6404,-75.7637 L 61.5979,-75.882 L 61.5628,-76.0026 L 61.5354,-76.1252 L 61.5158,-76.2493
 L 61.5039,-76.3744 L 61.5,-76.5 L 61.5,-84.5 L 61.5039,-84.6256 L 61.5158,-84.7507 L 61.5354,-84.8748
 L 61.5628,-84.9974 L 61.5979,-85.118 L 61.6404,-85.2362 L 61.6903,-85.3515 L 61.7474,-85.4635 L 61.8113,-85.5716
 L 61.882,-85.6756 L 61.959,-85.7748 L 62.0421,-85.8691 L 62.1309,-85.9579 L 62.2251,-86.041 L 62.3244,-86.118
 L 62.4283,-86.1886 L 62.5365,-86.2526 L 62.6484,-86.3096 L 62.7637,-86.3595 L 62.882,-86.4021 L 63.0026,-86.4372
 L 63.1252,-86.4646 L 63.2493,-86.4842 L 63.3744,-86.496 L 63.5,-86.5 L 71.5,-86.5 L 71.6256,-86.496
 L 71.7507,-86.4842 L 71.8748,-86.4646 L 71.9974,-86.4372 L 72.118,-86.4021 L 72.2362,-86.3595 L 72.3515,-86.3096
 L 72.4635,-86.2526 L 72.5716,-86.1886 L 72.6756,-86.118 L 72.7748,-86.041 L 72.8691,-85.9579 L 72.9579,-85.8691
 L 73.041,-85.7748 L 73.118,-85.6756 L 73.1886,-85.5716 L 73.2526,-85.4635 L 73.3096,-85.3515 L 73.3595,-85.2362
 L 73.4021,-85.118 L 73.4372,-84.9974 L 73.4646,-84.8748 L 73.4842,-84.7507 L 73.496,-84.6256 L 73.5,-84.5
 L 73.5,-76.5 L 73.496,-76.3744 L 73.4842,-76.2493 L 73.4646,-76.1252 L 73.4372,-76.0026 L 73.4021,-75.882
 L 73.3595,-75.7637 L 73.3096,-75.6484 L 73.2526,-75.5365 L 73.1886,-75.4283 L 73.118,-75.3244 L 73.041,-75.2251
 L 72.9579,-75.1309 L 72.8691,-75.0421 L 72.7748,-74.959 L 72.6756,-74.882 L 72.5716,-74.8113 L 72.4635,-74.7474
 L 72.3515,-74.6903 L 72.2362,-74.6404 L 72.118,-74.5979 L 71.9974,-74.5628 L 71.8748,-74.5354 L 71.7507,-74.5158
 L 71.6256,-74.5039 L 71.5,-74.5 z
M 18.5,-59.5 L 18.3744,-59.5039 L 18.2493,-59.5158 L 18.1252,-59.5354 L 18.0026,-59.5628 L 17.882,-59.5979
 L 17.7637,-59.6404 L 17.6484,-59.6903 L 17.5365,-59.7474 L 17.4283,-59.8113 L 17.3244,-59.882 L 17.2251,-59.959
 L 17.1309,-60.0421 L 17.0421,-60.1309 L 16.959,-60.2251 L 16.882,-60.3244 L 16.8113,-60.4283 L 16.7474,-60.5365
 L 16.6903,-60.6484 L 16.6404,-60.7637 L 16.5979,-60.882 L 16.5628,-61.0026 L 16.5354,-61.1252 L 16.5158,-61.2493
 L 16.5039,-61.3744 L 16.5,-61.5 L 16.5,-69.5 L 16.5039,-69.6256 L 16.5158,-69.7507 L 16.5354,-69.8748
 L 16.5628,-69.9974 L 16.5979,-70.118 L 16.6404,-70.2362 L 16.6903,-70.3515 L 16.7474,-70.4635 L 16.8113,-70.5716
 L 16.882,-70.6756 L 16.959,-70.7748 L 17.0421,-70.8691 L 17.1309,-70.9579 L 17.2251,-71.041 L 17.3244,-71.118
 L 17.4283,-71.1886 L 17.5365,-71.2526 L 17.6484,-71.3096 L 17.7637,-71.3595 L 17.882,-71.4021 L 18.0026,-71.4372
 L 18.1252,-71.4646 L 18.2493,-71.4842 L 18.3744,-71.496 L 18.5,-71.5 L 26.5,-71.5 L 26.6256,-71.496
 L 26.7507,-71.4842 L 26.8748,-71.4646 L 26.9974,-71.4372 L 27.118,-71.4021 L 27.2362,-71.3595 L 27.3515,-71.3096
 L 27.4635,-71.2526 L 27.5716,-71.1886 L 27.6756,-71.118 L 27.7748,-71.041 L 27.8691,-70.9579 L 27.9579,-70.8691
 L 28.041,-70.7748 L 28.118,-70.6756 L 28.1886,-70.5716 L 28.2526,-70.4635 L 28.3096,-70.3515 L 28.3595,-70.2362
 L 28.4021,-70.118 L 28.4372,-69.9974 L 28.4646,-69.8748 L 28.4842,-69.7507 L 28.496,-69.6256 L 28.5,-69.5
 L 28.5,-61.5 L 28.496,-61.3744 L 28.4842,-61.2493 L 28.4646,-61.1252 L 28.4372,-61.0026 L 28.4021,-60.882
 L 28.3595,-60.7637 L 28.3096,-60.6484 L 28.2526,-60.5365 L 28.1886,-60.4283 L 28.118,-60.3244 L 28.041,-60.2251
 L 27.9579,-60.1309 L 27.8691,-60.0421 L 27.7748,-59.959 L 27.6756,-59.882 L 27.5716,-59.8113 L 27.4635,-59.7474
 L 27.3515,-59.6903 L 27.2362,-59.6404 L 27.118,-59.5979 L 26.9974,-59.5628 L 26.8748,-59.5354 L 26.7507,-59.5158
 L 26.6256,-59.5039 L 26.5,-59.5 z
M 78.5,-59.5 L 78.3744,-59.5039 L 78.2493,-59.5158 L 78.1252,-59.5354 L 78.0026,-59.5628 L 77.882,-59.5979
 L 77.7637,-59.6404 L 77.6484,-59.6903 L 77.5365,-59.7474 L 77.4283,-59.8113 L 77.3244,-59.882 L 77.2251,-59.959
 L 77.1309,-60.0421 L 77.0421,-60.1309 L 76.959,-60.2251 L 76.882,-60.3244 L 76.8113,-60.4283 L 76.7474,-60.5365
 L 76.6903,-60.6484 L 76.6404,-60.7637 L 76.5979,-60.882 L 76.5628,-61.0026 L 76.5354,-61.1252 L 76.5158,-61.2493
 L 76.5039,-61.3744 L 76.5,-61.5 L 76.5,-69.5 L 76.5039,-69.6256 L 76.5158,-69.7507 L 76.5354,-69.8748
 L 76.5628,-69.9974 L 76.5979,-70.118 L 76.6404,-70.2362 L 76.6903,-70.3515 L 76.7474,-70.4635 L 76.8113,-70.5716
 L 76.882,-70.6756 L 76.959,-70.7748 L 77.0421,-70.8691 L 77.1309,-70.9579 L 77.2251,-71.041 L 77.3244,-71.118
 L 77.4283,-71.1886 L 77.5365,-71.2526 L 77.6484,-71.3096 L 77.7637,-71.3595 L 77.882,-71.4021 L 78.0026,-71.4372
 L 78.1252,-71.4646 L 78.2493,-71.4842 L 78.3744,-71.496 L 78.5,-71.5 L 86.5,-71.5 L 86.6256,-71.496
 L 86.7507,-71.4842 L 86.8748,-71.4646 L 86.9974,-71.4372 L 87.118,-71.4021 L 87.2362,-71.3595 L 87.3515,-71.3096
 L 87.4635,-71.2526 L 87.5716,-71.1886 L 87.6756,-71.118 L 87.7748,-71.041 L 87.8691,-70.9579 L 87.9579,-70.8691
 L 88.041,-70.7748 L 88.118,-70.6756 L 88.1886,-70.5716 L 88.2526,-70.4635 L 88.3096,-70.3515 L 88.3595,-70.2362
 L 88.4021,-70.118 L 88.4372,-69.9974 L 88.4646,-69.8748 L 88.4842,-69.7507 L 88.496,-69.6256 L 88.5,-69.5
 L 88.5,-61.5 L 88.496,-61.3744 L 88.4842,-61.2493 L 88.4646,-61.1252 L 88.4372,-61.0026 L 88.4021,-60.882
 L 88.3595,-60.7637 L 88.3096,-60.6484 L 88.2526,-60.5365 L 88.1886,-60.4283 L 88.118,-60.3244 L 88.041,-60.2251
 L 87.9579,-60.1309 L 87.8691,-60.0421 L 87.7748,-59.959 L 87.6756,-59.882 L 87.5716,-59.8113 L 87.4635,-59.7474
 L 87.3515,-59.6903 L 87.2362,-59.6404 L 87.118,-59.5979 L 86.9974,-59.5628 L 86.8748,-59.5354 L 86.7507,-59.5158
 L 86.6256,-59.5039 L 86.5,-59.5 z
M 63.5,-59.5 L 63.3744,-59.5039 L 63.2493,-59.5158 L 63.1252,-59.5354 L 63.0026,-59.5628 L 62.882,-59.5979
 L 62.7637,-59.6404 L 62.6484,-59.6903 L 62.5365,-59.7474 L 62.4283,-59.8113 L 62.3244,-59.882 L 62.2251,-59.959
 L 62.1309,-60.0421 L 62.0421,-60.1309 L 61.959,-60.2251 L 61.882,-60.3244 L 61.8113,-60.4283 L 61.7474,-60.5365
 L 61.6903,-60.6484 L 61.6404,-60.7637 L 61.5979,-60.882 L 61.5628,-61.0026 L 61.5354,-61.1252 L 61.5158,-61.2493
 L 61.5039,-61.3744 L 61.5,-61.5 L 61.5,-69.5 L 61.5039,-69.6256 L 61.5158,-69.7507 L 61.5354,-69.8748
 L 61.5628,-69.9974 L 61.5979,-70.118 L 61.6404,-70.2362 L 61.6903,-70.3515 L 61.7474,-70.4635 L 61.8113,-70.5716
 L 61.882,-70.6756 L 61.959,-70.7748 L 62.0421,-70.8691 L 62.1309,-70.9579 L 62.2251,-71.041 L 62.3244,-71.118
 L 62.4283,-71.1886 L 62.5365,-71.2526 L 62.6484,-71.3096 L 62.7637,-71.3595 L 62.882,-71.4021 L 63.0026,-71.4372
 L 63.1252,-71.4646 L 63.2493,-71.4842 L 63.3744,-71.496 L 63.5,-71.5 L 71.5,-71.5 L 71.6256,-71.496
 L 71.7507,-71.4842 L 71.8748,-71.4646 L 71.9974,-71.4372 L 72.118,-71.4021 L 72.2362,-71.3595 L 72.3515,-71.3096
 L 72.4635,-71.2526 L 72.5716,-71.1886 L 72.6756,-71.118 L 72.7748,-71.041 L 72.8691,-70.9579 L 72.9579,-70.8691
 L 73.041,-70.7748 L 73.118,-70.6756 L 73.1886,-70.5716 L 73.2526,-70.4635 L 73.3096,-70.3515 L 73.3595,-70.2362
 L 73.4021,-70.118 L 73.4372,-69.9974 L 73.4646,-69.8748 L 73.4842,-69.7507 L 73.496,-69.6256 L 73.5,-69.5
 L 73.5,-61.5 L 73.496,-61.3744 L 73.4842,-61.2493 L 73.4646,-61.1252 L 73.4372,-61.0026 L 73.4021,-60.882
 L 73.3595,-60.7637 L 73.3096,-60.6484 L 73.2526,-60.5365 L 73.1886,-60.4283 L 73.118,-60.3244 L 73.041,-60.2251
 L 72.9579,-60.1309 L 72.8691,-60.0421 L 72.7748,-59.959 L 72.6756,-59.882 L 72.5716,-59.8113 L 72.4635,-59.7474
 L 72.3515,-59.6903 L 72.2362,-59.6404 L 72.118,-59.5979 L 71.9974,-59.5628 L 71.8748,-59.5354 L 71.7507,-59.5158
 L 71.6256,-59.5039 L 71.5,-59.5 z
M 93.5,-59.5 L 93.3744,-59.5039 L 93.2493,-59.5158 L 93.1252,-59.5354 L 93.0026,-59.5628 L 92.882,-59.5979
 L 92.7637,-59.6404 L 92.6484,-59.6903 L 92.5365,-59.7474 L 92.4283,-59.8113 L 92.3244,-59.882 L 92.2251,-59.959
 L 92.1309,-60.0421 L 92.0421,-60.1309 L 91.959,-60.2251 L 91.882,-60.3244 L 91.8113,-60.4283 L 91.7474,-60.5365
 L 91.6903,-60.6484 L 91.6404,-60.7637 L 91.5979,-60.882 L 91.5628,-61.0026 L 91.5354,-61.1252 L 91.5158,-61.2493
 L 91.5039,-61.3744 L 91.5,-61.5 L 91.5,-69.5 L 91.5039,-69.6256 L 91.5158,-69.7507 L 91.5354,-69.8748
 L 91.5628,-69.9974 L 91.5979,-70.118 L 91.6404,-70.2362 L 91.6903,-70.3515 L 91.7474,-70.4635 L 91.8113,-70.5716
 L 91.882,-70.6756 L 91.959,-70.7748 L 92.0421,-70.8691 L 92.1309,-70.9579 L 92.2251,-71.041 L 92.3244,-71.118
 L 92.4283,-71.1886 L 92.5365,-71.2526 L 92.6484,-71.3096 L 92.7637,-71.3595 L 92.882,-71.4021 L 93.0026,-71.4372
 L 93.1252,-71.4646 L 93.2493,-71.4842 L 93.3744,-71.496 L 93.5,-71.5 L 101.5,-71.5 L 101.626,-71.496
 L 101.751,-71.4842 L 101.875,-71.4646 L 101.997,-71.4372 L 102.118,-71.4021 L 102.236,-71.3595 L 102.352,-71.3096
 L 102.464,-71.2526 L 102.572,-71.1886 L 102.676,-71.118 L 102.775,-71.041 L 102.869,-70.9579 L 102.958,-70.8691
 L 103.041,-70.7748 L 103.118,-70.6756 L 103.189,-70.5716 L 103.253,-70.4635 L 103.31,-70.3515 L 103.36,-70.2362
 L 103.402,-70.118 L 103.437,-69.9974 L 103.465,-69.8748 L 103.484,-69.7507 L 103.496,-69.6256 L 103.5,-69.5
 L 103.5,-61.5 L 103.496,-61.3744 L 103.484,-61.2493 L 103.465,-61.1252 L 103.437,-61.0026 L 103.402,-60.882
 L 103.36,-60.7637 L 103.31,-60.6484 L 103.253,-60.5365 L 103.189,-60.4283 L 103.118,-60.3244 L 103.041,-60.2251
 L 102.958,-60.1309 L 102.869,-60.0421 L 102.775,-59.959 L 102.676,-59.882 L 102.572,-59.8113 L 102.464,-59.7474
 L 102.352,-59.6903 L 102.236,-59.6404 L 102.118,-59.5979 L 101.997,-59.5628 L 101.875,-59.5354 L 101.751,-59.5158
 L 101.626,-59.5039 L 101.5,-59.5 z
M 3.5,-59.5 L 3.3744,-59.5039 L 3.24933,-59.5158 L 3.12523,-59.5354 L 3.00261,-59.5628 L 2.88196,-59.5979
 L 2.76375,-59.6404 L 2.64844,-59.6903 L 2.53648,-59.7474 L 2.42834,-59.8113 L 2.32442,-59.882 L 2.22514,-59.959
 L 2.13091,-60.0421 L 2.04205,-60.1309 L 1.95897,-60.2251 L 1.88196,-60.3244 L 1.81134,-60.4283 L 1.74738,-60.5365
 L 1.69034,-60.6484 L 1.64044,-60.7637 L 1.59789,-60.882 L 1.56282,-61.0026 L 1.53542,-61.1252 L 1.51576,-61.2493
 L 1.50394,-61.3744 L 1.5,-61.5 L 1.5,-69.5 L 1.50394,-69.6256 L 1.51576,-69.7507 L 1.53542,-69.8748
 L 1.56282,-69.9974 L 1.59789,-70.118 L 1.64044,-70.2362 L 1.69034,-70.3515 L 1.74738,-70.4635 L 1.81134,-70.5716
 L 1.88196,-70.6756 L 1.95897,-70.7748 L 2.04205,-70.8691 L 2.13091,-70.9579 L 2.22514,-71.041 L 2.32442,-71.118
 L 2.42834,-71.1886 L 2.53648,-71.2526 L 2.64844,-71.3096 L 2.76375,-71.3595 L 2.88196,-71.4021 L 3.00261,-71.4372
 L 3.12523,-71.4646 L 3.24933,-71.4842 L 3.3744,-71.496 L 3.5,-71.5 L 11.5,-71.5 L 11.6256,-71.496
 L 11.7507,-71.4842 L 11.8748,-71.4646 L 11.9974,-71.4372 L 12.118,-71.4021 L 12.2362,-71.3595 L 12.3515,-71.3096
 L 12.4635,-71.2526 L 12.5716,-71.1886 L 12.6756,-71.118 L 12.7748,-71.041 L 12.8691,-70.9579 L 12.9579,-70.8691
 L 13.041,-70.7748 L 13.118,-70.6756 L 13.1886,-70.5716 L 13.2526,-70.4635 L 13.3096,-70.3515 L 13.3595,-70.2362
 L 13.4021,-70.118 L 13.4372,-69.9974 L 13.4646,-69.8748 L 13.4842,-69.7507 L 13.496,-69.6256 L 13.5,-69.5
 L 13.5,-61.5 L 13.496,-61.3744 L 13.4842,-61.2493 L 13.4646,-61.1252 L 13.4372,-61.0026 L 13.4021,-60.882
 L 13.3595,-60.7637 L 13.3096,-60.6484 L 13.2526,-60.5365 L 13.1886,-60.4283 L 13.118,-60.3244 L 13.041,-60.2251
 L 12.9579,-60.1309 L 12.8691,-60.0421 L 12.7748,-59.959 L 12.6756,-59.882 L 12.5716,-59.8113 L 12.4635,-59.7474
 L 12.3515,-59.6903 L 12.2362,-59.6404 L 12.118,-59.5979 L 11.9974,-59.5628 L 11.8748,-59.5354 L 11.7507,-59.5158
 L 11.6256,-59.5039 L 11.5,-59.5 z
M 33.5,-59.5 L 33.3744,-59.5039 L 33.2493,-59.5158 L 33.1252,-59.5354 L 33.0026,-59.5628 L 32.882,-59.5979
 L 32.7637,-59.6404 L 32.6484,-59.6903 L 32.5365,-59.7474 L 32.4283,-59.8113 L 32.3244,-59.882 L 32.2251,-59.959
 L 32.1309,-60.0421 L 32.0421,-60.1309 L 31.959,-60.2251 L 31.882,-60.3244 L 31.8113,-60.4283 L 31.7474,-60.5365
 L 31.6903,-60.6484 L 31.6404,-60.7637 L 31.5979,-60.882 L 31.5628,-61.0026 L 31.5354,-61.1252 L 31.5158,-61.2493
 L 31.5039,-61.3744 L 31.5,-61.5 L 31.5,-69.5 L 31.5039,-69.6256 L 31.5158,-69.7507 L 31.5354,-69.8748
 L 31.5628,-69.9974 L 31.5979,-70.118 L 31.6404,-70.2362 L 31.6903,-70.3515 L 31.7474,-70.4635 L 31.8113,-70.5716
 L 31.882,-70.6756 L 31.959,-70.7748 L 32.0421,-70.8691 L 32.1309,-70.9579 L 32.2251,-71.041 L 32.3244,-71.118
 L 32.4283,-71.1886 L 32.5365,-71.2526 L 32.6484,-71.3096 L 32.7637,-71.3595 L 32.882,-71.4021 L 33.0026,-71.4372
 L 33.1252,-71.4646 L 33.2493,-71.4842 L 33.3744,-71.496 L 33.5,-71.5 L 41.5,-71.5 L 41.6256,-71.496
 L 41.7507,-71.4842 L 41.8748,-71.4646 L 41.9974,-71.4372 L 42.118,-71.4021 L 42.2362,-71.3595 L 42.3515,-71.3096
 L 42.4635,-71.2526 L 42.5716,-71.1886 L 42.6756,-71.118 L 42.7748,-71.041 L 42.8691,-70.9579 L 42.9579,-70.8691
 L 43.041,-70.7748 L 43.118,-70.6756 L 43.1886,-70.5716 L 43.2526,-70.4635 L 43.3096,-70.3515 L 43.3595,-70.2362
 L 43.4021,-70.118 L 43.4372,-69.9974 L 43.4646,-69.8748 L 43.4842,-69.7507 L 43.496,-69.6256 L 43.5,-69.5
 L 43.5,-61.5 L 43.496,-61.3744 L 43.4842,-61.2493 L 43.4646,-61.1252 L 43.4372,-61.0026 L 43.4021,-60.882
 L 43.3595,-60.7637 L 43.3096,-60.6484 L 43.2526,-60.5365 L 43.1886,-60.4283 L 43.118,-60.3244 L 43.041,-60.2251
 L 42.9579,-60.1309 L 42.8691,-60.0421 L 42.7748,-59.959 L 42.6756,-59.882 L 42.5716,-59.8113 L 42.4635,-59.7474
 L 42.3515,-59.6903 L 42.2362,-59.6404 L 42.118,-59.5979 L 41.9974,-59.5628 L 41.8748,-59.5354 L 41.7507,-59.5158
 L 41.6256,-59.5039 L 41.5,-59.5 z
M 48.5,-59.5 L 48.3744,-59.5039 L 48.2493,-59.5158 L 48.1252,-59.5354 L 48.0026,-59.5628 L 47.882,-59.5979
 L 47.7637,-59.6404 L 47.6484,-59.6903 L 47.5365,-59.7474 L 47.4283,-59.8113 L 47.3244,-59.882 L 47.2251,-59.959
 L 47.1309,-60.0421 L 47.0421,-60.1309 L 46.959,-60.2251 L 46.882,-60.3244 L 46.8113,-60.4283 L 46.7474,-60.5365
 L 46.6903,-60.6484 L 46.6404,-60.7637 L 46.5979,-60.882 L 46.5628,-61.0026 L 46.5354,-61.1252 L 46.5158,-61.2493
 L 46.5039,-61.3744 L 46.5,-61.5 L 46.5,-69.5 L 46.5039,-69.6256 L 46.5158,-69.7507 L 46.5354,-69.8748
 L 46.5628,-69.9974 L 46.5979,-70.118 L 46.6404,-70.2362 L 46.6903,-70.3515 L 46.7474,-70.4635 L 46.8113,-70.5716
 L 46.882,-70.6756 L 46.959,-70.7748 L 47.0421,-70.8691 L 47.1309,-70.9579 L 47.2251,-71.041 L 47.3244,-71.118
 L 47.4283,-71.1886 L 47.5365,-71.2526 L 47.6484,-71.3096 L 47.7637,-71.3595 L 47.882,-71.4021 L 48.0026,-71.4372
 L 48.1252,-71.4646 L 48.2493,-71.4842 L 48.3744,-71.496 L 48.5,-71.5 L 56.5,-71.5 L 56.6256,-71.496
 L 56.7507,-71.4842 L 56.8748,-71.4646 L 56.9974,-71.4372 L 57.118,-71.4021 L 57.2362,-71.3595 L 57.3515,-71.3096
 L 57.4635,-71.2526 L 57.5716,-71.1886 L 57.6756,-71.118 L 57.7748,-71.041 L 57.8691,-70.9579 L 57.9579,-70.8691
 L 58.041,-70.7748 L 58.118,-70.6756 L 58.1886,-70.5716 L 58.2526,-70.4635 L 58.3096,-70.3515 L 58.3595,-70.2362
 L 58.4021,-70.118 L 58.4372,-69.9974 L 58.4646,-69.8748 L 58.4842,-69.7507 L 58.496,-69.6256 L 58.5,-69.5
 L 58.5,-61.5 L 58.496,-61.3744 L 58.4842,-61.2493 L 58.4646,-61.1252 L 58.4372,-61.0026 L 58.4021,-60.882
 L 58.3595,-60.7637 L 58.3096,-60.6484 L 58.2526,-60.5365 L 58.1886,-60.4283 L 58.118,-60.3244 L 58.041,-60.2251
 L 57.9579,-60.1309 L 57.8691,-60.0421 L 57.7748,-59.959 L 57.6756,-59.882 L 57.5716,-59.8113 L 57.4635,-59.7474
 L 57.3515,-59.6903 L 57.2362,-59.6404 L 57.118,-59.5979 L 56.9974,-59.5628 L 56.8748,-59.5354 L 56.7507,-59.5158
 L 56.6256,-59.5039 L 56.5,-59.5 z
M 108.5,-59.5 L 108.374,-59.5039 L 108.249,-59.5158 L 108.125,-59.5354 L 108.003,-59.5628 L 107.882,-59.5979
 L 107.764,-59.6404 L 107.648,-59.6903 L 107.536,-59.7474 L 107.428,-59.8113 L 107.324,-59.882 L 107.225,-59.959
 L 107.131,-60.0421 L 107.042,-60.1309 L 106.959,-60.2251 L 106.882,-60.3244 L 106.811,-60.4283 L 106.747,-60.5365
 L 106.69,-60.6484 L 106.64,-60.7637 L 106.598,-60.882 L 106.563,-61.0026 L 106.535,-61.1252 L 106.516,-61.2493
 L 106.504,-61.3744 L 106.5,-61.5 L 106.5,-69.5 L 106.504,-69.6256 L 106.516,-69.7507 L 106.535,-69.8748
 L 106.563,-69.9974 L 106.598,-70.118 L 106.64,-70.2362 L 106.69,-70.3515 L 106.747,-70.4635 L 106.811,-70.5716
 L 106.882,-70.6756 L 106.959,-70.7748 L 107.042,-70.8691 L 107.131,-70.9579 L 107.225,-71.041 L 107.324,-71.118
 L 107.428,-71.1886 L 107.536,-71.2526 L 107.648,-71.3096 L 107.764,-71.3595 L 107.882,-71.4021 L 108.003,-71.4372
 L 108.125,-71.4646 L 108.249,-71.4842 L 108.374,-71.496 L 108.5,-71.5 L 116.5,-71.5 L 116.626,-71.496
 L 116.751,-71.4842 L 116.875,-71.4646 L 116.997,-71.4372 L 117.118,-71.4021 L 117.236,-71.3595 L 117.352,-71.3096
 L 117.464,-71.2526 L 117.572,-71.1886 L 117.676,-71.118 L 117.775,-71.041 L 117.869,-70.9579 L 117.958,-70.8691
 L 118.041,-70.7748 L 118.118,-70.6756 L 118.189,-70.5716 L 118.253,-70.4635 L 118.31,-70.3515 L 118.36,-70.2362
 L 118.402,-70.118 L 118.437,-69.9974 L 118.465,-69.8748 L 118.484,-69.7507 L 118.496,-69.6256 L 118.5,-69.5
 L 118.5,-61.5 L 118.496,-61.3744 L 118.484,-61.2493 L 118.465,-61.1252 L 118.437,-61.0026 L 118.402,-60.882
 L 118.36,-60.7637 L 118.31,-60.6484 L 118.253,-60.5365 L 118.189,-60.4283 L 118.118,-60.3244 L 118.041,-60.2251
 L 117.958,-60.1309 L 117.869,-60.0421 L 117.775,-59.959 L 117.676,-59.882 L 117.572,-59.8113 L 117.464,-59.7474
 L 117.352,-59.6903 L 117.236,-59.6404 L 117.118,-59.5979 L 116.997,-59.5628 L 116.875,-59.5354 L 116.751,-59.5158
 L 116.626,-59.5039 L 116.5,-59.5 z
" stroke="black" fill="lightgray" stroke-width="0.5"/>
</svg>
