<?xml version="1.0" standalone="no"?>
<!DOCTYPE svg PUBLIC "-//W3C//DTD SVG 1.1//EN" "http://www.w3.org/Graphics/SVG/1.1/DTD/svg11.dtd">
<svg width="260mm" height="105mm" viewBox="-10 -85 260 105" xmlns="http://www.w3.org/2000/svg" version="1.1">
<title>OpenSCAD Model</title>
<path d="
M 250,-85 L -10,-85 L -10,20 L 250,20 z
M 99.7802,-66.5069 L 99.5613,-66.5276 L 99.3442,-66.562 L 99.1296,-66.61 L 98.9184,-66.6713 L 98.7116,-66.7458
 L 98.5098,-66.8331 L 98.3139,-66.9329 L 98.1246,-67.0448 L 97.9427,-67.1684 L 97.769,-67.3032 L 97.6041,-67.4486
 L 97.4486,-67.6041 L 97.3032,-67.769 L 97.1684,-67.9427 L 97.0448,-68.1246 L 96.9329,-68.3139 L 96.8331,-68.5098
 L 96.7458,-68.7116 L 96.6713,-68.9184 L 96.61,-69.1296 L 96.562,-69.3442 L 96.5276,-69.5613 L 96.5069,-69.7802
 L 96.5,-70 L 96.5069,-70.2198 L 96.5276,-70.4387 L 96.562,-70.6558 L 96.61,-70.8704 L 96.6713,-71.0816
 L 96.7458,-71.2884 L 96.8331,-71.4902 L 96.9329,-71.6861 L 97.0448,-71.8754 L 97.1684,-72.0573 L 97.3032,-72.231
 L 97.4486,-72.3959 L 97.6041,-72.5514 L 97.769,-72.6968 L 97.9427,-72.8316 L 98.1246,-72.9551 L 98.3139,-73.0671
 L 98.5098,-73.1669 L 98.7116,-73.2542 L 98.9184,-73.3287 L 99.1296,-73.39 L 99.3442,-73.438 L 99.5613,-73.4724
 L 99.7802,-73.4931 L 100,-73.5 L 100.22,-73.4931 L 100.439,-73.4724 L 100.656,-73.438 L 100.87,-73.39
 L 101.082,-73.3287 L 101.288,-73.2542 L 101.49,-73.1669 L 101.686,-73.0671 L 101.875,-72.9551 L 102.057,-72.8316
 L 102.231,-72.6968 L 102.396,-72.5514 L 102.551,-72.3959 L 102.697,-72.231 L 102.832,-72.0573 L 102.955,-71.8754
 L 103.067,-71.6861 L 103.167,-71.4902 L 103.254,-71.2884 L 103.329,-71.0816 L 103.39,-70.8704 L 103.438,-70.6558
 L 103.472,-70.4387 L 103.493,-70.2198 L 103.5,-70 L 103.493,-69.7802 L 103.472,-69.5613 L 103.438,-69.3442
 L 103.39,-69.1296 L 103.329,-68.9184 L 103.254,-68.7116 L 103.167,-68.5098 L 103.067,-68.3139 L 102.955,-68.1246
 L 102.832,-67.9427 L 102.697,-67.769 L 102.551,-67.6041 L 102.396,-67.4486 L 102.231,-67.3032 L 102.057,-67.1684
 L 101.875,-67.0448 L 101.686,-66.9329 L 101.49,-66.8331 L 101.288,-66.7458 L 101.082,-66.6713 L 100.87,-66.61
 L 100.656,-66.562 L 100.439,-66.5276 L 100.22,-66.5069 L 100,-66.5 z
M 129.78,-66.5069 L 129.561,-66.5276 L 129.344,-66.562 L 129.13,-66.61 L 128.918,-66.6713 L 128.712,-66.7458
 L 128.51,-66.8331 L 128.314,-66.9329 L 128.125,-67.0448 L 127.943,-67.1684 L 127.769,-67.3032 L 127.604,-67.4486
 L 127.449,-67.6041 L 127.303,-67.769 L 127.168,-67.9427 L 127.045,-68.1246 L 126.933,-68.3139 L 126.833,-68.5098
 L 126.746,-68.7116 L 126.671,-68.9184 L 126.61,-69.1296 L 126.562,-69.3442 L 126.528,-69.5613 L 126.507,-69.7802
 L 126.5,-70 L 126.507,-70.2198 L 126.528,-70.4387 L 126.562,-70.6558 L 126.61,-70.8704 L 126.671,-71.0816
 L 126.746,-71.2884 L 126.833,-71.4902 L 126.933,-71.6861 L 127.045,-71.8754 L 127.168,-72.0573 L 127.303,-72.231
 L 127.449,-72.3959 L 127.604,-72.5514 L 127.769,-72.6968 L 127.943,-72.8316 L 128.125,-72.9551 L 128.314,-73.0671
 L 128.51,-73.1669 L 128.712,-73.2542 L 128.918,-73.3287 L 129.13,-73.39 L 129.344,-73.438 L 129.561,-73.4724
 L 129.78,-73.4931 L 130,-73.5 L 130.22,-73.4931 L 130.439,-73.4724 L 130.656,-73.438 L 130.87,-73.39
 L 131.082,-73.3287 L 131.288,-73.2542 L 131.49,-73.1669 L 131.686,-73.0671 L 131.875,-72.9551 L 132.057,-72.8316
 L 132.231,-72.6968 L 132.396,-72.5514 L 132.551,-72.3959 L 132.697,-72.231 L 132.832,-72.0573 L 132.955,-71.8754
 L 133.067,-71.6861 L 133.167,-71.4902 L 133.254,-71.2884 L 133.329,-71.0816 L 133.39,-70.8704 L 133.438,-70.6558
 L 133.472,-70.4387 L 133.493,-70.2198 L 133.5,-70 L 133.493,-69.7802 L 133.472,-69.5613 L 133.438,-69.3442
 L 133.39,-69.1296 L 133.329,-68.9184 L 133.254,-68.7116 L 133.167,-68.5098 L 133.067,-68.3139 L 132.955,-68.1246
 L 132.832,-67.9427 L 132.697,-67.769 L 132.551,-67.6041 L 132.396,-67.4486 L 132.231,-67.3032 L 132.057,-67.1684
 L 131.875,-67.0448 L 131.686,-66.9329 L 131.49,-66.8331 L 131.288,-66.7458 L 131.082,-66.6713 L 130.87,-66.61
 L 130.656,-66.562 L 130.439,-66.5276 L 130.22,-66.5069 L 130,-66.5 z
M 69.7802,-66.5069 L 69.5613,-66.5276 L 69.3442,-66.562 L 69.1296,-66.61 L 68.9184,-66.6713 L 68.7116,-66.7458
 L 68.5098,-66.8331 L 68.3139,-66.9329 L 68.1246,-67.0448 L 67.9427,-67.1684 L 67.769,-67.3032 L 67.6041,-67.4486
 L 67.4486,-67.6041 L 67.3032,-67.769 L 67.1684,-67.9427 L 67.0448,-68.1246 L 66.9329,-68.3139 L 66.8331,-68.5098
 L 66.7458,-68.7116 L 66.6713,-68.9184 L 66.61,-69.1296 L 66.562,-69.3442 L 66.5276,-69.5613 L 66.5069,-69.7802
 L 66.5,-70 L 66.5069,-70.2198 L 66.5276,-70.4387 L 66.562,-70.6558 L 66.61,-70.8704 L 66.6713,-71.0816
 L 66.7458,-71.2884 L 66.8331,-71.4902 L 66.9329,-71.6861 L 67.0448,-71.8754 L 67.1684,-72.0573 L 67.3032,-72.231
 L 67.4486,-72.3959 L 67.6041,-72.5514 L 67.769,-72.6968 L 67.9427,-72.8316 L 68.1246,-72.9551 L 68.3139,-73.0671
 L 68.5098,-73.1669 L 68.7116,-73.2542 L 68.9184,-73.3287 L 69.1296,-73.39 L 69.3442,-73.438 L 69.5613,-73.4724
 L 69.7802,-73.4931 L 70,-73.5 L 70.2198,-73.4931 L 70.4387,-73.4724 L 70.6558,-73.438 L 70.8704,-73.39
 L 71.0816,-73.3287 L 71.2884,-73.2542 L 71.4902,-73.1669 L 71.6861,-73.0671 L 71.8754,-72.9551 L 72.0573,-72.8316
 L 72.231,-72.6968 L 72.3959,-72.5514 L 72.5514,-72.3959 L 72.6968,-72.231 L 72.8316,-72.0573 L 72.9551,-71.8754
 L 73.0671,-71.6861 L 73.1669,-71.4902 L 73.2542,-71.2884 L 73.3287,-71.0816 L 73.39,-70.8704 L 73.438,-70.6558
 L 73.4724,-70.4387 L 73.4931,-70.2198 L 73.5,-70 L 73.4931,-69.7802 L 73.4724,-69.5613 L 73.438,-69.3442
 L 73.39,-69.1296 L 73.3287,-68.9184 L 73.2542,-68.7116 L 73.1669,-68.5098 L 73.0671,-68.3139 L 72.9551,-68.1246
 L 72.8316,-67.9427 L 72.6968,-67.769 L 72.5514,-67.6041 L 72.3959,-67.4486 L 72.231,-67.3032 L 72.0573,-67.1684
 L 71.8754,-67.0448 L 71.6861,-66.9329 L 71.4902,-66.8331 L 71.2884,-66.7458 L 71.0816,-66.6713 L 70.8704,-66.61
 L 70.6558,-66.562 L 70.4387,-66.5276 L 70.2198,-66.5069 L 70,-66.5 z
M 159.78,-66.5069 L 159.561,-66.5276 L 159.344,-66.562 L 159.13,-66.61 L 158.918,-66.6713 L 158.712,-66.7458
 L 158.51,-66.8331 L 158.314,-66.9329 L 158.125,-67.0448 L 157.943,-67.1684 L 157.769,-67.3032 L 157.604,-67.4486
 L 157.449,-67.6041 L 157.303,-67.769 L 157.168,-67.9427 L 157.045,-68.1246 L 156.933,-68.3139 L 156.833,-68.5098
 L 156.746,-68.7116 L 156.671,-68.9184 L 156.61,-69.1296 L 156.562,-69.3442 L 156.528,-69.5613 L 156.507,-69.7802
 L 156.5,-70 L 156.507,-70.2198 L 156.528,-70.4387 L 156.562,-70.6558 L 156.61,-70.8704 L 156.671,-71.0816
 L 156.746,-71.2884 L 156.833,-71.4902 L 156.933,-71.6861 L 157.045,-71.8754 L 157.168,-72.0573 L 157.303,-72.231
 L 157.449,-72.3959 L 157.604,-72.5514 L 157.769,-72.6968 L 157.943,-72.8316 L 158.125,-72.9551 L 158.314,-73.0671
 L 158.51,-73.1669 L 158.712,-73.2542 L 158.918,-73.3287 L 159.13,-73.39 L 159.344,-73.438 L 159.561,-73.4724
 L 159.78,-73.4931 L 160,-73.5 L 160.22,-73.4931 L 160.439,-73.4724 L 160.656,-73.438 L 160.87,-73.39
 L 161.082,-73.3287 L 161.288,-73.2542 L 161.49,-73.1669 L 161.686,-73.0671 L 161.875,-72.9551 L 162.057,-72.8316
 L 162.231,-72.6968 L 162.396,-72.5514 L 162.551,-72.3959 L 162.697,-72.231 L 162.832,-72.0573 L 162.955,-71.8754
 L 163.067,-71.6861 L 163.167,-71.4902 L 163.254,-71.2884 L 163.329,-71.0816 L 163.39,-70.8704 L 163.438,-70.6558
 L 163.472,-70.4387 L 163.493,-70.2198 L 163.5,-70 L 163.493,-69.7802 L 163.472,-69.5613 L 163.438,-69.3442
 L 163.39,-69.1296 L 163.329,-68.9184 L 163.254,-68.7116 L 163.167,-68.5098 L 163.067,-68.3139 L 162.955,-68.1246
 L 162.832,-67.9427 L 162.697,-67.769 L 162.551,-67.6041 L 162.396,-67.4486 L 162.231,-67.3032 L 162.057,-67.1684
 L 161.875,-67.0448 L 161.686,-66.9329 L 161.49,-66.8331 L 161.288,-66.7458 L 161.082,-66.6713 L 160.87,-66.61
 L 160.656,-66.562 L 160.439,-66.5276 L 160.22,-66.5069 L 160,-66.5 z
M 185,7.5 L 185,-62.5 L 235,-62.5 L 235,7.5 z
M 161.382,-45.8244 L 161.311,-45.9283 L 161.247,-46.0365 L 161.19,-46.1484 L 161.14,-46.2637 L 161.098,-46.382
 L 161.063,-46.5026 L 161.035,-46.6252 L 161.016,-46.7493 L 161.004,-46.8744 L 161,-47 L 161,-53.5
 L 161.004,-53.6256 L 161.016,-53.7507 L 161.035,-53.8748 L 161.063,-53.9974 L 161.098,-54.118 L 161.14,-54.2362
 L 161.19,-54.3515 L 161.247,-54.4635 L 161.311,-54.5717 L 161.382,-54.6756 L 161.459,-54.7748 L 161.542,-54.8691
 L 161.631,-54.9579 L 161.725,-55.041 L 161.824,-55.118 L 161.928,-55.1886 L 162.036,-55.2526 L 162.148,-55.3096
 L 162.264,-55.3595 L 162.382,-55.4021 L 162.503,-55.4372 L 162.625,-55.4646 L 162.749,-55.4842 L 162.874,-55.496
 L 163,-55.5 L 169.5,-55.5 L 169.626,-55.496 L 169.751,-55.4842 L 169.875,-55.4646 L 169.997,-55.4372
 L 170.118,-55.4021 L 170.236,-55.3595 L 170.352,-55.3096 L 170.464,-55.2526 L 170.572,-55.1886 L 170.676,-55.118
 L 170.775,-55.041 L 170.869,-54.9579 L 170.958,-54.8691 L 171.041,-54.7748 L 171.118,-54.6756 L 171.189,-54.5717
 L 171.253,-54.4635 L 171.31,-54.3515 L 171.36,-54.2362 L 171.402,-54.118 L 171.437,-53.9974 L 171.465,-53.8748
 L 171.484,-53.7507 L 171.496,-53.6256 L 171.5,-53.5 L 171.5,-47 L 171.496,-46.8744 L 171.484,-46.7493
 L 171.465,-46.6252 L 171.437,-46.5026 L 171.402,-46.382 L 171.36,-46.2637 L 171.31,-46.1484 L 171.253,-46.0365
 L 171.189,-45.9283 L 171.118,-45.8244 L 171.041,-45.7251 L 170.958,-45.6309 L 170.869,-45.5421 L 170.775,-45.459
 L 170.676,-45.382 L 170.572,-45.3113 L 170.464,-45.2474 L 170.352,-45.1903 L 170.236,-45.1404 L 170.118,-45.0979
 L 169.997,-45.0628 L 169.875,-45.0354 L 169.751,-45.0158 L 169.626,-45.0039 L 169.5,-45 L 163,-45
 L 162.874,-45.0039 L 162.749,-45.0158 L 162.625,-45.0354 L 162.503,-45.0628 L 162.382,-45.0979 L 162.264,-45.1404
 L 162.148,-45.1903 L 162.036,-45.2474 L 161.928,-45.3113 L 161.824,-45.382 L 161.725,-45.459 L 161.631,-45.5421
 L 161.542,-45.6309 L 161.459,-45.7251 z
M 101.382,-45.8244 L 101.311,-45.9283 L 101.247,-46.0365 L 101.19,-46.1484 L 101.14,-46.2637 L 101.098,-46.382
 L 101.063,-46.5026 L 101.035,-46.6252 L 101.016,-46.7493 L 101.004,-46.8744 L 101,-47 L 101,-53.5
 L 101.004,-53.6256 L 101.016,-53.7507 L 101.035,-53.8748 L 101.063,-53.9974 L 101.098,-54.118 L 101.14,-54.2362
 L 101.19,-54.3515 L 101.247,-54.4635 L 101.311,-54.5717 L 101.382,-54.6756 L 101.459,-54.7748 L 101.542,-54.8691
 L 101.631,-54.9579 L 101.725,-55.041 L 101.824,-55.118 L 101.928,-55.1886 L 102.036,-55.2526 L 102.148,-55.3096
 L 102.264,-55.3595 L 102.382,-55.4021 L 102.503,-55.4372 L 102.625,-55.4646 L 102.749,-55.4842 L 102.874,-55.496
 L 103,-55.5 L 109.5,-55.5 L 109.626,-55.496 L 109.751,-55.4842 L 109.875,-55.4646 L 109.997,-55.4372
 L 110.118,-55.4021 L 110.236,-55.3595 L 110.352,-55.3096 L 110.464,-55.2526 L 110.572,-55.1886 L 110.676,-55.118
 L 110.775,-55.041 L 110.869,-54.9579 L 110.958,-54.8691 L 111.041,-54.7748 L 111.118,-54.6756 L 111.189,-54.5717
 L 111.253,-54.4635 L 111.31,-54.3515 L 111.36,-54.2362 L 111.402,-54.118 L 111.437,-53.9974 L 111.465,-53.8748
 L 111.484,-53.7507 L 111.496,-53.6256 L 111.5,-53.5 L 111.5,-47 L 111.496,-46.8744 L 111.484,-46.7493
 L 111.465,-46.6252 L 111.437,-46.5026 L 111.402,-46.382 L 111.36,-46.2637 L 111.31,-46.1484 L 111.253,-46.0365
 L 111.189,-45.9283 L 111.118,-45.8244 L 111.041,-45.7251 L 110.958,-45.6309 L 110.869,-45.5421 L 110.775,-45.459
 L 110.676,-45.382 L 110.572,-45.3113 L 110.464,-45.2474 L 110.352,-45.1903 L 110.236,-45.1404 L 110.118,-45.0979
 L 109.997,-45.0628 L 109.875,-45.0354 L 109.751,-45.0158 L 109.626,-45.0039 L 109.5,-45 L 103,-45
 L 102.874,-45.0039 L 102.749,-45.0158 L 102.625,-45.0354 L 102.503,-45.0628 L 102.382,-45.0979 L 102.264,-45.1404
 L 102.148,-45.1903 L 102.036,-45.2474 L 101.928,-45.3113 L 101.824,-45.382 L 101.725,-45.459 L 101.631,-45.5421
 L 101.542,-45.6309 L 101.459,-45.7251 z
M 58,-45 L 57.8744,-45.0039 L 57.7493,-45.0158 L 57.6252,-45.0354 L 57.5026,-45.0628 L 57.382,-45.0979
 L 57.2637,-45.1404 L 57.1484,-45.1903 L 57.0365,-45.2474 L 56.9283,-45.3113 L 56.8244,-45.382 L 56.7251,-45.459
 L 56.6309,-45.5421 L 56.5421,-45.6309 L 56.459,-45.7251 L 56.382,-45.8244 L 56.3113,-45.9283 L 56.2474,-46.0365
 L 56.1903,-46.1484 L 56.1404,-46.2637 L 56.0979,-46.382 L 56.0628,-46.5026 L 56.0354,-46.6252 L 56.0158,-46.7493
 L 56.0039,-46.8744 L 56,-47 L 56,-53.5 L 56.0039,-53.6256 L 56.0158,-53.7507 L 56.0354,-53.8748
 L 56.0628,-53.9974 L 56.0979,-54.118 L 56.1404,-54.2362 L 56.1903,-54.3515 L 56.2474,-54.4635 L 56.3113,-54.5717
 L 56.382,-54.6756 L 56.459,-54.7748 L 56.5421,-54.8691 L 56.6309,-54.9579 L 56.7251,-55.041 L 56.8244,-55.118
 L 56.9283,-55.1886 L 57.0365,-55.2526 L 57.1484,-55.3096 L 57.2637,-55.3595 L 57.382,-55.4021 L 57.5026,-55.4372
 L 57.6252,-55.4646 L 57.7493,-55.4842 L 57.8744,-55.496 L 58,-55.5 L 64.5,-55.5 L 64.6256,-55.496
 L 64.7507,-55.4842 L 64.8748,-55.4646 L 64.9974,-55.4372 L 65.118,-55.4021 L 65.2363,-55.3595 L 65.3515,-55.3096
 L 65.4635,-55.2526 L 65.5717,-55.1886 L 65.6756,-55.118 L 65.7748,-55.041 L 65.8691,-54.9579 L 65.9579,-54.8691
 L 66.041,-54.7748 L 66.118,-54.6756 L 66.1886,-54.5717 L 66.2526,-54.4635 L 66.3096,-54.3515 L 66.3595,-54.2362
 L 66.4021,-54.118 L 66.4372,-53.9974 L 66.4646,-53.8748 L 66.4842,-53.7507 L 66.496,-53.6256 L 66.5,-53.5
 L 66.5,-47 L 66.496,-46.8744 L 66.4842,-46.7493 L 66.4646,-46.6252 L 66.4372,-46.5026 L 66.4021,-46.382
 L 66.3595,-46.2637 L 66.3096,-46.1484 L 66.2526,-46.0365 L 66.1886,-45.9283 L 66.118,-45.8244 L 66.041,-45.7251
 L 65.9579,-45.6309 L 65.8691,-45.5421 L 65.7748,-45.459 L 65.6756,-45.382 L 65.5717,-45.3113 L 65.4635,-45.2474
 L 65.3515,-45.1903 L 65.2363,-45.1404 L 65.118,-45.0979 L 64.9974,-45.0628 L 64.8748,-45.0354 L 64.7507,-45.0158
 L 64.6256,-45.0039 L 64.5,-45 z
M 118,-45 L 117.874,-45.0039 L 117.749,-45.0158 L 117.625,-45.0354 L 117.503,-45.0628 L 117.382,-45.0979
 L 117.264,-45.1404 L 117.148,-45.1903 L 117.036,-45.2474 L 116.928,-45.3113 L 116.824,-45.382 L 116.725,-45.459
 L 116.631,-45.5421 L 116.542,-45.6309 L 116.459,-45.7251 L 116.382,-45.8244 L 116.311,-45.9283 L 116.247,-46.0365
 L 116.19,-46.1484 L 116.14,-46.2637 L 116.098,-46.382 L 116.063,-46.5026 L 116.035,-46.6252 L 116.016,-46.7493
 L 116.004,-46.8744 L 116,-47 L 116,-53.5 L 116.004,-53.6256 L 116.016,-53.7507 L 116.035,-53.8748
 L 116.063,-53.9974 L 116.098,-54.118 L 116.14,-54.2362 L 116.19,-54.3515 L 116.247,-54.4635 L 116.311,-54.5717
 L 116.382,-54.6756 L 116.459,-54.7748 L 116.542,-54.8691 L 116.631,-54.9579 L 116.725,-55.041 L 116.824,-55.118
 L 116.928,-55.1886 L 117.036,-55.2526 L 117.148,-55.3096 L 117.264,-55.3595 L 117.382,-55.4021 L 117.503,-55.4372
 L 117.625,-55.4646 L 117.749,-55.4842 L 117.874,-55.496 L 118,-55.5 L 124.5,-55.5 L 124.626,-55.496
 L 124.751,-55.4842 L 124.875,-55.4646 L 124.997,-55.4372 L 125.118,-55.4021 L 125.236,-55.3595 L 125.352,-55.3096
 L 125.464,-55.2526 L 125.572,-55.1886 L 125.676,-55.118 L 125.775,-55.041 L 125.869,-54.9579 L 125.958,-54.8691
 L 126.041,-54.7748 L 126.118,-54.6756 L 126.189,-54.5717 L 126.253,-54.4635 L 126.31,-54.3515 L 126.36,-54.2362
 L 126.402,-54.118 L 126.437,-53.9974 L 126.465,-53.8748 L 126.484,-53.7507 L 126.496,-53.6256 L 126.5,-53.5
 L 126.5,-47 L 126.496,-46.8744 L 126.484,-46.7493 L 126.465,-46.6252 L 126.437,-46.5026 L 126.402,-46.382
 L 126.36,-46.2637 L 126.31,-46.1484 L 126.253,-46.0365 L 126.189,-45.9283 L 126.118,-45.8244 L 126.041,-45.7251
 L 125.958,-45.6309 L 125.869,-45.5421 L 125.775,-45.459 L 125.676,-45.382 L 125.572,-45.3113 L 125.464,-45.2474
 L 125.352,-45.1903 L 125.236,-45.1404 L 125.118,-45.0979 L 124.997,-45.0628 L 124.875,-45.0354 L 124.751,-45.0158
 L 124.626,-45.0039 L 124.5,-45 z
M 27,-32.5 L 26.8744,-32.5039 L 26.7493,-32.5158 L 26.6252,-32.5354 L 26.5026,-32.5628 L 26.382,-32.5979
 L 26.2637,-32.6404 L 26.1484,-32.6903 L 26.0365,-32.7474 L 25.9283,-32.8113 L 25.8244,-32.882 L 25.7251,-32.959
 L 25.6309,-33.0421 L 25.5421,-33.1309 L 25.459,-33.2251 L 25.382,-33.3244 L 25.3113,-33.4283 L 25.2474,-33.5365
 L 25.1903,-33.6484 L 25.1404,-33.7637 L 25.0979,-33.882 L 25.0628,-34.0026 L 25.0354,-34.1252 L 25.0158,-34.2493
 L 25.0039,-34.3744 L 25,-34.5 L 25,-46 L 25.0039,-46.1256 L 25.0158,-46.2507 L 25.0354,-46.3748
 L 25.0628,-46.4974 L 25.0979,-46.618 L 25.1404,-46.7362 L 25.1903,-46.8515 L 25.2474,-46.9635 L 25.3113,-47.0717
 L 25.382,-47.1756 L 25.459,-47.2748 L 25.5421,-47.3691 L 25.6309,-47.4579 L 25.7251,-47.541 L 25.8244,-47.618
 L 25.9283,-47.6886 L 26.0365,-47.7526 L 26.1484,-47.8096 L 26.2637,-47.8595 L 26.382,-47.9021 L 26.5026,-47.9372
 L 26.6252,-47.9646 L 26.7493,-47.9842 L 26.8744,-47.996 L 27,-48 L 38.5,-48 L 38.6256,-47.996
 L 38.7507,-47.9842 L 38.8748,-47.9646 L 38.9974,-47.9372 L 39.118,-47.9021 L 39.2362,-47.8595 L 39.3515,-47.8096
 L 39.4635,-47.7526 L 39.5717,-47.6886 L 39.6756,-47.618 L 39.7748,-47.541 L 39.8691,-47.4579 L 39.9579,-47.3691
 L 40.041,-47.2748 L 40.118,-47.1756 L 40.1886,-47.0717 L 40.2526,-46.9635 L 40.3096,-46.8515 L 40.3595,-46.7362
 L 40.4021,-46.618 L 40.4372,-46.4974 L 40.4646,-46.3748 L 40.4842,-46.2507 L 40.496,-46.1256 L 40.5,-46
 L 40.5,-34.5 L 40.496,-34.3744 L 40.4842,-34.2493 L 40.4646,-34.1252 L 40.4372,-34.0026 L 40.4021,-33.882
 L 40.3595,-33.7637 L 40.3096,-33.6484 L 40.2526,-33.5365 L 40.1886,-33.4283 L 40.118,-33.3244 L 40.041,-33.2251
 L 39.9579,-33.1309 L 39.8691,-33.0421 L 39.7748,-32.959 L 39.6756,-32.882 L 39.5717,-32.8113 L 39.4635,-32.7474
 L 39.3515,-32.6903 L 39.2362,-32.6404 L 39.118,-32.5979 L 38.9974,-32.5628 L 38.8748,-32.5354 L 38.7507,-32.5158
 L 38.6256,-32.5039 L 38.5,-32.5 z
M 2,-32.5 L 1.8744,-32.5039 L 1.74933,-32.5158 L 1.62523,-32.5354 L 1.50261,-32.5628 L 1.38196,-32.5979
 L 1.26375,-32.6404 L 1.14844,-32.6903 L 1.03648,-32.7474 L 0.928345,-32.8113 L 0.824417,-32.882 L 0.725143,-32.959
 L 0.630905,-33.0421 L 0.542053,-33.1309 L 0.458969,-33.2251 L 0.381958,-33.3244 L 0.31134,-33.4283 L 0.247375,-33.5365
 L 0.190338,-33.6484 L 0.140442,-33.7637 L 0.0978851,-33.882 L 0.0628204,-34.0026 L 0.0354156,-34.1252 L 0.0157623,-34.2493
 L 0.00393677,-34.3744 L 0,-34.5 L 0,-46 L 0.00393677,-46.1256 L 0.0157623,-46.2507 L 0.0354156,-46.3748
 L 0.0628204,-46.4974 L 0.0978851,-46.618 L 0.140442,-46.7362 L 0.190338,-46.8515 L 0.247375,-46.9635 L 0.31134,-47.0717
 L 0.381958,-47.1756 L 0.458969,-47.2748 L 0.542053,-47.3691 L 0.630905,-47.4579 L 0.725143,-47.541 L 0.824417,-47.618
 L 0.928345,-47.6886 L 1.03648,-47.7526 L 1.14844,-47.8096 L 1.26375,-47.8595 L 1.38196,-47.9021 L 1.50261,-47.9372
 L 1.62523,-47.9646 L 1.74933,-47.9842 L 1.8744,-47.996 L 2,-48 L 13.5,-48 L 13.6256,-47.996
 L 13.7507,-47.9842 L 13.8748,-47.9646 L 13.9974,-47.9372 L 14.118,-47.9021 L 14.2362,-47.8595 L 14.3515,-47.8096
 L 14.4635,-47.7526 L 14.5716,-47.6886 L 14.6756,-47.618 L 14.7748,-47.541 L 14.8691,-47.4579 L 14.9579,-47.3691
 L 15.041,-47.2748 L 15.118,-47.1756 L 15.1886,-47.0717 L 15.2526,-46.9635 L 15.3096,-46.8515 L 15.3595,-46.7362
 L 15.4021,-46.618 L 15.4372,-46.4974 L 15.4646,-46.3748 L 15.4842,-46.2507 L 15.496,-46.1256 L 15.5,-46
 L 15.5,-34.5 L 15.496,-34.3744 L 15.4842,-34.2493 L 15.4646,-34.1252 L 15.4372,-34.0026 L 15.4021,-33.882
 L 15.3595,-33.7637 L 15.3096,-33.6484 L 15.2526,-33.5365 L 15.1886,-33.4283 L 15.118,-33.3244 L 15.041,-33.2251
 L 14.9579,-33.1309 L 14.8691,-33.0421 L 14.7748,-32.959 L 14.6756,-32.882 L 14.5716,-32.8113 L 14.4635,-32.7474
 L 14.3515,-32.6903 L 14.2362,-32.6404 L 14.118,-32.5979 L 13.9974,-32.5628 L 13.8748,-32.5354 L 13.7507,-32.5158
 L 13.6256,-32.5039 L 13.5,-32.5 z
M 118,-30 L 117.874,-30.0039 L 117.749,-30.0158 L 117.625,-30.0354 L 117.503,-30.0628 L 117.382,-30.0979
 L 117.264,-30.1404 L 117.148,-30.1903 L 117.036,-30.2474 L 116.928,-30.3113 L 116.824,-30.382 L 116.725,-30.459
 L 116.631,-30.5421 L 116.542,-30.6309 L 116.459,-30.7251 L 116.382,-30.8244 L 116.311,-30.9283 L 116.247,-31.0365
 L 116.19,-31.1484 L 116.14,-31.2637 L 116.098,-31.382 L 116.063,-31.5026 L 116.035,-31.6252 L 116.016,-31.7493
 L 116.004,-31.8744 L 116,-32 L 116,-38.5 L 116.004,-38.6256 L 116.016,-38.7507 L 116.035,-38.8748
 L 116.063,-38.9974 L 116.098,-39.118 L 116.14,-39.2362 L 116.19,-39.3515 L 116.247,-39.4635 L 116.311,-39.5717
 L 116.382,-39.6756 L 116.459,-39.7748 L 116.542,-39.8691 L 116.631,-39.9579 L 116.725,-40.041 L 116.824,-40.118
 L 116.928,-40.1886 L 117.036,-40.2526 L 117.148,-40.3096 L 117.264,-40.3595 L 117.382,-40.4021 L 117.503,-40.4372
 L 117.625,-40.4646 L 117.749,-40.4842 L 117.874,-40.496 L 118,-40.5 L 124.5,-40.5 L 124.626,-40.496
 L 124.751,-40.4842 L 124.875,-40.4646 L 124.997,-40.4372 L 125.118,-40.4021 L 125.236,-40.3595 L 125.352,-40.3096
 L 125.464,-40.2526 L 125.572,-40.1886 L 125.676,-40.118 L 125.775,-40.041 L 125.869,-39.9579 L 125.958,-39.8691
 L 126.041,-39.7748 L 126.118,-39.6756 L 126.189,-39.5717 L 126.253,-39.4635 L 126.31,-39.3515 L 126.36,-39.2362
 L 126.402,-39.118 L 126.437,-38.9974 L 126.465,-38.8748 L 126.484,-38.7507 L 126.496,-38.6256 L 126.5,-38.5
 L 126.5,-32 L 126.496,-31.8744 L 126.484,-31.7493 L 126.465,-31.6252 L 126.437,-31.5026 L 126.402,-31.382
 L 126.36,-31.2637 L 126.31,-31.1484 L 126.253,-31.0365 L 126.189,-30.9283 L 126.118,-30.8244 L 126.041,-30.7251
 L 125.958,-30.6309 L 125.869,-30.5421 L 125.775,-30.459 L 125.676,-30.382 L 125.572,-30.3113 L 125.464,-30.2474
 L 125.352,-30.1903 L 125.236,-30.1404 L 125.118,-30.0979 L 124.997,-30.0628 L 124.875,-30.0354 L 124.751,-30.0158
 L 124.626,-30.0039 L 124.5,-30 z
M 73,-30 L 72.8744,-30.0039 L 72.7493,-30.0158 L 72.6252,-30.0354 L 72.5026,-30.0628 L 72.382,-30.0979
 L 72.2637,-30.1404 L 72.1484,-30.1903 L 72.0365,-30.2474 L 71.9283,-30.3113 L 71.8244,-30.382 L 71.7251,-30.459
 L 71.6309,-30.5421 L 71.5421,-30.6309 L 71.459,-30.7251 L 71.382,-30.8244 L 71.3113,-30.9283 L 71.2474,-31.0365
 L 71.1903,-31.1484 L 71.1404,-31.2637 L 71.0979,-31.382 L 71.0628,-31.5026 L 71.0354,-31.6252 L 71.0158,-31.7493
 L 71.0039,-31.8744 L 71,-32 L 71,-38.5 L 71.0039,-38.6256 L 71.0158,-38.7507 L 71.0354,-38.8748
 L 71.0628,-38.9974 L 71.0979,-39.118 L 71.1404,-39.2362 L 71.1903,-39.3515 L 71.2474,-39.4635 L 71.3113,-39.5717
 L 71.382,-39.6756 L 71.459,-39.7748 L 71.5421,-39.8691 L 71.6309,-39.9579 L 71.7251,-40.041 L 71.8244,-40.118
 L 71.9283,-40.1886 L 72.0365,-40.2526 L 72.1484,-40.3096 L 72.2637,-40.3595 L 72.382,-40.4021 L 72.5026,-40.4372
 L 72.6252,-40.4646 L 72.7493,-40.4842 L 72.8744,-40.496 L 73,-40.5 L 79.5,-40.5 L 79.6256,-40.496
 L 79.7507,-40.4842 L 79.8748,-40.4646 L 79.9974,-40.4372 L 80.118,-40.4021 L 80.2363,-40.3595 L 80.3515,-40.3096
 L 80.4635,-40.2526 L 80.5717,-40.1886 L 80.6756,-40.118 L 80.7748,-40.041 L 80.8691,-39.9579 L 80.9579,-39.8691
 L 81.041,-39.7748 L 81.118,-39.6756 L 81.1886,-39.5717 L 81.2526,-39.4635 L 81.3096,-39.3515 L 81.3595,-39.2362
 L 81.4021,-39.118 L 81.4372,-38.9974 L 81.4646,-38.8748 L 81.4842,-38.7507 L 81.496,-38.6256 L 81.5,-38.5
 L 81.5,-32 L 81.496,-31.8744 L 81.4842,-31.7493 L 81.4646,-31.6252 L 81.4372,-31.5026 L 81.4021,-31.382
 L 81.3595,-31.2637 L 81.3096,-31.1484 L 81.2526,-31.0365 L 81.1886,-30.9283 L 81.118,-30.8244 L 81.041,-30.7251
 L 80.9579,-30.6309 L 80.8691,-30.5421 L 80.7748,-30.459 L 80.6756,-30.382 L 80.5717,-30.3113 L 80.4635,-30.2474
 L 80.3515,-30.1903 L 80.2363,-30.1404 L 80.118,-30.0979 L 79.9974,-30.0628 L 79.8748,-30.0354 L 79.7507,-30.0158
 L 79.6256,-30.0039 L 79.5,-30 z
M 103,-30 L 102.874,-30.0039 L 102.749,-30.0158 L 102.625,-30.0354 L 102.503,-30.0628 L 102.382,-30.0979
 L 102.264,-30.1404 L 102.148,-30.1903 L 102.036,-30.2474 L 101.928,-30.3113 L 101.824,-30.382 L 101.725,-30.459
 L 101.631,-30.5421 L 101.542,-30.6309 L 101.459,-30.7251 L 101.382,-30.8244 L 101.311,-30.9283 L 101.247,-31.0365
 L 101.19,-31.1484 L 101.14,-31.2637 L 101.098,-31.382 L 101.063,-31.5026 L 101.035,-31.6252 L 101.016,-31.7493
 L 101.004,-31.8744 L 101,-32 L 101,-38.5 L 101.004,-38.6256 L 101.016,-38.7507 L 101.035,-38.8748
 L 101.063,-38.9974 L 101.098,-39.118 L 101.14,-39.2362 L 101.19,-39.3515 L 101.247,-39.4635 L 101.311,-39.5717
 L 101.382,-39.6756 L 101.459,-39.7748 L 101.542,-39.8691 L 101.631,-39.9579 L 101.725,-40.041 L 101.824,-40.118
 L 101.928,-40.1886 L 102.036,-40.2526 L 102.148,-40.3096 L 102.264,-40.3595 L 102.382,-40.4021 L 102.503,-40.4372
 L 102.625,-40.4646 L 102.749,-40.4842 L 102.874,-40.496 L 103,-40.5 L 109.5,-40.5 L 109.626,-40.496
 L 109.751,-40.4842 L 109.875,-40.4646 L 109.997,-40.4372 L 110.118,-40.4021 L 110.236,-40.3595 L 110.352,-40.3096
 L 110.464,-40.2526 L 110.572,-40.1886 L 110.676,-40.118 L 110.775,-40.041 L 110.869,-39.9579 L 110.958,-39.8691
 L 111.041,-39.7748 L 111.118,-39.6756 L 111.189,-39.5717 L 111.253,-39.4635 L 111.31,-39.3515 L 111.36,-39.2362
 L 111.402,-39.118 L 111.437,-38.9974 L 111.465,-38.8748 L 111.484,-38.7507 L 111.496,-38.6256 L 111.5,-38.5
 L 111.5,-32 L 111.496,-31.8744 L 111.484,-31.7493 L 111.465,-31.6252 L 111.437,-31.5026 L 111.402,-31.382
 L 111.36,-31.2637 L 111.31,-31.1484 L 111.253,-31.0365 L 111.189,-30.9283 L 111.118,-30.8244 L 111.041,-30.7251
 L 110.958,-30.6309 L 110.869,-30.5421 L 110.775,-30.459 L 110.676,-30.382 L 110.572,-30.3113 L 110.464,-30.2474
 L 110.352,-30.1903 L 110.236,-30.1404 L 110.118,-30.0979 L 109.997,-30.0628 L 109.875,-30.0354 L 109.751,-30.0158
 L 109.626,-30.0039 L 109.5,-30 z
M 161.725,-40.041 L 161.824,-40.118 L 161.928,-40.1886 L 162.036,-40.2526 L 162.148,-40.3096 L 162.264,-40.3595
 L 162.382,-40.4021 L 162.503,-40.4372 L 162.625,-40.4646 L 162.749,-40.4842 L 162.874,-40.496 L 163,-40.5
 L 169.5,-40.5 L 169.626,-40.496 L 169.751,-40.4842 L 169.875,-40.4646 L 169.997,-40.4372 L 170.118,-40.4021
 L 170.236,-40.3595 L 170.352,-40.3096 L 170.464,-40.2526 L 170.572,-40.1886 L 170.676,-40.118 L 170.775,-40.041
 L 170.869,-39.9579 L 170.958,-39.8691 L 171.041,-39.7748 L 171.118,-39.6756 L 171.189,-39.5717 L 171.253,-39.4635
 L 171.31,-39.3515 L 171.36,-39.2362 L 171.402,-39.118 L 171.437,-38.9974 L 171.465,-38.8748 L 171.484,-38.7507
 L 171.496,-38.6256 L 171.5,-38.5 L 171.5,-32 L 171.496,-31.8744 L 171.484,-31.7493 L 171.465,-31.6252
 L 171.437,-31.5026 L 171.402,-31.382 L 171.36,-31.2637 L 171.31,-31.1484 L 171.253,-31.0365 L 171.189,-30.9283
 L 171.118,-30.8244 L 171.041,-30.7251 L 170.958,-30.6309 L 170.869,-30.5421 L 170.775,-30.459 L 170.676,-30.382
 L 170.572,-30.3113 L 170.464,-30.2474 L 170.352,-30.1903 L 170.236,-30.1404 L 170.118,-30.0979 L 169.997,-30.0628
 L 169.875,-30.0354 L 169.751,-30.0158 L 169.626,-30.0039 L 169.5,-30 L 163,-30 L 162.874,-30.0039
 L 162.749,-30.0158 L 162.625,-30.0354 L 162.503,-30.0628 L 162.382,-30.0979 L 162.264,-30.1404 L 162.148,-30.1903
 L 162.036,-30.2474 L 161.928,-30.3113 L 161.824,-30.382 L 161.725,-30.459 L 161.631,-30.5421 L 161.542,-30.6309
 L 161.459,-30.7251 L 161.382,-30.8244 L 161.311,-30.9283 L 161.247,-31.0365 L 161.19,-31.1484 L 161.14,-31.2637
 L 161.098,-31.382 L 161.063,-31.5026 L 161.035,-31.6252 L 161.016,-31.7493 L 161.004,-31.8744 L 161,-32
 L 161,-38.5 L 161.004,-38.6256 L 161.016,-38.7507 L 161.035,-38.8748 L 161.063,-38.9974 L 161.098,-39.118
 L 161.14,-39.2362 L 161.19,-39.3515 L 161.247,-39.4635 L 161.311,-39.5717 L 161.382,-39.6756 L 161.459,-39.7748
 L 161.542,-39.8691 L 161.631,-39.9579 z
M 58,-30 L 57.8744,-30.0039 L 57.7493,-30.0158 L 57.6252,-30.0354 L 57.5026,-30.0628 L 57.382,-30.0979
 L 57.2637,-30.1404 L 57.1484,-30.1903 L 57.0365,-30.2474 L 56.9283,-30.3113 L 56.8244,-30.382 L 56.7251,-30.459
 L 56.6309,-30.5421 L 56.5421,-30.6309 L 56.459,-30.7251 L 56.382,-30.8244 L 56.3113,-30.9283 L 56.2474,-31.0365
 L 56.1903,-31.1484 L 56.1404,-31.2637 L 56.0979,-31.382 L 56.0628,-31.5026 L 56.0354,-31.6252 L 56.0158,-31.7493
 L 56.0039,-31.8744 L 56,-32 L 56,-38.5 L 56.0039,-38.6256 L 56.0158,-38.7507 L 56.0354,-38.8748
 L 56.0628,-38.9974 L 56.0979,-39.118 L 56.1404,-39.2362 L 56.1903,-39.3515 L 56.2474,-39.4635 L 56.3113,-39.5717
 L 56.382,-39.6756 L 56.459,-39.7748 L 56.5421,-39.8691 L 56.6309,-39.9579 L 56.7251,-40.041 L 56.8244,-40.118
 L 56.9283,-40.1886 L 57.0365,-40.2526 L 57.1484,-40.3096 L 57.2637,-40.3595 L 57.382,-40.4021 L 57.5026,-40.4372
 L 57.6252,-40.4646 L 57.7493,-40.4842 L 57.8744,-40.496 L 58,-40.5 L 64.5,-40.5 L 64.6256,-40.496
 L 64.7507,-40.4842 L 64.8748,-40.4646 L 64.9974,-40.4372 L 65.118,-40.4021 L 65.2363,-40.3595 L 65.3515,-40.3096
 L 65.4635,-40.2526 L 65.5717,-40.1886 L 65.6756,-40.118 L 65.7748,-40.041 L 65.8691,-39.9579 L 65.9579,-39.8691
 L 66.041,-39.7748 L 66.118,-39.6756 L 66.1886,-39.5717 L 66.2526,-39.4635 L 66.3096,-39.3515 L 66.3595,-39.2362
 L 66.4021,-39.118 L 66.4372,-38.9974 L 66.4646,-38.8748 L 66.4842,-38.7507 L 66.496,-38.6256 L 66.5,-38.5
 L 66.5,-32 L 66.496,-31.8744 L 66.4842,-31.7493 L 66.4646,-31.6252 L 66.4372,-31.5026 L 66.4021,-31.382
 L 66.3595,-31.2637 L 66.3096,-31.1484 L 66.2526,-31.0365 L 66.1886,-30.9283 L 66.118,-30.8244 L 66.041,-30.7251
 L 65.9579,-30.6309 L 65.8691,-30.5421 L 65.7748,-30.459 L 65.6756,-30.382 L 65.5717,-30.3113 L 65.4635,-30.2474
 L 65.3515,-30.1903 L 65.2363,-30.1404 L 65.118,-30.0979 L 64.9974,-30.0628 L 64.8748,-30.0354 L 64.7507,-30.0158
 L 64.6256,-30.0039 L 64.5,-30 z
M 133,-30 L 132.874,-30.0039 L 132.749,-30.0158 L 132.625,-30.0354 L 132.503,-30.0628 L 132.382,-30.0979
 L 132.264,-30.1404 L 132.148,-30.1903 L 132.036,-30.2474 L 131.928,-30.3113 L 131.824,-30.382 L 131.725,-30.459
 L 131.631,-30.5421 L 131.542,-30.6309 L 131.459,-30.7251 L 131.382,-30.8244 L 131.311,-30.9283 L 131.247,-31.0365
 L 131.19,-31.1484 L 131.14,-31.2637 L 131.098,-31.382 L 131.063,-31.5026 L 131.035,-31.6252 L 131.016,-31.7493
 L 131.004,-31.8744 L 131,-32 L 131,-38.5 L 131.004,-38.6256 L 131.016,-38.7507 L 131.035,-38.8748
 L 131.063,-38.9974 L 131.098,-39.118 L 131.14,-39.2362 L 131.19,-39.3515 L 131.247,-39.4635 L 131.311,-39.5717
 L 131.382,-39.6756 L 131.459,-39.7748 L 131.542,-39.8691 L 131.631,-39.9579 L 131.725,-40.041 L 131.824,-40.118
 L 131.928,-40.1886 L 132.036,-40.2526 L 132.148,-40.3096 L 132.264,-40.3595 L 132.382,-40.4021 L 132.503,-40.4372
 L 132.625,-40.4646 L 132.749,-40.4842 L 132.874,-40.496 L 133,-40.5 L 139.5,-40.5 L 139.626,-40.496
 L 139.751,-40.4842 L 139.875,-40.4646 L 139.997,-40.4372 L 140.118,-40.4021 L 140.236,-40.3595 L 140.352,-40.3096
 L 140.464,-40.2526 L 140.572,-40.1886 L 140.676,-40.118 L 140.775,-40.041 L 140.869,-39.9579 L 140.958,-39.8691
 L 141.041,-39.7748 L 141.118,-39.6756 L 141.189,-39.5717 L 141.253,-39.4635 L 141.31,-39.3515 L 141.36,-39.2362
 L 141.402,-39.118 L 141.437,-38.9974 L 141.465,-38.8748 L 141.484,-38.7507 L 141.496,-38.6256 L 141.5,-38.5
 L 141.5,-32 L 141.496,-31.8744 L 141.484,-31.7493 L 141.465,-31.6252 L 141.437,-31.5026 L 141.402,-31.382
 L 141.36,-31.2637 L 141.31,-31.1484 L 141.253,-31.0365 L 141.189,-30.9283 L 141.118,-30.8244 L 141.041,-30.7251
 L 140.958,-30.6309 L 140.869,-30.5421 L 140.775,-30.459 L 140.676,-30.382 L 140.572,-30.3113 L 140.464,-30.2474
 L 140.352,-30.1903 L 140.236,-30.1404 L 140.118,-30.0979 L 139.997,-30.0628 L 139.875,-30.0354 L 139.751,-30.0158
 L 139.626,-30.0039 L 139.5,-30 z
M 88,-30 L 87.8744,-30.0039 L 87.7493,-30.0158 L 87.6252,-30.0354 L 87.5026,-30.0628 L 87.382,-30.0979
 L 87.2637,-30.1404 L 87.1484,-30.1903 L 87.0365,-30.2474 L 86.9283,-30.3113 L 86.8244,-30.382 L 86.7251,-30.459
 L 86.6309,-30.5421 L 86.5421,-30.6309 L 86.459,-30.7251 L 86.382,-30.8244 L 86.3113,-30.9283 L 86.2474,-31.0365
 L 86.1903,-31.1484 L 86.1404,-31.2637 L 86.0979,-31.382 L 86.0628,-31.5026 L 86.0354,-31.6252 L 86.0158,-31.7493
 L 86.0039,-31.8744 L 86,-32 L 86,-38.5 L 86.0039,-38.6256 L 86.0158,-38.7507 L 86.0354,-38.8748
 L 86.0628,-38.9974 L 86.0979,-39.118 L 86.1404,-39.2362 L 86.1903,-39.3515 L 86.2474,-39.4635 L 86.3113,-39.5717
 L 86.382,-39.6756 L 86.459,-39.7748 L 86.5421,-39.8691 L 86.6309,-39.9579 L 86.7251,-40.041 L 86.8244,-40.118
 L 86.9283,-40.1886 L 87.0365,-40.2526 L 87.1484,-40.3096 L 87.2637,-40.3595 L 87.382,-40.4021 L 87.5026,-40.4372
 L 87.6252,-40.4646 L 87.7493,-40.4842 L 87.8744,-40.496 L 88,-40.5 L 94.5,-40.5 L 94.6256,-40.496
 L 94.7507,-40.4842 L 94.8748,-40.4646 L 94.9974,-40.4372 L 95.118,-40.4021 L 95.2363,-40.3595 L 95.3515,-40.3096
 L 95.4635,-40.2526 L 95.5717,-40.1886 L 95.6756,-40.118 L 95.7748,-40.041 L 95.8691,-39.9579 L 95.9579,-39.8691
 L 96.041,-39.7748 L 96.118,-39.6756 L 96.1886,-39.5717 L 96.2526,-39.4635 L 96.3096,-39.3515 L 96.3595,-39.2362
 L 96.4021,-39.118 L 96.4372,-38.9974 L 96.4646,-38.8748 L 96.4842,-38.7507 L 96.496,-38.6256 L 96.5,-38.5
 L 96.5,-32 L 96.496,-31.8744 L 96.4842,-31.7493 L 96.4646,-31.6252 L 96.4372,-31.5026 L 96.4021,-31.382
 L 96.3595,-31.2637 L 96.3096,-31.1484 L 96.2526,-31.0365 L 96.1886,-30.9283 L 96.118,-30.8244 L 96.041,-30.7251
 L 95.9579,-30.6309 L 95.8691,-30.5421 L 95.7748,-30.459 L 95.6756,-30.382 L 95.5717,-30.3113 L 95.4635,-30.2474
 L 95.3515,-30.1903 L 95.2363,-30.1404 L 95.118,-30.0979 L 94.9974,-30.0628 L 94.8748,-30.0354 L 94.7507,-30.0158
 L 94.6256,-30.0039 L 94.5,-30 z
M 73,-15 L 72.8744,-15.0039 L 72.7493,-15.0158 L 72.6252,-15.0354 L 72.5026,-15.0628 L 72.382,-15.0979
 L 72.2637,-15.1404 L 72.1484,-15.1903 L 72.0365,-15.2474 L 71.9283,-15.3113 L 71.8244,-15.382 L 71.7251,-15.459
 L 71.6309,-15.5421 L 71.5421,-15.6309 L 71.459,-15.7251 L 71.382,-15.8244 L 71.3113,-15.9283 L 71.2474,-16.0365
 L 71.1903,-16.1484 L 71.1404,-16.2637 L 71.0979,-16.382 L 71.0628,-16.5026 L 71.0354,-16.6252 L 71.0158,-16.7493
 L 71.0039,-16.8744 L 71,-17 L 71,-23.5 L 71.0039,-23.6256 L 71.0158,-23.7507 L 71.0354,-23.8748
 L 71.0628,-23.9974 L 71.0979,-24.118 L 71.1404,-24.2362 L 71.1903,-24.3515 L 71.2474,-24.4635 L 71.3113,-24.5716
 L 71.382,-24.6756 L 71.459,-24.7748 L 71.5421,-24.8691 L 71.6309,-24.9579 L 71.7251,-25.041 L 71.8244,-25.118
 L 71.9283,-25.1886 L 72.0365,-25.2526 L 72.1484,-25.3096 L 72.2637,-25.3595 L 72.382,-25.4021 L 72.5026,-25.4372
 L 72.6252,-25.4646 L 72.7493,-25.4842 L 72.8744,-25.496 L 73,-25.5 L 79.5,-25.5 L 79.6256,-25.496
 L 79.7507,-25.4842 L 79.8748,-25.4646 L 79.9974,-25.4372 L 80.118,-25.4021 L 80.2363,-25.3595 L 80.3515,-25.3096
 L 80.4635,-25.2526 L 80.5717,-25.1886 L 80.6756,-25.118 L 80.7748,-25.041 L 80.8691,-24.9579 L 80.9579,-24.8691
 L 81.041,-24.7748 L 81.118,-24.6756 L 81.1886,-24.5716 L 81.2526,-24.4635 L 81.3096,-24.3515 L 81.3595,-24.2362
 L 81.4021,-24.118 L 81.4372,-23.9974 L 81.4646,-23.8748 L 81.4842,-23.7507 L 81.496,-23.6256 L 81.5,-23.5
 L 81.5,-17 L 81.496,-16.8744 L 81.4842,-16.7493 L 81.4646,-16.6252 L 81.4372,-16.5026 L 81.4021,-16.382
 L 81.3595,-16.2637 L 81.3096,-16.1484 L 81.2526,-16.0365 L 81.1886,-15.9283 L 81.118,-15.8244 L 81.041,-15.7251
 L 80.9579,-15.6309 L 80.8691,-15.5421 L 80.7748,-15.459 L 80.6756,-15.382 L 80.5717,-15.3113 L 80.4635,-15.2474
 L 80.3515,-15.1903 L 80.2363,-15.1404 L 80.118,-15.0979 L 79.9974,-15.0628 L 79.8748,-15.0354 L 79.7507,-15.0158
 L 79.6256,-15.0039 L 79.5,-15 z
M 88,-15 L 87.8744,-15.0039 L 87.7493,-15.0158 L 87.6252,-15.0354 L 87.5026,-15.0628 L 87.382,-15.0979
 L 87.2637,-15.1404 L 87.1484,-15.1903 L 87.0365,-15.2474 L 86.9283,-15.3113 L 86.8244,-15.382 L 86.7251,-15.459
 L 86.6309,-15.5421 L 86.5421,-15.6309 L 86.459,-15.7251 L 86.382,-15.8244 L 86.3113,-15.9283 L 86.2474,-16.0365
 L 86.1903,-16.1484 L 86.1404,-16.2637 L 86.0979,-16.382 L 86.0628,-16.5026 L 86.0354,-16.6252 L 86.0158,-16.7493
 L 86.0039,-16.8744 L 86,-17 L 86,-23.5 L 86.0039,-23.6256 L 86.0158,-23.7507 L 86.0354,-23.8748
 L 86.0628,-23.9974 L 86.0979,-24.118 L 86.1404,-24.2362 L 86.1903,-24.3515 L 86.2474,-24.4635 L 86.3113,-24.5716
 L 86.382,-24.6756 L 86.459,-24.7748 L 86.5421,-24.8691 L 86.6309,-24.9579 L 86.7251,-25.041 L 86.8244,-25.118
 L 86.9283,-25.1886 L 87.0365,-25.2526 L 87.1484,-25.3096 L 87.2637,-25.3595 L 87.382,-25.4021 L 87.5026,-25.4372
 L 87.6252,-25.4646 L 87.7493,-25.4842 L 87.8744,-25.496 L 88,-25.5 L 94.5,-25.5 L 94.6256,-25.496
 L 94.7507,-25.4842 L 94.8748,-25.4646 L 94.9974,-25.4372 L 95.118,-25.4021 L 95.2363,-25.3595 L 95.3515,-25.3096
 L 95.4635,-25.2526 L 95.5717,-25.1886 L 95.6756,-25.118 L 95.7748,-25.041 L 95.8691,-24.9579 L 95.9579,-24.8691
 L 96.041,-24.7748 L 96.118,-24.6756 L 96.1886,-24.5716 L 96.2526,-24.4635 L 96.3096,-24.3515 L 96.3595,-24.2362
 L 96.4021,-24.118 L 96.4372,-23.9974 L 96.4646,-23.8748 L 96.4842,-23.7507 L 96.496,-23.6256 L 96.5,-23.5
 L 96.5,-17 L 96.496,-16.8744 L 96.4842,-16.7493 L 96.4646,-16.6252 L 96.4372,-16.5026 L 96.4021,-16.382
 L 96.3595,-16.2637 L 96.3096,-16.1484 L 96.2526,-16.0365 L 96.1886,-15.9283 L 96.118,-15.8244 L 96.041,-15.7251
 L 95.9579,-15.6309 L 95.8691,-15.5421 L 95.7748,-15.459 L 95.6756,-15.382 L 95.5717,-15.3113 L 95.4635,-15.2474
 L 95.3515,-15.1903 L 95.2363,-15.1404 L 95.118,-15.0979 L 94.9974,-15.0628 L 94.8748,-15.0354 L 94.7507,-15.0158
 L 94.6256,-15.0039 L 94.5,-15 z
M 163,-15 L 162.874,-15.0039 L 162.749,-15.0158 L 162.625,-15.0354 L 162.503,-15.0628 L 162.382,-15.0979
 L 162.264,-15.1404 L 162.148,-15.1903 L 162.036,-15.2474 L 161.928,-15.3113 L 161.824,-15.382 L 161.725,-15.459
 L 161.631,-15.5421 L 161.542,-15.6309 L 161.459,-15.7251 L 161.382,-15.8244 L 161.311,-15.9283 L 161.247,-16.0365
 L 161.19,-16.1484 L 161.14,-16.2637 L 161.098,-16.382 L 161.063,-16.5026 L 161.035,-16.6252 L 161.016,-16.7493
 L 161.004,-16.8744 L 161,-17 L 161,-23.5 L 161.004,-23.6256 L 161.016,-23.7507 L 161.035,-23.8748
 L 161.063,-23.9974 L 161.098,-24.118 L 161.14,-24.2362 L 161.19,-24.3515 L 161.247,-24.4635 L 161.311,-24.5716
 L 161.382,-24.6756 L 161.459,-24.7748 L 161.542,-24.8691 L 161.631,-24.9579 L 161.725,-25.041 L 161.824,-25.118
 L 161.928,-25.1886 L 162.036,-25.2526 L 162.148,-25.3096 L 162.264,-25.3595 L 162.382,-25.4021 L 162.503,-25.4372
 L 162.625,-25.4646 L 162.749,-25.4842 L 162.874,-25.496 L 163,-25.5 L 169.5,-25.5 L 169.626,-25.496
 L 169.751,-25.4842 L 169.875,-25.4646 L 169.997,-25.4372 L 170.118,-25.4021 L 170.236,-25.3595 L 170.352,-25.3096
 L 170.464,-25.2526 L 170.572,-25.1886 L 170.676,-25.118 L 170.775,-25.041 L 170.869,-24.9579 L 170.958,-24.8691
 L 171.041,-24.7748 L 171.118,-24.6756 L 171.189,-24.5716 L 171.253,-24.4635 L 171.31,-24.3515 L 171.36,-24.2362
 L 171.402,-24.118 L 171.437,-23.9974 L 171.465,-23.8748 L 171.484,-23.7507 L 171.496,-23.6256 L 171.5,-23.5
 L 171.5,-17 L 171.496,-16.8744 L 171.484,-16.7493 L 171.465,-16.6252 L 171.437,-16.5026 L 171.402,-16.382
 L 171.36,-16.2637 L 171.31,-16.1484 L 171.253,-16.0365 L 171.189,-15.9283 L 171.118,-15.8244 L 171.041,-15.7251
 L 170.958,-15.6309 L 170.869,-15.5421 L 170.775,-15.459 L 170.676,-15.382 L 170.572,-15.3113 L 170.464,-15.2474
 L 170.352,-15.1903 L 170.236,-15.1404 L 170.118,-15.0979 L 169.997,-15.0628 L 169.875,-15.0354 L 169.751,-15.0158
 L 169.626,-15.0039 L 169.5,-15 z
M 131.016,-23.7507 L 131.035,-23.8748 L 131.063,-23.9974 L 131.098,-24.118 L 131.14,-24.2362 L 131.19,-24.3515
 L 131.247,-24.4635 L 131.311,-24.5716 L 131.382,-24.6756 L 131.459,-24.7748 L 131.542,-24.8691 L 131.631,-24.9579
 L 131.725,-25.041 L 131.824,-25.118 L 131.928,-25.1886 L 132.036,-25.2526 L 132.148,-25.3096 L 132.264,-25.3595
 L 132.382,-25.4021 L 132.503,-25.4372 L 132.625,-25.4646 L 132.749,-25.4842 L 132.874,-25.496 L 133,-25.5
 L 139.5,-25.5 L 139.626,-25.496 L 139.751,-25.4842 L 139.875,-25.4646 L 139.997,-25.4372 L 140.118,-25.4021
 L 140.236,-25.3595 L 140.352,-25.3096 L 140.464,-25.2526 L 140.572,-25.1886 L 140.676,-25.118 L 140.775,-25.041
 L 140.869,-24.9579 L 140.958,-24.8691 L 141.041,-24.7748 L 141.118,-24.6756 L 141.189,-24.5716 L 141.253,-24.4635
 L 141.31,-24.3515 L 141.36,-24.2362 L 141.402,-24.118 L 141.437,-23.9974 L 141.465,-23.8748 L 141.484,-23.7507
 L 141.496,-23.6256 L 141.5,-23.5 L 141.5,-17 L 141.496,-16.8744 L 141.484,-16.7493 L 141.465,-16.6252
 L 141.437,-16.5026 L 141.402,-16.382 L 141.36,-16.2637 L 141.31,-16.1484 L 141.253,-16.0365 L 141.189,-15.9283
 L 141.118,-15.8244 L 141.041,-15.7251 L 140.958,-15.6309 L 140.869,-15.5421 L 140.775,-15.459 L 140.676,-15.382
 L 140.572,-15.3113 L 140.464,-15.2474 L 140.352,-15.1903 L 140.236,-15.1404 L 140.118,-15.0979 L 139.997,-15.0628
 L 139.875,-15.0354 L 139.751,-15.0158 L 139.626,-15.0039 L 139.5,-15 L 133,-15 L 132.874,-15.0039
 L 132.749,-15.0158 L 132.625,-15.0354 L 132.503,-15.0628 L 132.382,-15.0979 L 132.264,-15.1404 L 132.148,-15.1903
 L 132.036,-15.2474 L 131.928,-15.3113 L 131.824,-15.382 L 131.725,-15.459 L 131.631,-15.5421 L 131.542,-15.6309
 L 131.459,-15.7251 L 131.382,-15.8244 L 131.311,-15.9283 L 131.247,-16.0365 L 131.19,-16.1484 L 131.14,-16.2637
 L 131.098,-16.382 L 131.063,-16.5026 L 131.035,-16.6252 L 131.016,-16.7493 L 131.004,-16.8744 L 131,-17
 L 131,-23.5 L 131.004,-23.6256 z
M 148,-15 L 147.874,-15.0039 L 147.749,-15.0158 L 147.625,-15.0354 L 147.503,-15.0628 L 147.382,-15.0979
 L 147.264,-15.1404 L 147.148,-15.1903 L 147.036,-15.2474 L 146.928,-15.3113 L 146.824,-15.382 L 146.725,-15.459
 L 146.631,-15.5421 L 146.542,-15.6309 L 146.459,-15.7251 L 146.382,-15.8244 L 146.311,-15.9283 L 146.247,-16.0365
 L 146.19,-16.1484 L 146.14,-16.2637 L 146.098,-16.382 L 146.063,-16.5026 L 146.035,-16.6252 L 146.016,-16.7493
 L 146.004,-16.8744 L 146,-17 L 146,-23.5 L 146.004,-23.6256 L 146.016,-23.7507 L 146.035,-23.8748
 L 146.063,-23.9974 L 146.098,-24.118 L 146.14,-24.2362 L 146.19,-24.3515 L 146.247,-24.4635 L 146.311,-24.5716
 L 146.382,-24.6756 L 146.459,-24.7748 L 146.542,-24.8691 L 146.631,-24.9579 L 146.725,-25.041 L 146.824,-25.118
 L 146.928,-25.1886 L 147.036,-25.2526 L 147.148,-25.3096 L 147.264,-25.3595 L 147.382,-25.4021 L 147.503,-25.4372
 L 147.625,-25.4646 L 147.749,-25.4842 L 147.874,-25.496 L 148,-25.5 L 154.5,-25.5 L 154.626,-25.496
 L 154.751,-25.4842 L 154.875,-25.4646 L 154.997,-25.4372 L 155.118,-25.4021 L 155.236,-25.3595 L 155.352,-25.3096
 L 155.464,-25.2526 L 155.572,-25.1886 L 155.676,-25.118 L 155.775,-25.041 L 155.869,-24.9579 L 155.958,-24.8691
 L 156.041,-24.7748 L 156.118,-24.6756 L 156.189,-24.5716 L 156.253,-24.4635 L 156.31,-24.3515 L 156.36,-24.2362
 L 156.402,-24.118 L 156.437,-23.9974 L 156.465,-23.8748 L 156.484,-23.7507 L 156.496,-23.6256 L 156.5,-23.5
 L 156.5,-17 L 156.496,-16.8744 L 156.484,-16.7493 L 156.465,-16.6252 L 156.437,-16.5026 L 156.402,-16.382
 L 156.36,-16.2637 L 156.31,-16.1484 L 156.253,-16.0365 L 156.189,-15.9283 L 156.118,-15.8244 L 156.041,-15.7251
 L 155.958,-15.6309 L 155.869,-15.5421 L 155.775,-15.459 L 155.676,-15.382 L 155.572,-15.3113 L 155.464,-15.2474
 L 155.352,-15.1903 L 155.236,-15.1404 L 155.118,-15.0979 L 154.997,-15.0628 L 154.875,-15.0354 L 154.751,-15.0158
 L 154.626,-15.0039 L 154.5,-15 z
M 58,-15 L 57.8744,-15.0039 L 57.7493,-15.0158 L 57.6252,-15.0354 L 57.5026,-15.0628 L 57.382,-15.0979
 L 57.2637,-15.1404 L 57.1484,-15.1903 L 57.0365,-15.2474 L 56.9283,-15.3113 L 56.8244,-15.382 L 56.7251,-15.459
 L 56.6309,-15.5421 L 56.5421,-15.6309 L 56.459,-15.7251 L 56.382,-15.8244 L 56.3113,-15.9283 L 56.2474,-16.0365
 L 56.1903,-16.1484 L 56.1404,-16.2637 L 56.0979,-16.382 L 56.0628,-16.5026 L 56.0354,-16.6252 L 56.0158,-16.7493
 L 56.0039,-16.8744 L 56,-17 L 56,-23.5 L 56.0039,-23.6256 L 56.0158,-23.7507 L 56.0354,-23.8748
 L 56.0628,-23.9974 L 56.0979,-24.118 L 56.1404,-24.2362 L 56.1903,-24.3515 L 56.2474,-24.4635 L 56.3113,-24.5716
 L 56.382,-24.6756 L 56.459,-24.7748 L 56.5421,-24.8691 L 56.6309,-24.9579 L 56.7251,-25.041 L 56.8244,-25.118
 L 56.9283,-25.1886 L 57.0365,-25.2526 L 57.1484,-25.3096 L 57.2637,-25.3595 L 57.382,-25.4021 L 57.5026,-25.4372
 L 57.6252,-25.4646 L 57.7493,-25.4842 L 57.8744,-25.496 L 58,-25.5 L 64.5,-25.5 L 64.6256,-25.496
 L 64.7507,-25.4842 L 64.8748,-25.4646 L 64.9974,-25.4372 L 65.118,-25.4021 L 65.2363,-25.3595 L 65.3515,-25.3096
 L 65.4635,-25.2526 L 65.5717,-25.1886 L 65.6756,-25.118 L 65.7748,-25.041 L 65.8691,-24.9579 L 65.9579,-24.8691
 L 66.041,-24.7748 L 66.118,-24.6756 L 66.1886,-24.5716 L 66.2526,-24.4635 L 66.3096,-24.3515 L 66.3595,-24.2362
 L 66.4021,-24.118 L 66.4372,-23.9974 L 66.4646,-23.8748 L 66.4842,-23.7507 L 66.496,-23.6256 L 66.5,-23.5
 L 66.5,-17 L 66.496,-16.8744 L 66.4842,-16.7493 L 66.4646,-16.6252 L 66.4372,-16.5026 L 66.4021,-16.382
 L 66.3595,-16.2637 L 66.3096,-16.1484 L 66.2526,-16.0365 L 66.1886,-15.9283 L 66.118,-15.8244 L 66.041,-15.7251
 L 65.9579,-15.6309 L 65.8691,-15.5421 L 65.7748,-15.459 L 65.6756,-15.382 L 65.5717,-15.3113 L 65.4635,-15.2474
 L 65.3515,-15.1903 L 65.2363,-15.1404 L 65.118,-15.0979 L 64.9974,-15.0628 L 64.8748,-15.0354 L 64.7507,-15.0158
 L 64.6256,-15.0039 L 64.5,-15 z
M 2,-7.5 L 1.8744,-7.50394 L 1.74933,-7.51576 L 1.62523,-7.53542 L 1.50261,-7.56282 L 1.38196,-7.59789
 L 1.26375,-7.64044 L 1.14844,-7.69034 L 1.03648,-7.74738 L 0.928345,-7.81134 L 0.824417,-7.88196 L 0.725143,-7.95897
 L 0.630905,-8.04205 L 0.542053,-8.13091 L 0.458969,-8.22514 L 0.381958,-8.32442 L 0.31134,-8.42834 L 0.247375,-8.53648
 L 0.190338,-8.64844 L 0.140442,-8.76375 L 0.0978851,-8.88196 L 0.0628204,-9.00261 L 0.0354156,-9.12523 L 0.0157623,-9.24933
 L 0.00393677,-9.3744 L 0,-9.5 L 0,-21 L 0.00393677,-21.1256 L 0.0157623,-21.2507 L 0.0354156,-21.3748
 L 0.0628204,-21.4974 L 0.0978851,-21.618 L 0.140442,-21.7362 L 0.190338,-21.8515 L 0.247375,-21.9635 L 0.31134,-22.0716
 L 0.381958,-22.1756 L 0.458969,-22.2748 L 0.542053,-22.3691 L 0.630905,-22.4579 L 0.725143,-22.541 L 0.824417,-22.618
 L 0.928345,-22.6886 L 1.03648,-22.7526 L 1.14844,-22.8096 L 1.26375,-22.8595 L 1.38196,-22.9021 L 1.50261,-22.9372
 L 1.62523,-22.9646 L 1.74933,-22.9842 L 1.8744,-22.996 L 2,-23 L 13.5,-23 L 13.6256,-22.996
 L 13.7507,-22.9842 L 13.8748,-22.9646 L 13.9974,-22.9372 L 14.118,-22.9021 L 14.2362,-22.8595 L 14.3515,-22.8096
 L 14.4635,-22.7526 L 14.5716,-22.6886 L 14.6756,-22.618 L 14.7748,-22.541 L 14.8691,-22.4579 L 14.9579,-22.3691
 L 15.041,-22.2748 L 15.118,-22.1756 L 15.1886,-22.0716 L 15.2526,-21.9635 L 15.3096,-21.8515 L 15.3595,-21.7362
 L 15.4021,-21.618 L 15.4372,-21.4974 L 15.4646,-21.3748 L 15.4842,-21.2507 L 15.496,-21.1256 L 15.5,-21
 L 15.5,-9.5 L 15.496,-9.3744 L 15.4842,-9.24933 L 15.4646,-9.12523 L 15.4372,-9.00261 L 15.4021,-8.88196
 L 15.3595,-8.76375 L 15.3096,-8.64844 L 15.2526,-8.53648 L 15.1886,-8.42834 L 15.118,-8.32442 L 15.041,-8.22514
 L 14.9579,-8.13091 L 14.8691,-8.04205 L 14.7748,-7.95897 L 14.6756,-7.88196 L 14.5716,-7.81134 L 14.4635,-7.74738
 L 14.3515,-7.69034 L 14.2362,-7.64044 L 14.118,-7.59789 L 13.9974,-7.56282 L 13.8748,-7.53542 L 13.7507,-7.51576
 L 13.6256,-7.50394 L 13.5,-7.5 z
M 27,-7.5 L 26.8744,-7.50394 L 26.7493,-7.51576 L 26.6252,-7.53542 L 26.5026,-7.56282 L 26.382,-7.59789
 L 26.2637,-7.64044 L 26.1484,-7.69034 L 26.0365,-7.74738 L 25.9283,-7.81134 L 25.8244,-7.88196 L 25.7251,-7.95897
 L 25.6309,-8.04205 L 25.5421,-8.13091 L 25.459,-8.22514 L 25.382,-8.32442 L 25.3113,-8.42834 L 25.2474,-8.53648
 L 25.1903,-8.64844 L 25.1404,-8.76375 L 25.0979,-8.88196 L 25.0628,-9.00261 L 25.0354,-9.12523 L 25.0158,-9.24933
 L 25.0039,-9.3744 L 25,-9.5 L 25,-21 L 25.0039,-21.1256 L 25.0158,-21.2507 L 25.0354,-21.3748
 L 25.0628,-21.4974 L 25.0979,-21.618 L 25.1404,-21.7362 L 25.1903,-21.8515 L 25.2474,-21.9635 L 25.3113,-22.0716
 L 25.382,-22.1756 L 25.459,-22.2748 L 25.5421,-22.3691 L 25.6309,-22.4579 L 25.7251,-22.541 L 25.8244,-22.618
 L 25.9283,-22.6886 L 26.0365,-22.7526 L 26.1484,-22.8096 L 26.2637,-22.8595 L 26.382,-22.9021 L 26.5026,-22.9372
 L 26.6252,-22.9646 L 26.7493,-22.9842 L 26.8744,-22.996 L 27,-23 L 38.5,-23 L 38.6256,-22.996
 L 38.7507,-22.9842 L 38.8748,-22.9646 L 38.9974,-22.9372 L 39.118,-22.9021 L 39.2362,-22.8595 L 39.3515,-22.8096
 L 39.4635,-22.7526 L 39.5717,-22.6886 L 39.6756,-22.618 L 39.7748,-22.541 L 39.8691,-22.4579 L 39.9579,-22.3691
 L 40.041,-22.2748 L 40.118,-22.1756 L 40.1886,-22.0716 L 40.2526,-21.9635 L 40.3096,-21.8515 L 40.3595,-21.7362
 L 40.4021,-21.618 L 40.4372,-21.4974 L 40.4646,-21.3748 L 40.4842,-21.2507 L 40.496,-21.1256 L 40.5,-21
 L 40.5,-9.5 L 40.496,-9.3744 L 40.4842,-9.24933 L 40.4646,-9.12523 L 40.4372,-9.00261 L 40.4021,-8.88196
 L 40.3595,-8.76375 L 40.3096,-8.64844 L 40.2526,-8.53648 L 40.1886,-8.42834 L 40.118,-8.32442 L 40.041,-8.22514
 L 39.9579,-8.13091 L 39.8691,-8.04205 L 39.7748,-7.95897 L 39.6756,-7.88196 L 39.5717,-7.81134 L 39.4635,-7.74738
 L 39.3515,-7.69034 L 39.2362,-7.64044 L 39.118,-7.59789 L 38.9974,-7.56282 L 38.8748,-7.53542 L 38.7507,-7.51576
 L 38.6256,-7.50394 L 38.5,-7.5 z
M 116.725,-10.041 L 116.824,-10.118 L 116.928,-10.1886 L 117.036,-10.2526 L 117.148,-10.3096 L 117.264,-10.3595
 L 117.382,-10.4021 L 117.503,-10.4372 L 117.625,-10.4646 L 117.749,-10.4842 L 117.874,-10.496 L 118,-10.5
 L 124.5,-10.5 L 124.626,-10.496 L 124.751,-10.4842 L 124.875,-10.4646 L 124.997,-10.4372 L 125.118,-10.4021
 L 125.236,-10.3595 L 125.352,-10.3096 L 125.464,-10.2526 L 125.572,-10.1886 L 125.676,-10.118 L 125.775,-10.041
 L 125.869,-9.95793 L 125.958,-9.86908 L 126.041,-9.77484 L 126.118,-9.67557 L 126.189,-9.57164 L 126.253,-9.4635
 L 126.31,-9.35155 L 126.36,-9.23624 L 126.402,-9.11803 L 126.437,-8.99738 L 126.465,-8.87476 L 126.484,-8.75066
 L 126.496,-8.62558 L 126.5,-8.5 L 126.5,-2 L 126.496,-1.8744 L 126.484,-1.74933 L 126.465,-1.62523
 L 126.437,-1.50261 L 126.402,-1.38196 L 126.36,-1.26375 L 126.31,-1.14844 L 126.253,-1.03648 L 126.189,-0.928345
 L 126.118,-0.824417 L 126.041,-0.725143 L 125.958,-0.630905 L 125.869,-0.542053 L 125.775,-0.458969 L 125.676,-0.381958
 L 125.572,-0.31134 L 125.464,-0.247375 L 125.352,-0.190338 L 125.236,-0.140442 L 125.118,-0.0978851 L 124.997,-0.0628204
 L 124.875,-0.0354156 L 124.751,-0.0157623 L 124.626,-0.00393677 L 124.5,-0 L 118,-0 L 117.874,-0.00393677
 L 117.749,-0.0157623 L 117.625,-0.0354156 L 117.503,-0.0628204 L 117.382,-0.0978851 L 117.264,-0.140442 L 117.148,-0.190338
 L 117.036,-0.247375 L 116.928,-0.31134 L 116.824,-0.381958 L 116.725,-0.458969 L 116.631,-0.542053 L 116.542,-0.630905
 L 116.459,-0.725143 L 116.382,-0.824417 L 116.311,-0.928345 L 116.247,-1.03648 L 116.19,-1.14844 L 116.14,-1.26375
 L 116.098,-1.38196 L 116.063,-1.50261 L 116.035,-1.62523 L 116.016,-1.74933 L 116.004,-1.8744 L 116,-2
 L 116,-8.5 L 116.004,-8.62558 L 116.016,-8.75066 L 116.035,-8.87476 L 116.063,-8.99738 L 116.098,-9.11803
 L 116.14,-9.23624 L 116.19,-9.35155 L 116.247,-9.4635 L 116.311,-9.57164 L 116.382,-9.67557 L 116.459,-9.77484
 L 116.542,-9.86908 L 116.631,-9.95793 z
M 73,-0 L 72.8744,-0.00393677 L 72.7493,-0.0157623 L 72.6252,-0.0354156 L 72.5026,-0.0628204 L 72.382,-0.0978851
 L 72.2637,-0.140442 L 72.1484,-0.190338 L 72.0365,-0.247375 L 71.9283,-0.31134 L 71.8244,-0.381958 L 71.7251,-0.458969
 L 71.6309,-0.542053 L 71.5421,-0.630905 L 71.459,-0.725143 L 71.382,-0.824417 L 71.3113,-0.928345 L 71.2474,-1.03648
 L 71.1903,-1.14844 L 71.1404,-1.26375 L 71.0979,-1.38196 L 71.0628,-1.50261 L 71.0354,-1.62523 L 71.0158,-1.74933
 L 71.0039,-1.8744 L 71,-2 L 71,-8.5 L 71.0039,-8.62558 L 71.0158,-8.75066 L 71.0354,-8.87476
 L 71.0628,-8.99738 L 71.0979,-9.11803 L 71.1404,-9.23624 L 71.1903,-9.35155 L 71.2474,-9.4635 L 71.3113,-9.57164
 L 71.382,-9.67557 L 71.459,-9.77484 L 71.5421,-9.86908 L 71.6309,-9.95793 L 71.7251,-10.041 L 71.8244,-10.118
 L 71.9283,-10.1886 L 72.0365,-10.2526 L 72.1484,-10.3096 L 72.2637,-10.3595 L 72.382,-10.4021 L 72.5026,-10.4372
 L 72.6252,-10.4646 L 72.7493,-10.4842 L 72.8744,-10.496 L 73,-10.5 L 79.5,-10.5 L 79.6256,-10.496
 L 79.7507,-10.4842 L 79.8748,-10.4646 L 79.9974,-10.4372 L 80.118,-10.4021 L 80.2363,-10.3595 L 80.3515,-10.3096
 L 80.4635,-10.2526 L 80.5717,-10.1886 L 80.6756,-10.118 L 80.7748,-10.041 L 80.8691,-9.95793 L 80.9579,-9.86908
 L 81.041,-9.77484 L 81.118,-9.67557 L 81.1886,-9.57164 L 81.2526,-9.4635 L 81.3096,-9.35155 L 81.3595,-9.23624
 L 81.4021,-9.11803 L 81.4372,-8.99738 L 81.4646,-8.87476 L 81.4842,-8.75066 L 81.496,-8.62558 L 81.5,-8.5
 L 81.5,-2 L 81.496,-1.8744 L 81.4842,-1.74933 L 81.4646,-1.62523 L 81.4372,-1.50261 L 81.4021,-1.38196
 L 81.3595,-1.26375 L 81.3096,-1.14844 L 81.2526,-1.03648 L 81.1886,-0.928345 L 81.118,-0.824417 L 81.041,-0.725143
 L 80.9579,-0.630905 L 80.8691,-0.542053 L 80.7748,-0.458969 L 80.6756,-0.381958 L 80.5717,-0.31134 L 80.4635,-0.247375
 L 80.3515,-0.190338 L 80.2363,-0.140442 L 80.118,-0.0978851 L 79.9974,-0.0628204 L 79.8748,-0.0354156 L 79.7507,-0.0157623
 L 79.6256,-0.00393677 L 79.5,-0 z
M 148,-0 L 147.874,-0.00393677 L 147.749,-0.0157623 L 147.625,-0.0354156 L 147.503,-0.0628204 L 147.382,-0.0978851
 L 147.264,-0.140442 L 147.148,-0.190338 L 147.036,-0.247375 L 146.928,-0.31134 L 146.824,-0.381958 L 146.725,-0.458969
 L 146.631,-0.542053 L 146.542,-0.630905 L 146.459,-0.725143 L 146.382,-0.824417 L 146.311,-0.928345 L 146.247,-1.03648
 L 146.19,-1.14844 L 146.14,-1.26375 L 146.098,-1.38196 L 146.063,-1.50261 L 146.035,-1.62523 L 146.016,-1.74933
 L 146.004,-1.8744 L 146,-2 L 146,-8.5 L 146.004,-8.62558 L 146.016,-8.75066 L 146.035,-8.87476
 L 146.063,-8.99738 L 146.098,-9.11803 L 146.14,-9.23624 L 146.19,-9.35155 L 146.247,-9.4635 L 146.311,-9.57164
 L 146.382,-9.67557 L 146.459,-9.77484 L 146.542,-9.86908 L 146.631,-9.95793 L 146.725,-10.041 L 146.824,-10.118
 L 146.928,-10.1886 L 147.036,-10.2526 L 147.148,-10.3096 L 147.264,-10.3595 L 147.382,-10.4021 L 147.503,-10.4372
 L 147.625,-10.4646 L 147.749,-10.4842 L 147.874,-10.496 L 148,-10.5 L 154.5,-10.5 L 154.626,-10.496
 L 154.751,-10.4842 L 154.875,-10.4646 L 154.997,-10.4372 L 155.118,-10.4021 L 155.236,-10.3595 L 155.352,-10.3096
 L 155.464,-10.2526 L 155.572,-10.1886 L 155.676,-10.118 L 155.775,-10.041 L 155.869,-9.95793 L 155.958,-9.86908
 L 156.041,-9.77484 L 156.118,-9.67557 L 156.189,-9.57164 L 156.253,-9.4635 L 156.31,-9.35155 L 156.36,-9.23624
 L 156.402,-9.11803 L 156.437,-8.99738 L 156.465,-8.87476 L 156.484,-8.75066 L 156.496,-8.62558 L 156.5,-8.5
 L 156.5,-2 L 156.496,-1.8744 L 156.484,-1.74933 L 156.465,-1.62523 L 156.437,-1.50261 L 156.402,-1.38196
 L 156.36,-1.26375 L 156.31,-1.14844 L 156.253,-1.03648 L 156.189,-0.928345 L 156.118,-0.824417 L 156.041,-0.725143
 L 155.958,-0.630905 L 155.869,-0.542053 L 155.775,-0.458969 L 155.676,-0.381958 L 155.572,-0.31134 L 155.464,-0.247375
 L 155.352,-0.190338 L 155.236,-0.140442 L 155.118,-0.0978851 L 154.997,-0.0628204 L 154.875,-0.0354156 L 154.751,-0.0157623
 L 154.626,-0.00393677 L 154.5,-0 z
M 58,-0 L 57.8744,-0.00393677 L 57.7493,-0.0157623 L 57.6252,-0.0354156 L 57.5026,-0.0628204 L 57.382,-0.0978851
 L 57.2637,-0.140442 L 57.1484,-0.190338 L 57.0365,-0.247375 L 56.9283,-0.31134 L 56.8244,-0.381958 L 56.7251,-0.458969
 L 56.6309,-0.542053 L 56.5421,-0.630905 L 56.459,-0.725143 L 56.382,-0.824417 L 56.3113,-0.928345 L 56.2474,-1.03648
 L 56.1903,-1.14844 L 56.1404,-1.26375 L 56.0979,-1.38196 L 56.0628,-1.50261 L 56.0354,-1.62523 L 56.0158,-1.74933
 L 56.0039,-1.8744 L 56,-2 L 56,-8.5 L 56.0039,-8.62558 L 56.0158,-8.75066 L 56.0354,-8.87476
 L 56.0628,-8.99738 L 56.0979,-9.11803 L 56.1404,-9.23624 L 56.1903,-9.35155 L 56.2474,-9.4635 L 56.3113,-9.57164
 L 56.382,-9.67557 L 56.459,-9.77484 L 56.5421,-9.86908 L 56.6309,-9.95793 L 56.7251,-10.041 L 56.8244,-10.118
 L 56.9283,-10.1886 L 57.0365,-10.2526 L 57.1484,-10.3096 L 57.2637,-10.3595 L 57.382,-10.4021 L 57.5026,-10.4372
 L 57.6252,-10.4646 L 57.7493,-10.4842 L 57.8744,-10.496 L 58,-10.5 L 64.5,-10.5 L 64.6256,-10.496
 L 64.7507,-10.4842 L 64.8748,-10.4646 L 64.9974,-10.4372 L 65.118,-10.4021 L 65.2363,-10.3595 L 65.3515,-10.3096
 L 65.4635,-10.2526 L 65.5717,-10.1886 L 65.6756,-10.118 L 65.7748,-10.041 L 65.8691,-9.95793 L 65.9579,-9.86908
 L 66.041,-9.77484 L 66.118,-9.67557 L 66.1886,-9.57164 L 66.2526,-9.4635 L 66.3096,-9.35155 L 66.3595,-9.23624
 L 66.4021,-9.11803 L 66.4372,-8.99738 L 66.4646,-8.87476 L 66.4842,-8.75066 L 66.496,-8.62558 L 66.5,-8.5
 L 66.5,-2 L 66.496,-1.8744 L 66.4842,-1.74933 L 66.4646,-1.62523 L 66.4372,-1.50261 L 66.4021,-1.38196
 L 66.3595,-1.26375 L 66.3096,-1.14844 L 66.2526,-1.03648 L 66.1886,-0.928345 L 66.118,-0.824417 L 66.041,-0.725143
 L 65.9579,-0.630905 L 65.8691,-0.542053 L 65.7748,-0.458969 L 65.6756,-0.381958 L 65.5717,-0.31134 L 65.4635,-0.247375
 L 65.3515,-0.190338 L 65.2363,-0.140442 L 65.118,-0.0978851 L 64.9974,-0.0628204 L 64.8748,-0.0354156 L 64.7507,-0.0157623
 L 64.6256,-0.00393677 L 64.5,-0 z
M 163,-0 L 162.874,-0.00393677 L 162.749,-0.0157623 L 162.625,-0.0354156 L 162.503,-0.0628204 L 162.382,-0.0978851
 L 162.264,-0.140442 L 162.148,-0.190338 L 162.036,-0.247375 L 161.928,-0.31134 L 161.824,-0.381958 L 161.725,-0.458969
 L 161.631,-0.542053 L 161.542,-0.630905 L 161.459,-0.725143 L 161.382,-0.824417 L 161.311,-0.928345 L 161.247,-1.03648
 L 161.19,-1.14844 L 161.14,-1.26375 L 161.098,-1.38196 L 161.063,-1.50261 L 161.035,-1.62523 L 161.016,-1.74933
 L 161.004,-1.8744 L 161,-2 L 161,-8.5 L 161.004,-8.62558 L 161.016,-8.75066 L 161.035,-8.87476
 L 161.063,-8.99738 L 161.098,-9.11803 L 161.14,-9.23624 L 161.19,-9.35155 L 161.247,-9.4635 L 161.311,-9.57164
 L 161.382,-9.67557 L 161.459,-9.77484 L 161.542,-9.86908 L 161.631,-9.95793 L 161.725,-10.041 L 161.824,-10.118
 L 161.928,-10.1886 L 162.036,-10.2526 L 162.148,-10.3096 L 162.264,-10.3595 L 162.382,-10.4021 L 162.503,-10.4372
 L 162.625,-10.4646 L 162.749,-10.4842 L 162.874,-10.496 L 163,-10.5 L 169.5,-10.5 L 169.626,-10.496
 L 169.751,-10.4842 L 169.875,-10.4646 L 169.997,-10.4372 L 170.118,-10.4021 L 170.236,-10.3595 L 170.352,-10.3096
 L 170.464,-10.2526 L 170.572,-10.1886 L 170.676,-10.118 L 170.775,-10.041 L 170.869,-9.95793 L 170.958,-9.86908
 L 171.041,-9.77484 L 171.118,-9.67557 L 171.189,-9.57164 L 171.253,-9.4635 L 171.31,-9.35155 L 171.36,-9.23624
 L 171.402,-9.11803 L 171.437,-8.99738 L 171.465,-8.87476 L 171.484,-8.75066 L 171.496,-8.62558 L 171.5,-8.5
 L 171.5,-2 L 171.496,-1.8744 L 171.484,-1.74933 L 171.465,-1.62523 L 171.437,-1.50261 L 171.402,-1.38196
 L 171.36,-1.26375 L 171.31,-1.14844 L 171.253,-1.03648 L 171.189,-0.928345 L 171.118,-0.824417 L 171.041,-0.725143
 L 170.958,-0.630905 L 170.869,-0.542053 L 170.775,-0.458969 L 170.676,-0.381958 L 170.572,-0.31134 L 170.464,-0.247375
 L 170.352,-0.190338 L 170.236,-0.140442 L 170.118,-0.0978851 L 169.997,-0.0628204 L 169.875,-0.0354156 L 169.751,-0.0157623
 L 169.626,-0.00393677 L 169.5,-0 z
M 133,-0 L 132.874,-0.00393677 L 132.749,-0.0157623 L 132.625,-0.0354156 L 132.503,-0.0628204 L 132.382,-0.0978851
 L 132.264,-0.140442 L 132.148,-0.190338 L 132.036,-0.247375 L 131.928,-0.31134 L 131.824,-0.381958 L 131.725,-0.458969
 L 131.631,-0.542053 L 131.542,-0.630905 L 131.459,-0.725143 L 131.382,-0.824417 L 131.311,-0.928345 L 131.247,-1.03648
 L 131.19,-1.14844 L 131.14,-1.26375 L 131.098,-1.38196 L 131.063,-1.50261 L 131.035,-1.62523 L 131.016,-1.74933
 L 131.004,-1.8744 L 131,-2 L 131,-8.5 L 131.004,-8.62558 L 131.016,-8.75066 L 131.035,-8.87476
 L 131.063,-8.99738 L 131.098,-9.11803 L 131.14,-9.23624 L 131.19,-9.35155 L 131.247,-9.4635 L 131.311,-9.57164
 L 131.382,-9.67557 L 131.459,-9.77484 L 131.542,-9.86908 L 131.631,-9.95793 L 131.725,-10.041 L 131.824,-10.118
 L 131.928,-10.1886 L 132.036,-10.2526 L 132.148,-10.3096 L 132.264,-10.3595 L 132.382,-10.4021 L 132.503,-10.4372
 L 132.625,-10.4646 L 132.749,-10.4842 L 132.874,-10.496 L 133,-10.5 L 139.5,-10.5 L 139.626,-10.496
 L 139.751,-10.4842 L 139.875,-10.4646 L 139.997,-10.4372 L 140.118,-10.4021 L 140.236,-10.3595 L 140.352,-10.3096
 L 140.464,-10.2526 L 140.572,-10.1886 L 140.676,-10.118 L 140.775,-10.041 L 140.869,-9.95793 L 140.958,-9.86908
 L 141.041,-9.77484 L 141.118,-9.67557 L 141.189,-9.57164 L 141.253,-9.4635 L 141.31,-9.35155 L 141.36,-9.23624
 L 141.402,-9.11803 L 141.437,-8.99738 L 141.465,-8.87476 L 141.484,-8.75066 L 141.496,-8.62558 L 141.5,-8.5
 L 141.5,-2 L 141.496,-1.8744 L 141.484,-1.74933 L 141.465,-1.62523 L 141.437,-1.50261 L 141.402,-1.38196
 L 141.36,-1.26375 L 141.31,-1.14844 L 141.253,-1.03648 L 141.189,-0.928345 L 141.118,-0.824417 L 141.041,-0.725143
 L 140.958,-0.630905 L 140.869,-0.542053 L 140.775,-0.458969 L 140.676,-0.381958 L 140.572,-0.31134 L 140.464,-0.247375
 L 140.352,-0.190338 L 140.236,-0.140442 L 140.118,-0.0978851 L 139.997,-0.0628204 L 139.875,-0.0354156 L 139.751,-0.0157623
 L 139.626,-0.00393677 L 139.5,-0 z
M 80.8691,-45.5421 L 80.7748,-45.459 L 80.6756,-45.382 L 80.5717,-45.3113 L 80.4635,-45.2474 L 80.3515,-45.1903
 L 80.2363,-45.1404 L 80.118,-45.0979 L 79.9974,-45.0628 L 79.8748,-45.0354 L 79.7507,-45.0158 L 79.6256,-45.0039
 L 79.5,-45 L 73,-45 L 72.8744,-45.0039 L 72.7493,-45.0158 L 72.6252,-45.0354 L 72.5026,-45.0628
 L 72.382,-45.0979 L 72.2637,-45.1404 L 72.1484,-45.1903 L 72.0365,-45.2474 L 71.9283,-45.3113 L 71.8244,-45.382
 L 71.7251,-45.459 L 71.6309,-45.5421 L 71.5421,-45.6309 L 71.459,-45.7251 L 71.382,-45.8244 L 71.3113,-45.9283
 L 71.2474,-46.0365 L 71.1903,-46.1484 L 71.1404,-46.2637 L 71.0979,-46.382 L 71.0628,-46.5026 L 71.0354,-46.6252
 L 71.0158,-46.7493 L 71.0039,-46.8744 L 71,-47 L 71,-53.5 L 71.0039,-53.6256 L 71.0158,-53.7507
 L 71.0354,-53.8748 L 71.0628,-53.9974 L 71.0979,-54.118 L 71.1404,-54.2362 L 71.1903,-54.3515 L 71.2474,-54.4635
 L 71.3113,-54.5717 L 71.382,-54.6756 L 71.459,-54.7748 L 71.5421,-54.8691 L 71.6309,-54.9579 L 71.7251,-55.041
 L 71.8244,-55.118 L 71.9283,-55.1886 L 72.0365,-55.2526 L 72.1484,-55.3096 L 72.2637,-55.3595 L 72.382,-55.4021
 L 72.5026,-55.4372 L 72.6252,-55.4646 L 72.7493,-55.4842 L 72.8744,-55.496 L 73,-55.5 L 79.5,-55.5
 L 79.6256,-55.496 L 79.7507,-55.4842 L 79.8748,-55.4646 L 79.9974,-55.4372 L 80.118,-55.4021 L 80.2363,-55.3595
 L 80.3515,-55.3096 L 80.4635,-55.2526 L 80.5717,-55.1886 L 80.6756,-55.118 L 80.7748,-55.041 L 80.8691,-54.9579
 L 80.9579,-54.8691 L 81.041,-54.7748 L 81.118,-54.6756 L 81.1886,-54.5717 L 81.2526,-54.4635 L 81.3096,-54.3515
 L 81.3595,-54.2362 L 81.4021,-54.118 L 81.4372,-53.9974 L 81.4646,-53.8748 L 81.4842,-53.7507 L 81.496,-53.6256
 L 81.5,-53.5 L 81.5,-47 L 81.496,-46.8744 L 81.4842,-46.7493 L 81.4646,-46.6252 L 81.4372,-46.5026
 L 81.4021,-46.382 L 81.3595,-46.2637 L 81.3096,-46.1484 L 81.2526,-46.0365 L 81.1886,-45.9283 L 81.118,-45.8244
 L 81.041,-45.7251 L 80.9579,-45.6309 z
M 140.869,-45.5421 L 140.775,-45.459 L 140.676,-45.382 L 140.572,-45.3113 L 140.464,-45.2474 L 140.352,-45.1903
 L 140.236,-45.1404 L 140.118,-45.0979 L 139.997,-45.0628 L 139.875,-45.0354 L 139.751,-45.0158 L 139.626,-45.0039
 L 139.5,-45 L 133,-45 L 132.874,-45.0039 L 132.749,-45.0158 L 132.625,-45.0354 L 132.503,-45.0628
 L 132.382,-45.0979 L 132.264,-45.1404 L 132.148,-45.1903 L 132.036,-45.2474 L 131.928,-45.3113 L 131.824,-45.382
 L 131.725,-45.459 L 131.631,-45.5421 L 131.542,-45.6309 L 131.459,-45.7251 L 131.382,-45.8244 L 131.311,-45.9283
 L 131.247,-46.0365 L 131.19,-46.1484 L 131.14,-46.2637 L 131.098,-46.382 L 131.063,-46.5026 L 131.035,-46.6252
 L 131.016,-46.7493 L 131.004,-46.8744 L 131,-47 L 131,-53.5 L 131.004,-53.6256 L 131.016,-53.7507
 L 131.035,-53.8748 L 131.063,-53.9974 L 131.098,-54.118 L 131.14,-54.2362 L 131.19,-54.3515 L 131.247,-54.4635
 L 131.311,-54.5717 L 131.382,-54.6756 L 131.459,-54.7748 L 131.542,-54.8691 L 131.631,-54.9579 L 131.725,-55.041
 L 131.824,-55.118 L 131.928,-55.1886 L 132.036,-55.2526 L 132.148,-55.3096 L 132.264,-55.3595 L 132.382,-55.4021
 L 132.503,-55.4372 L 132.625,-55.4646 L 132.749,-55.4842 L 132.874,-55.496 L 133,-55.5 L 139.5,-55.5
 L 139.626,-55.496 L 139.751,-55.4842 L 139.875,-55.4646 L 139.997,-55.4372 L 140.118,-55.4021 L 140.236,-55.3595
 L 140.352,-55.3096 L 140.464,-55.2526 L 140.572,-55.1886 L 140.676,-55.118 L 140.775,-55.041 L 140.869,-54.9579
 L 140.958,-54.8691 L 141.041,-54.7748 L 141.118,-54.6756 L 141.189,-54.5717 L 141.253,-54.4635 L 141.31,-54.3515
 L 141.36,-54.2362 L 141.402,-54.118 L 141.437,-53.9974 L 141.465,-53.8748 L 141.484,-53.7507 L 141.496,-53.6256
 L 141.5,-53.5 L 141.5,-47 L 141.496,-46.8744 L 141.484,-46.7493 L 141.465,-46.6252 L 141.437,-46.5026
 L 141.402,-46.382 L 141.36,-46.2637 L 141.31,-46.1484 L 141.253,-46.0365 L 141.189,-45.9283 L 141.118,-45.8244
 L 141.041,-45.7251 L 140.958,-45.6309 z
M 86.3113,-45.9283 L 86.2474,-46.0365 L 86.1903,-46.1484 L 86.1404,-46.2637 L 86.0979,-46.382 L 86.0628,-46.5026
 L 86.0354,-46.6252 L 86.0158,-46.7493 L 86.0039,-46.8744 L 86,-47 L 86,-53.5 L 86.0039,-53.6256
 L 86.0158,-53.7507 L 86.0354,-53.8748 L 86.0628,-53.9974 L 86.0979,-54.118 L 86.1404,-54.2362 L 86.1903,-54.3515
 L 86.2474,-54.4635 L 86.3113,-54.5717 L 86.382,-54.6756 L 86.459,-54.7748 L 86.5421,-54.8691 L 86.6309,-54.9579
 L 86.7251,-55.041 L 86.8244,-55.118 L 86.9283,-55.1886 L 87.0365,-55.2526 L 87.1484,-55.3096 L 87.2637,-55.3595
 L 87.382,-55.4021 L 87.5026,-55.4372 L 87.6252,-55.4646 L 87.7493,-55.4842 L 87.8744,-55.496 L 88,-55.5
 L 94.5,-55.5 L 94.6256,-55.496 L 94.7507,-55.4842 L 94.8748,-55.4646 L 94.9974,-55.4372 L 95.118,-55.4021
 L 95.2363,-55.3595 L 95.3515,-55.3096 L 95.4635,-55.2526 L 95.5717,-55.1886 L 95.6756,-55.118 L 95.7748,-55.041
 L 95.8691,-54.9579 L 95.9579,-54.8691 L 96.041,-54.7748 L 96.118,-54.6756 L 96.1886,-54.5717 L 96.2526,-54.4635
 L 96.3096,-54.3515 L 96.3595,-54.2362 L 96.4021,-54.118 L 96.4372,-53.9974 L 96.4646,-53.8748 L 96.4842,-53.7507
 L 96.496,-53.6256 L 96.5,-53.5 L 96.5,-47 L 96.496,-46.8744 L 96.4842,-46.7493 L 96.4646,-46.6252
 L 96.4372,-46.5026 L 96.4021,-46.382 L 96.3595,-46.2637 L 96.3096,-46.1484 L 96.2526,-46.0365 L 96.1886,-45.9283
 L 96.118,-45.8244 L 96.041,-45.7251 L 95.9579,-45.6309 L 95.8691,-45.5421 L 95.7748,-45.459 L 95.6756,-45.382
 L 95.5717,-45.3113 L 95.4635,-45.2474 L 95.3515,-45.1903 L 95.2363,-45.1404 L 95.118,-45.0979 L 94.9974,-45.0628
 L 94.8748,-45.0354 L 94.7507,-45.0158 L 94.6256,-45.0039 L 94.5,-45 L 88,-45 L 87.8744,-45.0039
 L 87.7493,-45.0158 L 87.6252,-45.0354 L 87.5026,-45.0628 L 87.382,-45.0979 L 87.2637,-45.1404 L 87.1484,-45.1903
 L 87.0365,-45.2474 L 86.9283,-45.3113 L 86.8244,-45.382 L 86.7251,-45.459 L 86.6309,-45.5421 L 86.5421,-45.6309
 L 86.459,-45.7251 L 86.382,-45.8244 z
M 146.311,-45.9283 L 146.247,-46.0365 L 146.19,-46.1484 L 146.14,-46.2637 L 146.098,-46.382 L 146.063,-46.5026
 L 146.035,-46.6252 L 146.016,-46.7493 L 146.004,-46.8744 L 146,-47 L 146,-53.5 L 146.004,-53.6256
 L 146.016,-53.7507 L 146.035,-53.8748 L 146.063,-53.9974 L 146.098,-54.118 L 146.14,-54.2362 L 146.19,-54.3515
 L 146.247,-54.4635 L 146.311,-54.5717 L 146.382,-54.6756 L 146.459,-54.7748 L 146.542,-54.8691 L 146.631,-54.9579
 L 146.725,-55.041 L 146.824,-55.118 L 146.928,-55.1886 L 147.036,-55.2526 L 147.148,-55.3096 L 147.264,-55.3595
 L 147.382,-55.4021 L 147.503,-55.4372 L 147.625,-55.4646 L 147.749,-55.4842 L 147.874,-55.496 L 148,-55.5
 L 154.5,-55.5 L 154.626,-55.496 L 154.751,-55.4842 L 154.875,-55.4646 L 154.997,-55.4372 L 155.118,-55.4021
 L 155.236,-55.3595 L 155.352,-55.3096 L 155.464,-55.2526 L 155.572,-55.1886 L 155.676,-55.118 L 155.775,-55.041
 L 155.869,-54.9579 L 155.958,-54.8691 L 156.041,-54.7748 L 156.118,-54.6756 L 156.189,-54.5717 L 156.253,-54.4635
 L 156.31,-54.3515 L 156.36,-54.2362 L 156.402,-54.118 L 156.437,-53.9974 L 156.465,-53.8748 L 156.484,-53.7507
 L 156.496,-53.6256 L 156.5,-53.5 L 156.5,-47 L 156.496,-46.8744 L 156.484,-46.7493 L 156.465,-46.6252
 L 156.437,-46.5026 L 156.402,-46.382 L 156.36,-46.2637 L 156.31,-46.1484 L 156.253,-46.0365 L 156.189,-45.9283
 L 156.118,-45.8244 L 156.041,-45.7251 L 155.958,-45.6309 L 155.869,-45.5421 L 155.775,-45.459 L 155.676,-45.382
 L 155.572,-45.3113 L 155.464,-45.2474 L 155.352,-45.1903 L 155.236,-45.1404 L 155.118,-45.0979 L 154.997,-45.0628
 L 154.875,-45.0354 L 154.751,-45.0158 L 154.626,-45.0039 L 154.5,-45 L 148,-45 L 147.874,-45.0039
 L 147.749,-45.0158 L 147.625,-45.0354 L 147.503,-45.0628 L 147.382,-45.0979 L 147.264,-45.1404 L 147.148,-45.1903
 L 147.036,-45.2474 L 146.928,-45.3113 L 146.824,-45.382 L 146.725,-45.459 L 146.631,-45.5421 L 146.542,-45.6309
 L 146.459,-45.7251 L 146.382,-45.8244 z
M 156.118,-39.6756 L 156.189,-39.5717 L 156.253,-39.4635 L 156.31,-39.3515 L 156.36,-39.2362 L 156.402,-39.118
 L 156.437,-38.9974 L 156.465,-38.8748 L 156.484,-38.7507 L 156.496,-38.6256 L 156.5,-38.5 L 156.5,-32
 L 156.496,-31.8744 L 156.484,-31.7493 L 156.465,-31.6252 L 156.437,-31.5026 L 156.402,-31.382 L 156.36,-31.2637
 L 156.31,-31.1484 L 156.253,-31.0365 L 156.189,-30.9283 L 156.118,-30.8244 L 156.041,-30.7251 L 155.958,-30.6309
 L 155.869,-30.5421 L 155.775,-30.459 L 155.676,-30.382 L 155.572,-30.3113 L 155.464,-30.2474 L 155.352,-30.1903
 L 155.236,-30.1404 L 155.118,-30.0979 L 154.997,-30.0628 L 154.875,-30.0354 L 154.751,-30.0158 L 154.626,-30.0039
 L 154.5,-30 L 148,-30 L 147.874,-30.0039 L 147.749,-30.0158 L 147.625,-30.0354 L 147.503,-30.0628
 L 147.382,-30.0979 L 147.264,-30.1404 L 147.148,-30.1903 L 147.036,-30.2474 L 146.928,-30.3113 L 146.824,-30.382
 L 146.725,-30.459 L 146.631,-30.5421 L 146.542,-30.6309 L 146.459,-30.7251 L 146.382,-30.8244 L 146.311,-30.9283
 L 146.247,-31.0365 L 146.19,-31.1484 L 146.14,-31.2637 L 146.098,-31.382 L 146.063,-31.5026 L 146.035,-31.6252
 L 146.016,-31.7493 L 146.004,-31.8744 L 146,-32 L 146,-38.5 L 146.004,-38.6256 L 146.016,-38.7507
 L 146.035,-38.8748 L 146.063,-38.9974 L 146.098,-39.118 L 146.14,-39.2362 L 146.19,-39.3515 L 146.247,-39.4635
 L 146.311,-39.5717 L 146.382,-39.6756 L 146.459,-39.7748 L 146.542,-39.8691 L 146.631,-39.9579 L 146.725,-40.041
 L 146.824,-40.118 L 146.928,-40.1886 L 147.036,-40.2526 L 147.148,-40.3096 L 147.264,-40.3595 L 147.382,-40.4021
 L 147.503,-40.4372 L 147.625,-40.4646 L 147.749,-40.4842 L 147.874,-40.496 L 148,-40.5 L 154.5,-40.5
 L 154.626,-40.496 L 154.751,-40.4842 L 154.875,-40.4646 L 154.997,-40.4372 L 155.118,-40.4021 L 155.236,-40.3595
 L 155.352,-40.3096 L 155.464,-40.2526 L 155.572,-40.1886 L 155.676,-40.118 L 155.775,-40.041 L 155.869,-39.9579
 L 155.958,-39.8691 L 156.041,-39.7748 z
M 126.496,-16.8744 L 126.484,-16.7493 L 126.465,-16.6252 L 126.437,-16.5026 L 126.402,-16.382 L 126.36,-16.2637
 L 126.31,-16.1484 L 126.253,-16.0365 L 126.189,-15.9283 L 126.118,-15.8244 L 126.041,-15.7251 L 125.958,-15.6309
 L 125.869,-15.5421 L 125.775,-15.459 L 125.676,-15.382 L 125.572,-15.3113 L 125.464,-15.2474 L 125.352,-15.1903
 L 125.236,-15.1404 L 125.118,-15.0979 L 124.997,-15.0628 L 124.875,-15.0354 L 124.751,-15.0158 L 124.626,-15.0039
 L 124.5,-15 L 118,-15 L 117.874,-15.0039 L 117.749,-15.0158 L 117.625,-15.0354 L 117.503,-15.0628
 L 117.382,-15.0979 L 117.264,-15.1404 L 117.148,-15.1903 L 117.036,-15.2474 L 116.928,-15.3113 L 116.824,-15.382
 L 116.725,-15.459 L 116.631,-15.5421 L 116.542,-15.6309 L 116.459,-15.7251 L 116.382,-15.8244 L 116.311,-15.9283
 L 116.247,-16.0365 L 116.19,-16.1484 L 116.14,-16.2637 L 116.098,-16.382 L 116.063,-16.5026 L 116.035,-16.6252
 L 116.016,-16.7493 L 116.004,-16.8744 L 116,-17 L 116,-23.5 L 116.004,-23.6256 L 116.016,-23.7507
 L 116.035,-23.8748 L 116.063,-23.9974 L 116.098,-24.118 L 116.14,-24.2362 L 116.19,-24.3515 L 116.247,-24.4635
 L 116.311,-24.5716 L 116.382,-24.6756 L 116.459,-24.7748 L 116.542,-24.8691 L 116.631,-24.9579 L 116.725,-25.041
 L 116.824,-25.118 L 116.928,-25.1886 L 117.036,-25.2526 L 117.148,-25.3096 L 117.264,-25.3595 L 117.382,-25.4021
 L 117.503,-25.4372 L 117.625,-25.4646 L 117.749,-25.4842 L 117.874,-25.496 L 118,-25.5 L 124.5,-25.5
 L 124.626,-25.496 L 124.751,-25.4842 L 124.875,-25.4646 L 124.997,-25.4372 L 125.118,-25.4021 L 125.236,-25.3595
 L 125.352,-25.3096 L 125.464,-25.2526 L 125.572,-25.1886 L 125.676,-25.118 L 125.775,-25.041 L 125.869,-24.9579
 L 125.958,-24.8691 L 126.041,-24.7748 L 126.118,-24.6756 L 126.189,-24.5716 L 126.253,-24.4635 L 126.31,-24.3515
 L 126.36,-24.2362 L 126.402,-24.118 L 126.437,-23.9974 L 126.465,-23.8748 L 126.484,-23.7507 L 126.496,-23.6256
 L 126.5,-23.5 L 126.5,-17 z
M 110.869,-15.5421 L 110.775,-15.459 L 110.676,-15.382 L 110.572,-15.3113 L 110.464,-15.2474 L 110.352,-15.1903
 L 110.236,-15.1404 L 110.118,-15.0979 L 109.997,-15.0628 L 109.875,-15.0354 L 109.751,-15.0158 L 109.626,-15.0039
 L 109.5,-15 L 103,-15 L 102.874,-15.0039 L 102.749,-15.0158 L 102.625,-15.0354 L 102.503,-15.0628
 L 102.382,-15.0979 L 102.264,-15.1404 L 102.148,-15.1903 L 102.036,-15.2474 L 101.928,-15.3113 L 101.824,-15.382
 L 101.725,-15.459 L 101.631,-15.5421 L 101.542,-15.6309 L 101.459,-15.7251 L 101.382,-15.8244 L 101.311,-15.9283
 L 101.247,-16.0365 L 101.19,-16.1484 L 101.14,-16.2637 L 101.098,-16.382 L 101.063,-16.5026 L 101.035,-16.6252
 L 101.016,-16.7493 L 101.004,-16.8744 L 101,-17 L 101,-23.5 L 101.004,-23.6256 L 101.016,-23.7507
 L 101.035,-23.8748 L 101.063,-23.9974 L 101.098,-24.118 L 101.14,-24.2362 L 101.19,-24.3515 L 101.247,-24.4635
 L 101.311,-24.5716 L 101.382,-24.6756 L 101.459,-24.7748 L 101.542,-24.8691 L 101.631,-24.9579 L 101.725,-25.041
 L 101.824,-25.118 L 101.928,-25.1886 L 102.036,-25.2526 L 102.148,-25.3096 L 102.264,-25.3595 L 102.382,-25.4021
 L 102.503,-25.4372 L 102.625,-25.4646 L 102.749,-25.4842 L 102.874,-25.496 L 103,-25.5 L 109.5,-25.5
 L 109.626,-25.496 L 109.751,-25.4842 L 109.875,-25.4646 L 109.997,-25.4372 L 110.118,-25.4021 L 110.236,-25.3595
 L 110.352,-25.3096 L 110.464,-25.2526 L 110.572,-25.1886 L 110.676,-25.118 L 110.775,-25.041 L 110.869,-24.9579
 L 110.958,-24.8691 L 111.041,-24.7748 L 111.118,-24.6756 L 111.189,-24.5716 L 111.253,-24.4635 L 111.31,-24.3515
 L 111.36,-24.2362 L 111.402,-24.118 L 111.437,-23.9974 L 111.465,-23.8748 L 111.484,-23.7507 L 111.496,-23.6256
 L 111.5,-23.5 L 111.5,-17 L 111.496,-16.8744 L 111.484,-16.7493 L 111.465,-16.6252 L 111.437,-16.5026
 L 111.402,-16.382 L 111.36,-16.2637 L 111.31,-16.1484 L 111.253,-16.0365 L 111.189,-15.9283 L 111.118,-15.8244
 L 111.041,-15.7251 L 110.958,-15.6309 z
M 111.118,-9.67557 L 111.189,-9.57164 L 111.253,-9.4635 L 111.31,-9.35155 L 111.36,-9.23624 L 111.402,-9.11803
 L 111.437,-8.99738 L 111.465,-8.87476 L 111.484,-8.75066 L 111.496,-8.62558 L 111.5,-8.5 L 111.5,-2
 L 111.496,-1.8744 L 111.484,-1.74933 L 111.465,-1.62523 L 111.437,-1.50261 L 111.402,-1.38196 L 111.36,-1.26375
 L 111.31,-1.14844 L 111.253,-1.03648 L 111.189,-0.928345 L 111.118,-0.824417 L 111.041,-0.725143 L 110.958,-0.630905
 L 110.869,-0.542053 L 110.775,-0.458969 L 110.676,-0.381958 L 110.572,-0.31134 L 110.464,-0.247375 L 110.352,-0.190338
 L 110.236,-0.140442 L 110.118,-0.0978851 L 109.997,-0.0628204 L 109.875,-0.0354156 L 109.751,-0.0157623 L 109.626,-0.00393677
 L 109.5,-0 L 103,-0 L 102.874,-0.00393677 L 102.749,-0.0157623 L 102.625,-0.0354156 L 102.503,-0.0628204
 L 102.382,-0.0978851 L 102.264,-0.140442 L 102.148,-0.190338 L 102.036,-0.247375 L 101.928,-0.31134 L 101.824,-0.381958
 L 101.725,-0.458969 L 101.631,-0.542053 L 101.542,-0.630905 L 101.459,-0.725143 L 101.382,-0.824417 L 101.311,-0.928345
 L 101.247,-1.03648 L 101.19,-1.14844 L 101.14,-1.26375 L 101.098,-1.38196 L 101.063,-1.50261 L 101.035,-1.62523
 L 101.016,-1.74933 L 101.004,-1.8744 L 101,-2 L 101,-8.5 L 101.004,-8.62558 L 101.016,-8.75066
 L 101.035,-8.87476 L 101.063,-8.99738 L 101.098,-9.11803 L 101.14,-9.23624 L 101.19,-9.35155 L 101.247,-9.4635
 L 101.311,-9.57164 L 101.382,-9.67557 L 101.459,-9.77484 L 101.542,-9.86908 L 101.631,-9.95793 L 101.725,-10.041
 L 101.824,-10.118 L 101.928,-10.1886 L 102.036,-10.2526 L 102.148,-10.3096 L 102.264,-10.3595 L 102.382,-10.4021
 L 102.503,-10.4372 L 102.625,-10.4646 L 102.749,-10.4842 L 102.874,-10.496 L 103,-10.5 L 109.5,-10.5
 L 109.626,-10.496 L 109.751,-10.4842 L 109.875,-10.4646 L 109.997,-10.4372 L 110.118,-10.4021 L 110.236,-10.3595
 L 110.352,-10.3096 L 110.464,-10.2526 L 110.572,-10.1886 L 110.676,-10.118 L 110.775,-10.041 L 110.869,-9.95793
 L 110.958,-9.86908 L 111.041,-9.77484 z
M 96.118,-9.67557 L 96.1886,-9.57164 L 96.2526,-9.4635 L 96.3096,-9.35155 L 96.3595,-9.23624 L 96.4021,-9.11803
 L 96.4372,-8.99738 L 96.4646,-8.87476 L 96.4842,-8.75066 L 96.496,-8.62558 L 96.5,-8.5 L 96.5,-2
 L 96.496,-1.8744 L 96.4842,-1.74933 L 96.4646,-1.62523 L 96.4372,-1.50261 L 96.4021,-1.38196 L 96.3595,-1.26375
 L 96.3096,-1.14844 L 96.2526,-1.03648 L 96.1886,-0.928345 L 96.118,-0.824417 L 96.041,-0.725143 L 95.9579,-0.630905
 L 95.8691,-0.542053 L 95.7748,-0.458969 L 95.6756,-0.381958 L 95.5717,-0.31134 L 95.4635,-0.247375 L 95.3515,-0.190338
 L 95.2363,-0.140442 L 95.118,-0.0978851 L 94.9974,-0.0628204 L 94.8748,-0.0354156 L 94.7507,-0.0157623 L 94.6256,-0.00393677
 L 94.5,-0 L 88,-0 L 87.8744,-0.00393677 L 87.7493,-0.0157623 L 87.6252,-0.0354156 L 87.5026,-0.0628204
 L 87.382,-0.0978851 L 87.2637,-0.140442 L 87.1484,-0.190338 L 87.0365,-0.247375 L 86.9283,-0.31134 L 86.8244,-0.381958
 L 86.7251,-0.458969 L 86.6309,-0.542053 L 86.5421,-0.630905 L 86.459,-0.725143 L 86.382,-0.824417 L 86.3113,-0.928345
 L 86.2474,-1.03648 L 86.1903,-1.14844 L 86.1404,-1.26375 L 86.0979,-1.38196 L 86.0628,-1.50261 L 86.0354,-1.62523
 L 86.0158,-1.74933 L 86.0039,-1.8744 L 86,-2 L 86,-8.5 L 86.0039,-8.62558 L 86.0158,-8.75066
 L 86.0354,-8.87476 L 86.0628,-8.99738 L 86.0979,-9.11803 L 86.1404,-9.23624 L 86.1903,-9.35155 L 86.2474,-9.4635
 L 86.3113,-9.57164 L 86.382,-9.67557 L 86.459,-9.77484 L 86.5421,-9.86908 L 86.6309,-9.95793 L 86.7251,-10.041
 L 86.8244,-10.118 L 86.9283,-10.1886 L 87.0365,-10.2526 L 87.1484,-10.3096 L 87.2637,-10.3595 L 87.382,-10.4021
 L 87.5026,-10.4372 L 87.6252,-10.4646 L 87.7493,-10.4842 L 87.8744,-10.496 L 88,-10.5 L 94.5,-10.5
 L 94.6256,-10.496 L 94.7507,-10.4842 L 94.8748,-10.4646 L 94.9974,-10.4372 L 95.118,-10.4021 L 95.2363,-10.3595
 L 95.3515,-10.3096 L 95.4635,-10.2526 L 95.5717,-10.1886 L 95.6756,-10.118 L 95.7748,-10.041 L 95.8691,-9.95793
 L 95.9579,-9.86908 L 96.041,-9.77484 z
" stroke="black" fill="lightgray" stroke-width="0.5"/>
</svg>
